<?xml version="1.0" encoding="UTF-8"?>
<svg fill="none" viewBox="0 0 478 420" xmlns="http://www.w3.org/2000/svg">
<path d="m36.947 280.01c-3.1446-1.718-5.0314 1.594-2.0503 3.639 2.561 1.76 5.8616 4.942 8.1986 6.317 1.761 1.042 3.5044-0.819 1.761-3.017-2.2901-2.68-4.9538-5.017-7.9093-6.939z" fill="#588157"/>
<path d="m22.176 270.93c0.3466 0.197 0.752 0.262 1.1428 0.185 0.3907-0.077 0.7409-0.291 0.9871-0.604s0.372-0.704 0.3546-1.102-0.1768-0.776-0.4493-1.066c-4.1333-3.323-4.1886-4.107-6.8754-8.722-0.2348-0.489-0.6482-0.871-1.1553-1.065-0.507-0.194-1.0693-0.187-1.5714 0.019-0.502 0.207-0.9059 0.598-1.1286 1.094-0.2228 0.495-0.2475 1.056-0.0691 1.569 0.8654 3.511 5.8313 8.271 8.7646 9.692z" fill="#588157"/>
<path d="m1.6537 233.14c1.0664 3.542 2.4218 6.99 4.0528 10.311 0.16132 0.348 0.44279 0.625 0.7927 0.782s0.74474 0.183 1.1119 0.072c0.36718-0.111 0.68206-0.35 0.88675-0.674 0.20469-0.325 0.28545-0.712 0.22743-1.091-0.75461-3.689-1.8243-7.307-3.1974-10.814-1.2478-3.309-5.0213-2.336-3.8742 1.414z" fill="#588157"/>
<path d="m3.8923 214.78c-0.11925-4.406 0.16622-8.814 0.85281-13.168 0.08431-0.264 0.113-0.543 0.08427-0.819s-0.11425-0.543-0.2512-0.784c-0.13695-0.242-0.32236-0.452-0.54458-0.619-0.22222-0.166-0.47644-0.284-0.74669-0.348-0.27025-0.063-0.55067-0.07-0.82366-0.019-0.27298 0.05-0.53261 0.156-0.76258 0.311-0.22997 0.156-0.4253 0.357-0.57372 0.591-0.14841 0.235-0.2467 0.498-0.28869 0.772-1.0453 4.811-1.1137 9.783-0.20125 14.621 0.12838 0.374 0.3852 0.691 0.72486 0.894 0.33966 0.202 0.74019 0.278 1.1305 0.214 0.39027-0.065 0.74505-0.266 1.0014-0.567 0.25629-0.301 0.39752-0.683 0.39861-1.079z" fill="#588157"/>
<path d="m11.983 174.74c-2.1187 3.019-3.74 6.357-4.8025 9.889-0.10702 0.425-0.0466 0.875 0.1688 1.258 0.2154 0.382 0.56936 0.667 0.98885 0.796 0.41948 0.129 0.87251 0.092 1.2656-0.103s0.6963-0.533 0.8471-0.945c1.5462-3.314 3.425-6.462 5.6075-9.396 1.4616-2.281-1.5849-5.362-4.0754-1.499z" fill="#588157"/>
<path d="m26.734 163.77c3.2276-3.081 2.6289-4.276 8.5181-6.614 3.6427-1.459 1.0591-5.402-2.6591-3.456-3.7824 1.534-6.8083 4.496-8.4225 8.244-0.1223 0.335-0.1312 0.702-0.0253 1.043s0.3209 0.638 0.6119 0.845 0.6419 0.314 0.999 0.302c0.3571-0.011 0.7006-0.139 0.9779-0.364z" fill="#588157"/>
<path d="m52.104 147.26c3.9644-1.215 8.0873-1.835 12.234-1.839 0.3075 0.049 0.6219 0.032 0.9222-0.05s0.5797-0.228 0.8195-0.426c0.2397-0.199 0.4344-0.446 0.571-0.726s0.212-0.585 0.2212-0.896c0.0092-0.312-0.048-0.621-0.1679-0.908-0.1199-0.288-0.2996-0.546-0.5272-0.758-0.2276-0.213-0.4979-0.374-0.7929-0.474-0.2949-0.1-0.6077-0.135-0.9176-0.105-4.8309-2e-3 -9.5862 1.2-13.836 3.496-0.2909 0.226-0.4915 0.549-0.566 0.91s-0.018 0.737 0.1593 1.06c0.1774 0.323 0.4641 0.573 0.8087 0.704 0.3447 0.131 0.7247 0.135 1.0722 0.012z" fill="#588157"/>
<path d="m84.154 146.3c5.1848 1.092 6.0905 4.276 9.0716 7.837 0.2769 0.256 0.6225 0.427 0.9946 0.49 0.3721 0.064 0.7548 0.018 1.1013-0.132 0.3466-0.149 0.6421-0.397 0.8506-0.711 0.2085-0.315 0.321-0.683 0.3238-1.061 0.1409-5.548-7.2954-9.581-11.962-9.795-0.4091 0.018-0.7984 0.181-1.0978 0.46-0.2993 0.28-0.489 0.657-0.5348 1.064-0.0458 0.406 0.0552 0.816 0.2849 1.155s0.5729 0.585 0.9678 0.693z" fill="#588157"/>
<path d="m90.478 178.83c-2.2642 2.454 0.488 5.671 3.6779 3.415 2.2679-1.759 3.9968-4.119 4.9902-6.811 0.993-2.692 1.212-5.609 0.6298-8.419-0.0869-0.389-0.3196-0.729-0.6502-0.951s-0.7338-0.309-1.1265-0.242c-0.3927 0.066-0.7449 0.281-0.9839 0.599-0.2391 0.318-0.3468 0.716-0.301 1.112 0.5208 6.772-2.971 7.761-6.2363 11.297z" fill="#588157"/>
<path d="m66.144 186.57c3.1144 1.049 10.334-0.35 13.424-1.021 0.4407-0.097 0.825-0.364 1.0685-0.744 0.2434-0.379 0.326-0.84 0.2296-1.281-0.0964-0.44-0.3639-0.824-0.7437-1.068-0.3798-0.243-0.8407-0.326-1.2814-0.229-3.7937 0.278-7.6073 0.084-11.353-0.576-0.6357-0.129-1.2968-0.012-1.8492 0.328s-0.9548 0.877-1.1257 1.503c-0.1708 0.625-0.0973 1.293 0.2056 1.866 0.303 0.573 0.8127 1.01 1.4259 1.222z" fill="#588157"/>
<path d="m39.082 171.74c3.2354 3.805 7.5737 6.511 12.415 7.743 0.4112 0.164 0.8703 0.162 1.2799-6e-3 0.4097-0.168 0.7376-0.489 0.9143-0.895s0.1883-0.865 0.0323-1.28c-0.1561-0.414-0.4674-0.751-0.8681-0.94-3.9409-1.519-7.3453-4.169-9.786-7.615-2.0125-2.759-5.9948 0.651-3.9873 2.993z" fill="#588157"/>
<path d="m15.184 130.74c-0.161 3.601 4.82 10.562 7.2955 13.256 0.2622 0.346 0.6512 0.574 1.0815 0.633 0.4302 0.06 0.8665-0.054 1.2128-0.316 0.3462-0.263 0.5742-0.651 0.6336-1.082 0.0595-0.43-0.0545-0.866-0.3167-1.212-1.7106-2.766-5.6124-11.093-7.0439-12.464-0.2492-0.19-0.5442-0.312-0.8553-0.352-0.311-0.041-0.6274 1e-3 -0.9172 0.121-0.2899 0.119-0.5432 0.313-0.7346 0.562-0.1913 0.249-0.314 0.543-0.3557 0.854z" fill="#588157"/>
<path d="m14.777 110.88c-0.3246-4.527-1.4315-6.926-0.8227-12.117 1.0843-9.305-3.3232-7.4868-4.1131-0.42-0.4327 3.8881-0.05032 10.346 2.1031 13.779 0.2208 0.274 0.5257 0.468 0.8676 0.551 0.3419 0.084 0.7018 0.052 1.0241-0.089 0.3223-0.142 0.589-0.385 0.7591-0.693s0.234-0.663 0.1819-1.011z" fill="#588157"/>
<path d="m16.765 79.029c1.4943-3.3221 3.0942-7.0416 4.732-10.268 1.9949-3.9081-2.3723-5.324-3.7207-2.027-1.4591 3.5787-2.6943 7.3233-4.0981 10.932-0.6993 1.8108 2.3295 3.0481 3.0868 1.3631z" fill="#588157"/>
<path d="m30.606 52.361c2.4677-3.6389 5.2273-7.0713 8.2514-10.263 1.693-1.4511-0.7547-3.7094-2.4226-2.9248-2.644 1.2449-7.9017 8.7191-8.82 11.606-0.1317 0.3857-0.1215 0.8058 0.0288 1.1848 0.1504 0.3789 0.431 0.6918 0.7914 0.8824s0.7771 0.2464 1.175 0.1575c0.398-0.089 0.7511-0.3169 0.996-0.6429z" fill="#588157"/>
<path d="m51.496 31.751c3.2099-2.9922 6.8345-5.5061 10.762-7.4642 2.493-1.1442 1.3056-5.5629-3.2125-3.136-3.6315 1.8825-6.8486 4.4736-9.4615 7.62-2.2138 2.789 0.5635 4.2024 1.9119 2.9802z" fill="#588157"/>
<path d="m78.595 15.771c3.7521-2.2318 7.8321-3.8595 12.09-4.8235 4.0577-0.99339 3.0716-5.2963-1.1849-4.2929-4.7393 1.1715-9.1808 3.3217-13.039 6.3123-1.4541 1.1242 0.2541 3.9081 2.1333 2.8041z" fill="#588157"/>
<path d="m109.69 6.3106c4.349-1.2277 8.848-1.8381 13.366-1.8132 4.528 0.15089 4.561-4.6399-0.425-4.4941-4.945 0.037883-9.822 1.1536-14.292 3.2693-0.333 0.21957-0.578 0.55033-0.69 0.93337-0.112 0.38303-0.085 0.79347 0.077 1.1582 0.163 0.36473 0.449 0.66006 0.809 0.83338 0.359 0.17331 0.769 0.21337 1.155 0.11303z" fill="#588157"/>
<path d="m141.95 6.6394c7.887-0.52058 10.762 2.6758 14.619 2.7991 2.289 0.07544 3.316-3.2417-0.596-4.8059-4.592-1.8953-9.659-2.3163-14.501-1.2046-0.372 0.11868-0.689 0.36584-0.896 0.69726-0.206 0.33142-0.288 0.72548-0.231 1.1117 0.058 0.38622 0.251 0.73939 0.545 0.99635s0.67 0.40094 1.06 0.40618z" fill="#588157"/>
<path d="m173.02 15.133c3.391 1.2185 6.529 3.0505 9.258 5.4044 2.047 1.8032 5.282-1.8534 2.636-3.7044-3.203-2.3263-6.801-4.055-10.619-5.1026-3.723-0.9507-4.626 2.1301-1.275 3.4026z" fill="#588157"/>
<path d="m204.7 39.023c2.978 3.0858 6.093-0.4501 3.202-3.0958-2.822-2.5702-5.602-5.0297-8.53-7.4993-0.312-0.3102-0.735-0.4838-1.175-0.4826s-0.861 0.177-1.171 0.4889c-0.311 0.3118-0.484 0.734-0.483 1.1738s0.177 0.8611 0.489 1.1713c2.523 2.8317 5.039 5.5226 7.668 8.2437z" fill="#588157"/>
<path d="m232.28 56.905c3.32 1.9465 6.055-2.96 1.358-4.386-4.103-1.8085-8.011-4.0315-11.663-6.6342-1.429-0.9481-3.325 1.3304-1.859 2.6356 3.77 3.187 7.844 5.9954 12.164 8.3846z" fill="#588157"/>
<path d="m249.15 61.086c4.824 2.5315 10.079 4.1393 15.494 4.7406 4.78 0.591 5.691-4.1244 0.355-4.6903-4.923-0.602-9.778-1.6766-14.495-3.209-0.402-0.1002-0.826-0.0544-1.196 0.1295-0.371 0.1838-0.664 0.4935-0.827 0.8737-0.162 0.3801-0.185 0.8058-0.062 1.2008s0.382 0.7335 0.731 0.9547z" fill="#588157"/>
<path d="m245.71 351.07c-5.155 2.558-9.42 6.609-12.238 11.626-0.158 0.373-0.176 0.79-0.052 1.175s0.383 0.713 0.728 0.924 0.755 0.291 1.154 0.226c0.4-0.066 0.762-0.272 1.022-0.582 3.079-3.682 6.837-6.738 11.069-9.003 6.02-2.897 3.062-7.032-1.683-4.366z" fill="#588157"/>
<path d="m277.48 344.46c-4.581-0.675-9.259-0.038-13.492 1.838-0.412 0.185-0.734 0.523-0.899 0.944-0.164 0.42-0.156 0.888 0.022 1.302 0.178 0.415 0.512 0.743 0.93 0.913s0.886 0.17 1.303-2e-3c4.325-1.094 8.852-1.112 13.185-0.053 5.099 1.479 7.077-3.717-1.049-4.942z" fill="#588157"/>
<path d="m313.41 360.52c-4.398-3.81-9.558-6.64-15.137-8.299-0.369-0.126-0.772-0.115-1.134 0.031-0.363 0.146-0.66 0.418-0.838 0.766-0.178 0.347-0.225 0.747-0.132 1.127 0.093 0.379 0.319 0.712 0.637 0.938 5.081 2.924 9.937 6.222 14.529 9.866 3.532 2.429 5.921-1.378 2.075-4.429z" fill="#588157"/>
<path d="m346.03 368.41c-4.96 0.448-9.961-0.039-14.742-1.436-1.841-0.503-2.993 2.349-1.212 3.161 5.035 2.25 10.558 3.191 16.055 2.734 0.581-0.028 1.129-0.281 1.526-0.707s0.612-0.99 0.599-1.572c-0.013-0.581-0.253-1.135-0.669-1.542-0.416-0.408-0.975-0.637-1.557-0.638z" fill="#588157"/>
<path d="m374.04 359.67c-3.316 2.837-7.285 4.809-11.55 5.739-0.458 0.065-0.871 0.309-1.149 0.679s-0.397 0.835-0.332 1.292c0.065 0.458 0.309 0.872 0.679 1.149 0.37 0.278 0.835 0.398 1.293 0.333 6.417-0.979 8.39-2.993 13.738-5.367 3.862-1.71 0.737-6.981-2.679-3.825z" fill="#588157"/>
<path d="m393.62 337.94c-0.906 3.939-3.055 7.482-6.128 10.108-0.174 0.115-0.323 0.264-0.44 0.437-0.116 0.174-0.197 0.368-0.238 0.573-0.042 0.205-0.042 0.415-2e-3 0.62s0.121 0.4 0.236 0.574c0.116 0.174 0.265 0.323 0.438 0.44 0.173 0.116 0.368 0.197 0.573 0.239 0.205 0.041 0.415 0.041 0.62 1e-3s0.4-0.12 0.574-0.236c3.271-2.097 8.863-8.365 9.18-12.227 0.372-4.542-4.473-3.446-4.813-0.529z" fill="#588157"/>
<path d="m392.56 307.16c2.125 4.622 3.942 7.949 3.889 13.409-0.02 0.212 2e-3 0.426 0.065 0.629 0.062 0.204 0.164 0.393 0.3 0.557 0.136 0.163 0.302 0.299 0.491 0.399 0.188 0.099 0.394 0.161 0.606 0.181 0.211 0.02 0.425-2e-3 0.629-0.065 0.203-0.063 0.392-0.165 0.556-0.3 0.164-0.136 0.3-0.303 0.399-0.491 0.1-0.188 0.162-0.394 0.182-0.606 0.339-4.612-0.131-11.91-2.881-15.954-2.508-3.687-6.083-1.778-4.236 2.241z" fill="#588157"/>
<path d="m391.98 289.35c-0.978-3.676-1.262-7.502-0.838-11.281 0.252-3.836-4.372-4.371-4.672-0.048-0.109 4.204 0.637 8.387 2.192 12.295 0.134 0.432 0.433 0.794 0.832 1.008s0.866 0.263 1.301 0.137c0.434-0.127 0.802-0.419 1.024-0.813 0.221-0.395 0.279-0.861 0.161-1.298z" fill="#588157"/>
<path d="m399.7 249.07c-2.341 1.466-4.365 3.386-5.952 5.646s-2.705 4.815-3.288 7.515c-0.128 0.426-0.085 0.886 0.122 1.281 0.206 0.395 0.558 0.694 0.982 0.833 0.423 0.139 0.884 0.107 1.284-0.09 0.4-0.196 0.708-0.541 0.857-0.961 1.507-4.312 4.388-8.01 8.201-10.527 3.643-2.105 0.906-5.802-2.206-3.697z" fill="#588157"/>
<path d="m399.64 249.11 0.057-0.035c0.078-0.055 0.106-0.075-0.057 0.035z" fill="#588157"/>
<path d="m414.23 243.04c-0.3 0.28-0.493 0.654-0.545 1.06-0.053 0.406 0.037 0.818 0.255 1.165 0.218 0.346 0.55 0.606 0.939 0.735 0.389 0.128 0.811 0.117 1.192-0.032 3.447-1.732 7.24-2.662 11.097-2.722 2.453 0.023 4.813-1.871 2.614-3.641-3.283-2.648-12.475 1.172-15.552 3.435z" fill="#588157"/>
<path d="m456.68 230.75c-3.343 2.264-2.458 3.27-10.712 5.533-0.402 0.081-0.761 0.302-1.013 0.625s-0.38 0.725-0.361 1.134 0.184 0.798 0.465 1.096c0.282 0.298 0.66 0.485 1.068 0.528 3.869-0.119 11.001-2.515 13.401-5.516 1.403-1.75-0.984-4.667-2.848-3.4z" fill="#588157"/>
<path d="m470.72 212.53c-0.361 3.329-1.919 6.415-4.385 8.683-0.163 0.166-0.292 0.361-0.38 0.576s-0.132 0.446-0.131 0.678 0.048 0.462 0.139 0.676c0.09 0.214 0.221 0.408 0.386 0.572 0.165 0.163 0.361 0.292 0.576 0.38 0.215 0.087 0.446 0.132 0.678 0.131 0.232-2e-3 0.462-0.049 0.676-0.139s0.409-0.221 0.572-0.386c2.893-2.746 5.076-6.152 6.362-9.927 1.51-4.204-3.894-5.555-4.493-1.244z" fill="#588157"/>
<path d="m476.64 185.59c-0.254-0.499-0.679-0.891-1.198-1.103-0.519-0.213-1.096-0.233-1.628-0.056s-0.983 0.539-1.271 1.019c-0.287 0.481-0.393 1.049-0.298 1.601 1.364 3.543 2.036 7.313 1.977 11.109-0.018 0.408 0.11 0.81 0.362 1.133 0.252 0.322 0.61 0.545 1.011 0.627 0.401 0.081 0.818 0.018 1.176-0.181 0.358-0.198 0.634-0.517 0.777-0.9 0.826-4.422 0.514-8.981-0.908-13.249z" fill="#588157"/>
<path d="m471.78 173.45c-0.793-3.759-2.382-7.306-4.659-10.401-3.218-4.22-7.527-0.239-3.804 3.143 2.47 2.188 4.326 4.982 5.386 8.106 0.056 0.202 0.151 0.391 0.279 0.556 0.129 0.165 0.289 0.304 0.471 0.407 0.183 0.104 0.383 0.17 0.591 0.196s0.419 0.011 0.621-0.045 0.391-0.151 0.557-0.279c0.165-0.129 0.303-0.289 0.407-0.471 0.103-0.182 0.17-0.383 0.196-0.591s0.01-0.419-0.045-0.621z" fill="#588157"/>
<path d="m454.08 152.74c-2.116-2.395-8.465-7.698-12.214-7.688-0.59-0.067-1.184 0.082-1.673 0.419s-0.84 0.839-0.989 1.414c-0.148 0.575-0.084 1.184 0.181 1.715 0.265 0.532 0.713 0.949 1.261 1.177 4.277 2.115 6.236 0.931 11.112 5.281 1.391 1.238 3.562-0.913 2.322-2.318z" fill="#588157"/>
<path d="m424.12 146.95c3.419 0.284 3.864-2.427 0.856-3.563-3.538-1.039-7.326-0.832-10.73 0.586-3.756 1.358-2.412 4.546 0.788 4.504 2.04-0.028 4.986-1.864 9.086-1.527z" fill="#588157"/>
<path d="m301.19 287.27c40.58-39.586 35.706-98.739 15.082-131.87-3.521-0.301-8.966-1.213-10.039 12.206-0.847 10.595 15.553 26.197-1.131 40.177-12.539 10.507-34.244 5.62-35.349 28.844-1.492 31.373 40.44 28.276 31.437 50.639z" fill="#588157"/>
<path d="m281.73 284.81c-7.063-2.404-16.776 4.3-27.956-2.867-10.54-6.756-3.384-19.239-16.918-20.31-13.533-1.071-20.745 20.604-38.833 15.445-14.291-4.071-15.753-17.809-30.466-18.838-13.815-0.969-18.537 6.181-23.473 12.067 6.996 13.562 20.9 32.589 64.451 43.886s77.095-13.425 79.154-17.989c2.06-4.563 1.101-8.99-5.959-11.394z" fill="#588157"/>
<path d="m184.9 223.27c-4.233 2.874-9.406 9.438-6.151 13.701 2.092 2.74 7.773 3.106 12.293 0.996 6.032-2.807 6.044-9.424 11.374-12.924 4.821-3.166 10.156-2.272 13.817-8.053 5.942-9.377-2.005-14.835-11.17-10.463-4.637 2.215-11.919 0.62-14.175 1.577-6.6 2.812-0.566 11.474-5.988 15.166z" fill="#588157"/>
<path d="m290.11 118.47c-32.331-19.43-75.122-22.245-108.46-4.234-1.743 0.944-0.719 3.813 1.176 2.944 37.13-17.052 82.103-13.258 114.48 12.244 15.168 12.301 26.787 28.42 33.663 46.701s8.76 38.064 5.46 57.314c-6.869 37.648-35.163 69.669-71.09 82.381-58.678 20.763-123.73-14.668-139.8-74.434-6.122-24.484-4.517-50.264 4.595-73.799 0.161-0.396 0.162-0.84 2e-3 -1.237s-0.468-0.716-0.859-0.891c-0.391-0.174-0.834-0.189-1.236-0.042s-0.731 0.445-0.918 0.83c-12.492 25.437-13.339 55.728-4.483 82.685 8.82 26.21 26.861 48.321 50.765 62.218s52.041 18.632 79.175 13.324c19.545-4.229 37.666-13.44 52.602-26.739 14.937-13.299 26.183-30.234 32.647-49.162 15.787-47.899-4.46-104.09-47.72-130.1z" fill="#50575E"/>
<path d="m130.4 234.88c16.626 7.358 20.885 2.242 27.734-8.903 6.848-11.146 4.856-26.197 35.9-29.727 31.043-3.53 26.922-17.811 22.362-28.012s-5.148-21.144 10.3-25.409c15.449-4.265 10.39-21.591 3.826-28.11-4.867-0.345-10.617 0.301-16.601 1.555-19.233 4.028-41.792 13.703-56.378 26.872-7.18 6.483-14.103 14.416-18.242 23.052-7.673 15.606-13.309 46.384-8.901 68.682z" fill="#588157"/>
<path d="m70.582 413.96c-7.1383-3.434-1.825-14.007-1.5783-44.626 0.0387-4.764 0.3923-17.077 1.0314-21.676 0.7074-5.091 0.2486-7.046 3.5409-9.848 2.3401-1.991 7.264-2.432 13.618-3.529 1.2572-0.217-1.1334-39.072 32.426-42.729 1.46-0.16 9.473 0.65 14.797 4.479 5.335 3.836 7.368 6.522 9.039 11.049 3.088 8.367 2.953 22.979 2.795 23.758-0.099 0.484 0.206 0.558 0.583 0.598 3.452 0.359 4.341 1.432 6.053 2.718 15.11 11.357 8.451 5.579 10.205 47.432 0.21 5.011-0.355 18.98-0.885 23.592-1.554 13.52-7.912 13.093-24.548 13.909-61.593 3.018-60.971-2.19-67.075-5.128l-0.0019 1e-3zm78.406-42.965c0.056-5.44 0.708-15.708 0.157-30.22-0.099-2.6-1.995-6.869-4.346-7.333-5.698-1.123-35.994 0.333-41.515 0.783-6.2143 0.506-10.855 1.598-14.073 2.022-11.075 1.462-15.678 1.665-17.03 6.774-1.3216 4.994-1.501 21.052-1.9686 43.085-0.6341 29.848-9.7013 26.58 29.041 25.873 4.7997-0.087 40.001-0.917 47.388-3.106 3.865-1.146 2.169-20.619 2.346-37.878zm-0.225-36.933c1.77 1.671 2.495 3.733 2.525 6.098 0.085 6.86 0.158 13.722-0.065 20.584-1.321 40.651 1.783 37.211-2.217 48.638-0.52 1.486-1.576 2.251-3.071 2.465-14.07 2.016-56.974 2.289-71.188 2.289 2.668 1.335 5.5788 2.943 10.325 2.993 10.95 0.113 23.041 1.598 51.179 0.195 5.988-0.299 20.377-0.547 22.677-6.003 2.918-6.916 1.204-36.362 1.564-59.978 0.079-5.207 0.451-7.526-1.047-8.982-2.083-2.025-8.849-7.857-10.683-8.299zm-4.321-2.727c-0.528-9.225-0.172-17.881-4.699-27.294-2.164-4.499-15.022-15.097-29.714-8.332-11.715 5.394-17.516 18.597-18.332 23.035-4e-3 0.021-2.9217 14.092-2.2242 15.118 0.3408 0.062 0.0128 0.057 8.7977-1.283 0.6202-0.094 0.208-0.554 0.2942-2.721 0.1655-4.162 1.5543-11.302 4.0043-14.644 1.864-2.543 2.304-5.692 8.837-10.067 3.334-2.233 8.849-3.23 13.877-1.453 3.264 1.155 7.344 5.658 8.423 12.22 0.502 3.054 1.218 12.988 1.195 14.056-0.04 1.802-0.056 0.395 9.543 1.363l-2e-3 2e-3zm-44.415 0.978c4.927-0.221 5.366-0.699 21.215-1.169 11.747-0.349 11.729 0.528 11.661-1.201-0.539-13.668-1.449-17.577-4.565-21.46-2.424-3.021-6.385-4.126-9.795-3.682-6.143 0.8-9.079 3.71-12.419 8.117-4.792 6.324-6.4685 17.07-6.098 19.396l1e-3 -1e-3z" fill="#50575E"/>
<path d="m67.542 395.67c-1.0111 11.107-1.4675 16.121 3.0392 18.289l0.0019-1e-3c0.7408 0.357 1.3826 0.747 2.0485 1.151 4.8208 2.93 10.909 6.629 65.026 3.977 0.85-0.042 1.673-0.08 2.47-0.118 14.803-0.691 20.603-0.961 22.078-13.791 0.53-4.612 1.095-18.581 0.885-23.592-1.141-27.222 1.277-34.294-1.05-39.037-1.251-2.549-3.873-4.425-9.155-8.395-0.235-0.176-0.455-0.349-0.667-0.516-1.338-1.051-2.408-1.892-5.386-2.202-0.377-0.04-0.682-0.114-0.583-0.598 0.158-0.779 0.293-15.391-2.795-23.758-1.671-4.527-3.704-7.213-9.039-11.049-5.324-3.829-13.337-4.639-14.797-4.479-28.132 3.065-31.002 30.866-31.935 39.905-0.18 1.744-0.2879 2.789-0.4912 2.824-1.1326 0.196-2.2197 0.37-3.2549 0.537-4.7721 0.767-8.4398 1.356-10.363 2.992-2.6873 2.287-2.8755 4.01-3.2386 7.334-0.0817 0.748-0.1723 1.578-0.3023 2.514-0.6391 4.599-0.9927 16.912-1.0314 21.676-0.0909 11.288-0.8705 19.852-1.4609 26.337zm83.746-55.511c-0.03-2.365-0.755-4.427-2.525-6.098 1.834 0.442 8.6 6.274 10.683 8.299 1.247 1.212 1.198 3.023 1.101 6.599-0.02 0.719-0.041 1.511-0.054 2.383-0.114 7.428-0.022 15.434 0.067 23.133 0.193 16.778 0.369 32.105-1.631 36.845-2.141 5.079-14.758 5.645-21.322 5.94-0.487 0.022-0.941 0.042-1.355 0.063-20.547 1.024-32.538 0.509-41.776 0.112-3.4126-0.146-6.4496-0.277-9.4034-0.307-4.474-0.047-7.317-1.479-9.8631-2.761-0.1551-0.078-0.3091-0.156-0.4623-0.232 14.214 0 57.118-0.273 71.188-2.289 1.495-0.214 2.551-0.979 3.071-2.465 2.294-6.555 2.251-8.218 2.047-16.116-0.152-5.871-0.393-15.188 0.17-32.522 0.223-6.862 0.15-13.724 0.065-20.584zm-6.846-8.827c-0.08-1.389-0.139-2.764-0.198-4.131-0.334-7.716-0.656-15.166-4.501-23.161-2.164-4.499-15.022-15.097-29.714-8.332-11.715 5.394-17.516 18.597-18.332 23.035-1e-4 0-0.0018 8e-3 -5e-3 0.024-0.1338 0.65-2.9004 14.092-2.2192 15.094 0.0241 4e-3 0.0449 9e-3 0.0659 0.012 0.2742 0.043 0.5699-0.05 8.7318-1.295 0.3856-0.059 0.3721-0.259 0.3275-0.922-0.0272-0.404-0.0659-0.979-0.0333-1.799 0.1655-4.162 1.5543-11.302 4.0043-14.644 0.459-0.626 0.831-1.289 1.23-1.997 1.219-2.17 2.682-4.771 7.607-8.07 3.334-2.233 8.849-3.23 13.877-1.453 3.264 1.155 7.344 5.658 8.423 12.22 0.502 3.054 1.218 12.988 1.195 14.056-9e-3 0.424-0.017 0.67 0.1 0.811 0.384 0.461 2.1-0.189 9.441 0.552zm-40.364 0.694c-1.33 0.116-2.455 0.215-4.051 0.286l-1e-3 1e-3c-0.3705-2.326 1.306-13.072 6.098-19.396 3.34-4.407 6.276-7.317 12.419-8.117 3.41-0.444 7.371 0.661 9.795 3.682 3.116 3.883 4.026 7.792 4.565 21.46 0.015 0.379 0.027 0.633-0.087 0.802-0.404 0.601-2.406 0.126-11.574 0.399-10.716 0.318-14.387 0.639-17.164 0.883zm-3.986 46.426c-0.04 0.911-0.0972 2.218-0.1332 4.119-0.1928 10.196 0.0211 10.193 7.2772 10.066 0.127-2e-3 0.256-4e-3 0.387-6e-3 2.035-0.035 2.681-2.363 2.735-4.398 0.035-1.341 0.104-2.681 0.172-4.021 0.121-2.351 0.242-4.702 0.181-7.058-0.015-0.592 0.15-0.974 0.691-1.272 3.53-1.948 5.883-6.599 4.323-11.152-2.25-6.571-11.419-9.582-17.797-4.068-5.0102 4.332-4.0818 12.05 1.714 15.378 0.5422 0.312 0.5412 0.339 0.4502 2.412z" clip-rule="evenodd" fill="#50575E" fill-rule="evenodd"/>
<path d="m351.29 80.679c4.379 3.585 10.329 4.3517 15.72 3.2952 5.387-1.0557 10.6-4.001 13.568-8.3692l8e-3 -0.0125 8e-3 -0.0127c2.421-3.6817 3.65-8.0188 3.521-12.423s-1.611-8.6617-4.244-12.195l-0.021-0.0282-0.022-0.0274c-2.774-3.4621-6.56-5.9719-10.829-7.1791-4.269-1.2073-8.809-1.0518-12.986 0.4447l-0.035 0.0126-0.035 0.014c-9.273 3.7195-12.986 10.926-13.016 18.202-0.029 7.0961 3.434 14.242 8.363 18.279zm0 0 1.268-1.5472m-1.268 1.5472 1.268-1.5472m0 0c7.575 6.203 21.148 3.0268 26.365-4.6508l-22.235-28.427c-16.951 6.7993-13.035 25.787-4.13 33.077zm-25.947-16.095v0c4.226-15.557 15.466-30.564 31.453-33.836v0c14.783-3.0263 30.942 6.2489 36.515 20.228v0c5.861 14.702-0.469 32.15-11.957 42.227l-1e-3 4e-4c-13.821 12.13-32.976 19.417-51.949 23.889h-1e-3c-1.043 0.246-1.684 0.382-2.16 0.409-0.214 0.013-0.323-4e-3 -0.366-0.014-9e-3 -2e-3 -0.015-3e-3 -0.019-5e-3 -0.025-0.02-0.218-0.198-0.481-0.918-0.271-0.747-0.54-1.853-0.834-3.494v0c-2.915-16.243-4.479-32.737-0.2-48.486z" stroke="#50575E" stroke-linecap="round" stroke-width="4"/>
</svg>
