<svg width="44" height="44" viewBox="0 0 44 44" fill="none" xmlns="http://www.w3.org/2000/svg">
<path d="M44 22C44 34.1503 34.1503 44 22 44C9.84974 44 0 34.1503 0 22C0 9.84974 9.84974 0 22 0C34.1503 0 44 9.84974 44 22Z" fill="#588157"/>
<path fill-rule="evenodd" clip-rule="evenodd" d="M24.288 27.654C24.7186 27.4189 25.2247 27.3635 25.696 27.5C25.7381 27.5245 25.7849 27.5399 25.8333 27.5454C25.8818 27.5508 25.9308 27.5462 25.9773 27.5317C26.0239 27.5172 26.0669 27.4932 26.1037 27.4613C26.1404 27.4293 26.1702 27.3901 26.191 27.346C26.2139 27.3035 26.228 27.2568 26.2327 27.2088C26.2373 27.1607 26.2323 27.1123 26.218 27.0662C26.2036 27.0201 26.1802 26.9773 26.1492 26.9403C26.1181 26.9034 26.08 26.873 26.037 26.851C25.7261 26.65 25.3755 26.5184 25.0091 26.4653C24.6427 26.4121 24.2692 26.4386 23.914 26.543C23.6132 26.6153 23.3268 26.738 23.067 26.906C22.8126 27.0706 22.583 27.2706 22.385 27.5C21.9242 28.0409 21.6503 28.716 21.604 29.425C21.5911 29.5094 21.6114 29.5955 21.6606 29.6652C21.7098 29.735 21.7842 29.7829 21.868 29.799C21.91 29.8069 21.9531 29.8063 21.9948 29.7972C22.0365 29.7881 22.076 29.7707 22.1108 29.7461C22.1457 29.7215 22.1753 29.6901 22.1978 29.6538C22.2204 29.6176 22.2354 29.5772 22.242 29.535C22.4494 29.0514 22.7887 28.6359 23.221 28.336L23.738 27.951C23.912 27.8356 24.0961 27.7362 24.288 27.654Z" fill="white"/>
<path fill-rule="evenodd" clip-rule="evenodd" d="M26.84 25.047C26.8645 25.0049 26.8799 24.9581 26.8854 24.9097C26.8908 24.8612 26.8862 24.8122 26.8717 24.7657C26.8572 24.7192 26.8332 24.6761 26.8013 24.6393C26.7693 24.6026 26.7301 24.5728 26.686 24.552C26.1942 24.2587 25.6459 24.0728 25.0772 24.0064C24.5084 23.94 23.9321 23.9948 23.386 24.167C22.9159 24.3046 22.4678 24.5083 22.055 24.772C21.6521 25.0341 21.2827 25.3444 20.955 25.696C20.1927 26.5234 19.7114 27.5706 19.58 28.688C19.572 28.7292 19.5722 28.7715 19.5806 28.8126C19.589 28.8537 19.6054 28.8927 19.6289 28.9275C19.6524 28.9622 19.6826 28.992 19.7176 29.0151C19.7526 29.0381 19.7918 29.0541 19.833 29.062C19.9175 29.0784 20.005 29.0611 20.077 29.0138C20.1489 28.9665 20.1995 28.893 20.218 28.809C20.5163 27.9164 21.0617 27.1268 21.791 26.532C22.0883 26.2755 22.4005 26.0367 22.726 25.817C23.0526 25.6015 23.3988 25.4174 23.76 25.267C24.1718 25.0748 24.6188 24.9698 25.0731 24.9584C25.5274 24.9471 25.9791 25.0296 26.4 25.201C26.4799 25.2289 26.567 25.2289 26.6469 25.2009C26.7269 25.173 26.7949 25.1187 26.84 25.047Z" fill="white"/>
<path fill-rule="evenodd" clip-rule="evenodd" d="M24.508 31.284C24.7285 31.3301 24.9561 31.3315 25.1772 31.288C25.3982 31.2446 25.6083 31.1572 25.795 31.031C25.9887 30.8932 26.1454 30.7096 26.2509 30.4965C26.3565 30.2835 26.4077 30.0476 26.4 29.81C26.3899 29.5914 26.3289 29.3781 26.222 29.1872C26.1151 28.9963 25.9651 28.8329 25.784 28.71C25.5579 28.5807 25.3065 28.5019 25.047 28.479C24.7111 28.4926 24.3865 28.6039 24.1129 28.7993C23.8394 28.9947 23.6288 29.2657 23.507 29.579C23.3972 29.8696 23.3972 30.1904 23.507 30.481C23.5983 30.6846 23.7367 30.8636 23.9107 31.0032C24.0847 31.1428 24.2895 31.239 24.508 31.284ZM24.915 29.271C25.0378 29.3128 25.1503 29.3803 25.245 29.469C25.311 29.524 25.245 29.667 25.245 29.799C25.2398 29.8414 25.224 29.8818 25.199 29.9164C25.174 29.951 25.1406 29.9788 25.102 29.997C24.9964 30.0716 24.8679 30.1067 24.739 30.096C24.618 30.096 24.486 30.096 24.409 29.964C24.3753 29.9188 24.3511 29.8672 24.3379 29.8124C24.3247 29.7575 24.3227 29.7006 24.332 29.645C24.442 29.282 24.607 29.194 24.915 29.271Z" fill="white"/>
<path fill-rule="evenodd" clip-rule="evenodd" d="M31.482 25.454C31.273 24.959 31.064 24.475 30.822 24.002C30.47 23.287 30.085 22.594 29.722 21.901C29.513 21.56 29.315 21.23 29.095 20.9C28.523 20.053 27.929 19.239 27.335 18.414C27.2539 17.8398 26.9828 17.3092 26.565 16.907C26.0756 16.4636 25.4606 16.183 24.805 16.104C24.2209 16.0585 23.6353 16.1726 23.111 16.434C22.4216 16.7769 21.7564 17.1665 21.12 17.6L17.49 19.8C17.4441 19.815 17.4021 19.8399 17.3669 19.873C17.3317 19.906 17.3042 19.9463 17.2863 19.9912C17.2684 20.036 17.2605 20.0842 17.2633 20.1324C17.266 20.1806 17.2793 20.2276 17.3022 20.27C17.3251 20.3125 17.357 20.3495 17.3957 20.3783C17.4344 20.4071 17.479 20.4271 17.5263 20.4368C17.5736 20.4466 17.6224 20.4458 17.6693 20.4346C17.7163 20.4234 17.7602 20.402 17.798 20.372L21.549 18.37C22.1627 17.9919 22.7981 17.6503 23.452 17.347C23.8242 17.1798 24.2344 17.1153 24.64 17.16C25.0565 17.2337 25.4405 17.4333 25.74 17.732C25.8801 17.8552 25.9912 18.0078 26.0653 18.179C26.1395 18.3501 26.1749 18.5356 26.169 18.722C26.1544 18.9574 26.0786 19.1849 25.949 19.382C25.8111 19.6108 25.6407 19.8183 25.443 19.998C25.0114 20.3817 24.5477 20.7276 24.057 21.032C23.287 21.527 22.462 21.967 21.703 22.418L17.93 24.519C17.468 24.761 17.006 25.025 16.533 25.256C16.2346 25.4032 15.9258 25.5282 15.609 25.63C15.3622 25.7004 15.1016 25.707 14.8515 25.6493C14.6014 25.5916 14.37 25.4714 14.179 25.3C13.9651 25.1332 13.7923 24.9195 13.6741 24.6754C13.5559 24.4313 13.4953 24.1632 13.497 23.892C13.5071 23.7505 13.5444 23.6123 13.607 23.485C13.6744 23.3314 13.7554 23.1842 13.849 23.045C13.8774 23.0059 13.8975 22.9613 13.908 22.914C13.9184 22.8668 13.919 22.8179 13.9097 22.7704C13.9004 22.7229 13.8815 22.6779 13.854 22.6381C13.8265 22.5983 13.7911 22.5645 13.75 22.539C13.7103 22.5121 13.6657 22.4933 13.6188 22.4837C13.5718 22.4741 13.5234 22.4739 13.4764 22.4831C13.4293 22.4923 13.3846 22.5107 13.3447 22.5373C13.3048 22.5639 13.2706 22.5981 13.244 22.638C13.096 22.84 12.9706 23.0577 12.87 23.287C12.7917 23.4648 12.7434 23.6544 12.727 23.848C12.7023 24.2903 12.7973 24.7311 13.002 25.124L14.3 27.599L15.312 29.491L16.258 30.932L17.006 32.032C17.6901 33.0337 18.5165 33.9304 19.459 34.694C20.24 35.222 20.944 35.794 25.025 33.979C25.487 33.7737 25.938 33.5427 26.378 33.286C26.829 33.033 27.247 32.758 27.665 32.472C28.6348 31.7888 29.5674 31.0545 30.459 30.272C30.4973 30.2431 30.5295 30.207 30.5538 30.1656C30.5781 30.1243 30.594 30.0786 30.6007 30.0311C30.6073 29.9836 30.6045 29.9352 30.5925 29.8888C30.5805 29.8424 30.5594 29.7988 30.5305 29.7605C30.5016 29.7222 30.4655 29.69 30.4241 29.6657C30.3828 29.6414 30.3371 29.6255 30.2896 29.6188C30.2421 29.6122 30.1937 29.615 30.1473 29.627C30.1009 29.639 30.0573 29.6601 30.019 29.689C29.469 30.052 28.919 30.393 28.347 30.734C27.775 31.075 27.192 31.372 26.62 31.702L24.915 32.659C22.099 34.298 21.296 34.947 20.02 33.924C19.2204 33.1445 18.5353 32.2557 17.985 31.284L17.281 30.239L16.28 28.864L15.07 27.104L14.674 26.521C15.066 26.632 15.481 26.632 15.873 26.521C16.2469 26.4186 16.6142 26.2937 16.973 26.147L18.425 25.454C19.217 25.08 19.998 24.695 20.779 24.299C21.296 24.024 21.813 23.749 22.33 23.452C23.111 23.001 23.947 22.572 24.739 22.066C25.284 21.726 25.7959 21.3356 26.268 20.9C26.5567 20.6401 26.8018 20.3356 26.994 19.998C26.994 19.921 27.06 19.844 27.093 19.778L30.525 25.916C30.8585 26.4857 31.0963 27.1063 31.229 27.753C31.2774 27.9374 31.2887 28.1296 31.2622 28.3184C31.2358 28.5073 31.1722 28.689 31.075 28.853C31.0166 28.9308 30.9908 29.0284 31.0031 29.1249C31.0154 29.2214 31.0649 29.3094 31.141 29.37C31.179 29.4003 31.2227 29.4227 31.2695 29.4359C31.3163 29.449 31.3652 29.4526 31.4135 29.4464C31.4617 29.4403 31.5082 29.4245 31.5502 29.4C31.5922 29.3756 31.6289 29.3429 31.658 29.304C32.0017 28.8351 32.155 28.2534 32.087 27.676C32.0012 26.9085 31.7972 26.159 31.482 25.454Z" fill="white"/>
<path fill-rule="evenodd" clip-rule="evenodd" d="M24.057 12.76C24.057 12.76 24.343 13.068 25.157 11.297C25.2715 11.0516 25.3671 10.7979 25.443 10.538C25.894 9.163 25.971 9.031 25.707 8.855C25.443 8.679 25.3 8.58 24.354 10.021C24.2544 10.1816 24.1697 10.351 24.101 10.527C24.0331 10.7015 23.9815 10.882 23.947 11.066C23.595 12.793 24.024 12.749 24.057 12.76Z" fill="white"/>
<path fill-rule="evenodd" clip-rule="evenodd" d="M25.597 13.552C25.685 13.717 25.597 13.838 27.368 13.354L27.973 13.2C28.171 13.134 28.358 13.046 28.567 12.991C29.216 12.837 29.568 12.991 29.601 12.573C29.689 11.913 27.918 12.001 27.885 12.001C27.6874 12.0173 27.492 12.0541 27.302 12.111C27.1141 12.1671 26.9332 12.2446 26.763 12.342C26.763 12.342 25.366 13.2 25.597 13.552Z" fill="white"/>
<path fill-rule="evenodd" clip-rule="evenodd" d="M28.798 15.554C28.6823 15.4571 28.557 15.3723 28.424 15.301C27.071 14.63 26.994 15.015 26.983 15.037C26.972 15.059 26.631 15.29 27.841 16.368C28.0013 16.5085 28.1744 16.6337 28.358 16.742C29.458 17.457 29.546 17.457 29.744 17.281C29.942 17.105 30.107 16.973 29.139 15.873C29.0391 15.7528 28.9246 15.6457 28.798 15.554Z" fill="white"/>
<path fill-rule="evenodd" clip-rule="evenodd" d="M15.532 24.497C15.8561 24.4938 16.1795 24.4681 16.5 24.42C16.6327 24.3852 16.7617 24.3373 16.885 24.277C17.0088 24.2207 17.1236 24.1465 17.226 24.057C17.336 23.969 18.326 23.166 18.04 22.858C17.1569 21.6741 16.4184 20.389 15.84 19.03C15.4739 18.1754 15.2903 17.2537 15.301 16.324C15.3037 15.8926 15.396 15.4664 15.5721 15.0725C15.7482 14.6786 16.0042 14.3257 16.324 14.036C16.6228 13.7532 17.0057 13.5755 17.4146 13.5298C17.8235 13.4842 18.2362 13.573 18.59 13.783C18.9718 13.9712 19.3179 14.2243 19.613 14.531C20.515 15.499 20.229 17.105 21.813 16.291C21.9201 16.238 22.0199 16.1714 22.11 16.093C22.3807 15.9543 22.6599 15.8331 22.946 15.73C23.0357 15.6912 23.1066 15.6188 23.1436 15.5284C23.1807 15.4379 23.1808 15.3365 23.144 15.246C22.7708 14.2192 22.2442 13.255 21.582 12.386C21.0997 11.8316 20.5269 11.3629 19.888 11C19.1401 10.522 18.2817 10.2445 17.3954 10.1944C16.5092 10.1444 15.625 10.3233 14.828 10.714C14.0471 11.1279 13.3775 11.7239 12.8758 12.4515C12.3741 13.1792 12.0552 14.017 11.946 14.894C11.8224 16.2694 12.0181 17.6547 12.518 18.942C13.3609 20.877 14.3693 22.7355 15.532 24.497ZM13.2 15.059C13.2828 14.3751 13.525 13.7202 13.9071 13.1471C14.2892 12.5739 14.8006 12.0984 15.4 11.759C16.0196 11.434 16.7109 11.2698 17.4104 11.2813C18.11 11.2928 18.7954 11.4798 19.404 11.825C20.1301 12.1943 20.765 12.7203 21.263 13.365C21.6233 13.8666 21.9363 14.4006 22.198 14.96C22.011 14.96 21.824 15.026 21.626 15.081L21.329 15.18L21.065 15.323C20.8722 14.8361 20.621 14.3744 20.317 13.948C19.9745 13.5409 19.5654 13.195 19.107 12.925C18.5818 12.5598 17.9504 12.379 17.3115 12.4109C16.6726 12.4427 16.0623 12.6854 15.576 13.101C15.0995 13.4931 14.7146 13.9849 14.4485 14.5417C14.1825 15.0985 14.0417 15.7069 14.036 16.324C14.0745 17.4147 14.3484 18.4841 14.839 19.459C15.4754 20.6818 16.2625 21.82 17.182 22.847L16.632 23.045C16.455 23.107 16.2823 23.1804 16.115 23.265C16.0094 23.3331 15.91 23.4104 15.818 23.496C14.8445 21.973 14.0613 20.3365 13.486 18.623C13.1123 17.4739 13.0144 16.253 13.2 15.059Z" fill="white"/>
</svg>
