<svg width="20" height="20" viewBox="0 0 20 20" fill="none" xmlns="http://www.w3.org/2000/svg">
<circle cx="10" cy="10.0078" r="10" fill="#588157"/>
<g clip-path="url(#clip0_8078_11433)">
<path fill-rule="evenodd" clip-rule="evenodd" d="M11.0401 12.5798C11.2358 12.4729 11.4659 12.4478 11.6801 12.5098C11.6992 12.5209 11.7205 12.5279 11.7425 12.5304C11.7645 12.5329 11.7868 12.5308 11.808 12.5242C11.8291 12.5176 11.8487 12.5067 11.8654 12.4922C11.8821 12.4777 11.8956 12.4598 11.9051 12.4398C11.9155 12.4205 11.9219 12.3993 11.924 12.3774C11.9261 12.3556 11.9239 12.3335 11.9173 12.3126C11.9108 12.2916 11.9002 12.2722 11.8861 12.2554C11.8719 12.2386 11.8546 12.2248 11.8351 12.2148C11.6938 12.1234 11.5344 12.0636 11.3679 12.0395C11.2013 12.0153 11.0315 12.0274 10.8701 12.0748C10.7334 12.1076 10.6032 12.1634 10.4851 12.2398C10.3695 12.3146 10.2651 12.4055 10.1751 12.5098C9.96564 12.7556 9.84114 13.0625 9.82009 13.3848C9.81422 13.4231 9.82344 13.4623 9.84581 13.494C9.86819 13.5257 9.90198 13.5475 9.94009 13.5548C9.95916 13.5584 9.97875 13.5581 9.99771 13.554C10.0167 13.5498 10.0346 13.5419 10.0505 13.5307C10.0663 13.5195 10.0798 13.5053 10.09 13.4888C10.1002 13.4723 10.1071 13.454 10.1101 13.4348C10.2044 13.215 10.3586 13.0261 10.5551 12.8898L10.7901 12.7148C10.8692 12.6623 10.9528 12.6171 11.0401 12.5798Z" fill="white"/>
<path fill-rule="evenodd" clip-rule="evenodd" d="M12.2011 11.3917C12.2122 11.3725 12.2192 11.3513 12.2217 11.3293C12.2242 11.3072 12.2221 11.285 12.2155 11.2638C12.2089 11.2427 12.198 11.2231 12.1835 11.2064C12.169 11.1897 12.1511 11.1761 12.1311 11.1667C11.9076 11.0334 11.6583 10.9488 11.3998 10.9187C11.1413 10.8885 10.8793 10.9134 10.6311 10.9917C10.4174 11.0542 10.2137 11.1468 10.0261 11.2667C9.84296 11.3858 9.67505 11.5269 9.52609 11.6867C9.17957 12.0628 8.96081 12.5388 8.90109 13.0467C8.89746 13.0654 8.89756 13.0846 8.90137 13.1033C8.90519 13.122 8.91265 13.1397 8.92334 13.1555C8.93402 13.1713 8.94771 13.1848 8.96362 13.1953C8.97954 13.2058 8.99737 13.2131 9.01609 13.2167C9.05449 13.2241 9.09429 13.2163 9.12698 13.1948C9.15967 13.1733 9.18267 13.1399 9.19109 13.1017C9.32667 12.696 9.57461 12.3371 9.90609 12.0667C10.0412 11.9501 10.1832 11.8416 10.3311 11.7417C10.4795 11.6437 10.6369 11.56 10.8011 11.4917C10.9883 11.4043 11.1915 11.3566 11.398 11.3514C11.6044 11.3462 11.8098 11.3838 12.0011 11.4617C12.0374 11.4744 12.077 11.4744 12.1133 11.4617C12.1497 11.4489 12.1806 11.4243 12.2011 11.3917Z" fill="white"/>
<path fill-rule="evenodd" clip-rule="evenodd" d="M11.1409 14.2281C11.2411 14.2491 11.3445 14.2497 11.445 14.23C11.5455 14.2102 11.641 14.1705 11.7259 14.1131C11.8139 14.0505 11.8851 13.967 11.9331 13.8702C11.9811 13.7733 12.0044 13.6661 12.0009 13.5581C11.9963 13.4588 11.9686 13.3618 11.92 13.275C11.8714 13.1882 11.8032 13.114 11.7209 13.0581C11.6181 12.9994 11.5038 12.9635 11.3859 12.9531C11.2332 12.9593 11.0856 13.0099 10.9613 13.0987C10.8369 13.1875 10.7412 13.3107 10.6859 13.4531C10.636 13.5852 10.636 13.731 10.6859 13.8631C10.7274 13.9557 10.7903 14.037 10.8694 14.1005C10.9485 14.1639 11.0415 14.2077 11.1409 14.2281ZM11.3259 13.3131C11.3817 13.3321 11.4328 13.3628 11.4759 13.4031C11.5059 13.4281 11.4759 13.4931 11.4759 13.5531C11.4735 13.5724 11.4663 13.5908 11.455 13.6065C11.4436 13.6222 11.4284 13.6348 11.4109 13.6431C11.3629 13.6771 11.3045 13.693 11.2459 13.6881C11.1909 13.6881 11.1309 13.6881 11.0959 13.6281C11.0806 13.6076 11.0696 13.5841 11.0635 13.5592C11.0575 13.5343 11.0566 13.5084 11.0609 13.4831C11.1109 13.3181 11.1859 13.2781 11.3259 13.3131Z" fill="white"/>
<path fill-rule="evenodd" clip-rule="evenodd" d="M14.3099 11.5787C14.2149 11.3537 14.1199 11.1337 14.0099 10.9187C13.8499 10.5937 13.6749 10.2787 13.5099 9.96365C13.4149 9.80866 13.3249 9.65866 13.2249 9.50866C12.9649 9.12366 12.6949 8.75365 12.4249 8.37865C12.3881 8.11764 12.2649 7.87648 12.0749 7.69366C11.8525 7.49211 11.573 7.36458 11.2749 7.32865C11.0094 7.30798 10.7433 7.35983 10.5049 7.47866C10.1916 7.63453 9.88921 7.81161 9.59995 8.00866L7.94995 9.00866C7.9291 9.01549 7.91 9.02681 7.89401 9.04182C7.87801 9.05683 7.8655 9.07517 7.85736 9.09554C7.84922 9.11592 7.84565 9.13783 7.84689 9.15973C7.84814 9.18163 7.85418 9.203 7.86458 9.22231C7.87498 9.24163 7.88949 9.25843 7.90709 9.27153C7.92469 9.28463 7.94495 9.29371 7.96644 9.29812C7.98793 9.30254 8.01013 9.30219 8.03147 9.2971C8.0528 9.29201 8.07277 9.2823 8.08995 9.26866L9.79495 8.35865C10.0739 8.18679 10.3627 8.03152 10.6599 7.89366C10.8291 7.81768 11.0156 7.78833 11.1999 7.80866C11.3893 7.84215 11.5638 7.93289 11.6999 8.06866C11.7636 8.12465 11.8141 8.19403 11.8478 8.27182C11.8815 8.34962 11.8976 8.43391 11.8949 8.51866C11.8883 8.62566 11.8539 8.72908 11.7949 8.81866C11.7323 8.92266 11.6548 9.01699 11.5649 9.09866C11.3688 9.27307 11.158 9.43031 10.9349 9.56866C10.5849 9.79365 10.2099 9.99366 9.86495 10.1987L8.14995 11.1537C7.93995 11.2637 7.72995 11.3837 7.51495 11.4887C7.37932 11.5556 7.23894 11.6124 7.09495 11.6587C6.98276 11.6906 6.86429 11.6937 6.75062 11.6674C6.63694 11.6412 6.53178 11.5866 6.44495 11.5087C6.34771 11.4328 6.26919 11.3357 6.21545 11.2247C6.1617 11.1138 6.13416 10.9919 6.13495 10.8687C6.13953 10.8043 6.15651 10.7415 6.18495 10.6837C6.21558 10.6138 6.2524 10.5469 6.29495 10.4837C6.30788 10.4659 6.317 10.4456 6.32175 10.4241C6.3265 10.4027 6.32678 10.3804 6.32255 10.3589C6.31833 10.3373 6.3097 10.3168 6.29721 10.2987C6.28472 10.2806 6.26863 10.2653 6.24995 10.2537C6.23192 10.2414 6.21165 10.2329 6.1903 10.2285C6.16895 10.2241 6.14695 10.224 6.12557 10.2282C6.10419 10.2324 6.08384 10.2408 6.06571 10.2529C6.04758 10.265 6.03203 10.2805 6.01995 10.2987C5.95269 10.3905 5.89568 10.4894 5.84995 10.5937C5.81435 10.6745 5.79239 10.7606 5.78495 10.8487C5.77372 11.0497 5.8169 11.2501 5.90995 11.4287L6.49995 12.5537L6.95995 13.4137L7.38995 14.0687L7.72995 14.5687C8.04091 15.024 8.41652 15.4316 8.84495 15.7787C9.19995 16.0187 9.51995 16.2787 11.3749 15.4537C11.5849 15.3603 11.7899 15.2553 11.9899 15.1387C12.1949 15.0237 12.3849 14.8987 12.5749 14.7687C13.0158 14.4581 13.4397 14.1243 13.8449 13.7687C13.8623 13.7555 13.877 13.7391 13.888 13.7203C13.8991 13.7015 13.9063 13.6807 13.9093 13.6591C13.9124 13.6375 13.9111 13.6156 13.9056 13.5945C13.9002 13.5734 13.8906 13.5536 13.8774 13.5362C13.8643 13.5188 13.8479 13.5041 13.8291 13.4931C13.8103 13.482 13.7895 13.4748 13.7679 13.4718C13.7463 13.4687 13.7244 13.47 13.7033 13.4755C13.6822 13.4809 13.6623 13.4905 13.6449 13.5037C13.3949 13.6687 13.1449 13.8237 12.8849 13.9787C12.6249 14.1337 12.3599 14.2687 12.0999 14.4187L11.3249 14.8537C10.0449 15.5987 9.67995 15.8937 9.09995 15.4287C8.7365 15.0743 8.42507 14.6703 8.17495 14.2287L7.85495 13.7537L7.39995 13.1287L6.84995 12.3287L6.66995 12.0637C6.84811 12.1141 7.03678 12.1141 7.21495 12.0637C7.38489 12.0171 7.55186 11.9604 7.71495 11.8937L8.37495 11.5787C8.73495 11.4087 9.08995 11.2337 9.44495 11.0537C9.67995 10.9287 9.91495 10.8037 10.1499 10.6687C10.5049 10.4637 10.8849 10.2687 11.2449 10.0387C11.4927 9.8841 11.7254 9.70666 11.9399 9.50866C12.0712 9.39053 12.1826 9.2521 12.2699 9.09866C12.2699 9.06366 12.2999 9.02865 12.3149 8.99865L13.8749 11.7887C14.0265 12.0476 14.1346 12.3297 14.1949 12.6237C14.2169 12.7075 14.2221 12.7948 14.2101 12.8807C14.198 12.9665 14.1691 13.0491 14.1249 13.1237C14.0984 13.159 14.0867 13.2034 14.0923 13.2472C14.0979 13.2911 14.1204 13.3311 14.1549 13.3587C14.1722 13.3724 14.1921 13.3826 14.2133 13.3886C14.2346 13.3946 14.2569 13.3962 14.2788 13.3934C14.3007 13.3906 14.3218 13.3834 14.3409 13.3723C14.36 13.3612 14.3767 13.3463 14.3899 13.3287C14.5462 13.1155 14.6159 12.8511 14.5849 12.5887C14.546 12.2398 14.4532 11.8991 14.3099 11.5787Z" fill="white"/>
<path fill-rule="evenodd" clip-rule="evenodd" d="M10.935 5.80788C10.935 5.80788 11.065 5.94788 11.435 5.14288C11.487 5.03134 11.5304 4.91601 11.565 4.79788C11.77 4.17288 11.805 4.11288 11.685 4.03288C11.565 3.95288 11.5 3.90788 11.07 4.56288C11.0247 4.63588 10.9862 4.71287 10.955 4.79288C10.9241 4.8722 10.9007 4.95422 10.885 5.03788C10.725 5.82288 10.92 5.80288 10.935 5.80788Z" fill="white"/>
<path fill-rule="evenodd" clip-rule="evenodd" d="M11.6367 6.16771C11.6767 6.24271 11.6367 6.29771 12.4417 6.07771L12.7167 6.00771C12.8067 5.97771 12.8917 5.93771 12.9867 5.91271C13.2817 5.84271 13.4417 5.91271 13.4567 5.72271C13.4967 5.42271 12.6917 5.46271 12.6767 5.46271C12.5869 5.47011 12.4981 5.48687 12.4117 5.51271C12.3263 5.53822 12.2441 5.57345 12.1667 5.61771C12.1667 5.61771 11.5317 6.00771 11.6367 6.16771Z" fill="white"/>
<path fill-rule="evenodd" clip-rule="evenodd" d="M13.091 7.07913C13.0385 7.03507 12.9815 6.99654 12.921 6.96413C12.306 6.65913 12.271 6.83413 12.266 6.84413C12.261 6.85413 12.106 6.95913 12.656 7.44913C12.7289 7.51298 12.8076 7.56989 12.891 7.61913C13.391 7.94413 13.431 7.94413 13.521 7.86413C13.611 7.78413 13.686 7.72413 13.246 7.22413C13.2006 7.16951 13.1486 7.1208 13.091 7.07913Z" fill="white"/>
<path fill-rule="evenodd" clip-rule="evenodd" d="M7.06043 11.1416C7.20773 11.1402 7.35475 11.1285 7.50043 11.1066C7.56077 11.0908 7.61939 11.069 7.67543 11.0416C7.73169 11.016 7.78391 10.9823 7.83043 10.9416C7.88043 10.9016 8.33043 10.5366 8.20043 10.3966C7.79904 9.85849 7.46333 9.27435 7.20043 8.65662C7.03402 8.26815 6.95057 7.84921 6.95543 7.42662C6.95664 7.23051 6.9986 7.03679 7.07864 6.85776C7.15869 6.67873 7.27508 6.51829 7.42043 6.38662C7.55626 6.25807 7.7303 6.17729 7.91616 6.15654C8.10203 6.13579 8.28959 6.17619 8.45043 6.27162C8.62395 6.35717 8.78129 6.47221 8.91543 6.61162C9.32543 7.05162 9.19543 7.78162 9.91543 7.41162C9.96409 7.38752 10.0095 7.35727 10.0504 7.32162C10.1735 7.2586 10.3004 7.20349 10.4304 7.15662C10.4712 7.13898 10.5035 7.10609 10.5203 7.06497C10.5371 7.02385 10.5371 6.97778 10.5204 6.93662C10.3508 6.46991 10.1114 6.0316 9.81043 5.63662C9.59121 5.38462 9.33086 5.1716 9.04043 5.00662C8.70047 4.78933 8.31028 4.66323 7.90745 4.64046C7.50462 4.6177 7.10271 4.69903 6.74043 4.87662C6.38548 5.06477 6.0811 5.33568 5.85307 5.66642C5.62504 5.99715 5.48006 6.37797 5.43043 6.77662C5.37423 7.4018 5.46321 8.0315 5.69043 8.61662C6.07357 9.49616 6.53194 10.341 7.06043 11.1416ZM6.00043 6.85162C6.03806 6.54077 6.14815 6.2431 6.32184 5.98256C6.49553 5.72203 6.72796 5.50592 7.00043 5.35162C7.28207 5.20391 7.59628 5.12925 7.91426 5.13449C8.23224 5.13973 8.54382 5.22471 8.82043 5.38162C9.15046 5.5495 9.43908 5.78859 9.66543 6.08162C9.82921 6.30963 9.97148 6.55234 10.0904 6.80662C10.0054 6.80662 9.92043 6.83662 9.83043 6.86162L9.69543 6.90662L9.57543 6.97162C9.48777 6.75032 9.37361 6.54045 9.23543 6.34662C9.07975 6.1616 8.89377 6.00436 8.68543 5.88162C8.4467 5.71564 8.15969 5.63346 7.86929 5.64793C7.57889 5.66241 7.30147 5.77272 7.08043 5.96162C6.86382 6.13986 6.68889 6.36339 6.56795 6.61649C6.44702 6.86959 6.38301 7.14612 6.38043 7.42662C6.39793 7.92239 6.52244 8.4085 6.74543 8.85162C7.03471 9.40743 7.3925 9.92479 7.81043 10.3916L7.56043 10.4816C7.48 10.5098 7.40149 10.5432 7.32543 10.5816C7.27743 10.6126 7.23225 10.6477 7.19043 10.6866C6.74793 9.99437 6.39194 9.25049 6.13043 8.47162C5.96059 7.9493 5.91605 7.39434 6.00043 6.85162Z" fill="white"/>
</g>
<defs>
<clipPath id="clip0_8078_11433">
<rect width="12" height="12" fill="white" transform="translate(4 4.00781)"/>
</clipPath>
</defs>
</svg>
