<svg width="103" height="96" viewBox="0 0 103 96" fill="none" xmlns="http://www.w3.org/2000/svg">
<path fill-rule="evenodd" clip-rule="evenodd" d="M1.26266 74.7122L102.181 83.0772L100.717 8.77689L0.359375 7.76953L1.26266 74.7122Z" fill="white"/>
<path fill-rule="evenodd" clip-rule="evenodd" d="M0.410806 7.78065L100.624 8.80515L100.453 0.4375H0.316406L0.410806 7.78065Z" fill="#A5BDA3"/>
<path d="M100.986 8.76673C100.985 8.62106 100.866 8.50366 100.721 8.5034L0.627063 7.4998L0.536374 0.753107C0.533499 0.546692 0.308213 0.420772 0.13086 0.526515C0.0485341 0.575597 -0.00133194 0.664822 2.70859e-05 0.760634L0.995517 74.7107C0.997764 74.8485 1.10393 74.9623 1.24119 74.9741C1.37845 74.9859 102.174 83.3417 102.182 83.3417C102.291 83.3407 102.39 83.2738 102.431 83.1722C102.444 83.139 102.45 83.1037 102.45 83.0682L100.986 8.76673ZM1.52873 74.4581L0.632394 8.05335L100.454 9.07252L101.906 82.7833L1.52873 74.4581Z" fill="#112011"/>
<path fill-rule="evenodd" clip-rule="evenodd" d="M5.06316 3.51452L5.91229 2.0625L6.7517 3.41526L8.43491 3.86102L7.07891 4.81955L7.59006 6.58426L5.83665 5.52756L4.2457 6.46032L4.6314 4.76859L3.35156 3.88621L5.06316 3.51452Z" fill="#588157"/>
<path fill-rule="evenodd" clip-rule="evenodd" d="M24.8418 2.73886V6.43239L91.0673 7.02942L90.9644 2.73828L24.8418 2.73886Z" fill="white"/>
<path d="M7.59065 6.85112C7.48334 6.85112 7.57026 6.88384 5.83504 5.83791L4.38198 6.69076C4.20384 6.79514 3.97949 6.6676 3.97813 6.46113C3.97803 6.44023 3.98033 6.41932 3.98503 6.39893L4.32991 4.88419L3.19978 4.10536C3.0299 3.98801 3.05075 3.73079 3.23731 3.64235C3.25581 3.63357 3.27525 3.62698 3.29522 3.62259L4.89151 3.27504L5.68325 1.92547C5.73076 1.84446 5.81727 1.79417 5.9112 1.79297C6.00147 1.80447 6.08406 1.84973 6.14239 1.91957L6.92551 3.18169L8.50517 3.60064C8.70479 3.65322 8.77269 3.90218 8.62733 4.0488C8.6163 4.05994 8.60433 4.07002 8.59152 4.07907L7.39003 4.92658L7.8486 6.50891C7.89789 6.68041 7.76905 6.85128 7.59065 6.85112ZM5.83666 5.25808C5.94392 5.25808 5.90101 5.25055 7.14274 5.9999L6.82091 4.89224C6.78913 4.78221 6.83069 4.66413 6.92441 4.59827L7.81217 3.97181L6.68574 3.67303C6.5409 3.63388 6.56667 3.6194 5.92191 2.58042L5.29488 3.64836C5.25683 3.71302 5.19342 3.75875 5.12003 3.77438L4.01399 4.01472L4.78373 4.54574C4.87337 4.60857 4.91587 4.71964 4.89098 4.82627L4.64589 5.91083C5.76421 5.25698 5.73149 5.25808 5.83666 5.25808Z" fill="#112011"/>
<path d="M13.9961 6.58765C12.189 6.58765 11.2729 4.13956 12.5565 2.70798C13.3206 1.80747 14.7134 1.81771 15.4642 2.72941C16.7199 4.17066 15.7871 6.58765 13.9961 6.58765ZM12.4974 4.30264C12.4328 5.19485 13.0973 5.97331 13.9886 6.04963C15.3333 6.05501 16.0161 4.175 15.0614 3.07915C14.1173 1.99888 12.506 2.77394 12.4974 4.30264Z" fill="#112011"/>
<path d="M19.3461 6.59873C17.5369 6.59873 16.6234 4.14908 17.9059 2.71906C18.6704 1.81939 20.0625 1.82963 20.8136 2.74055C22.0725 4.18609 21.1322 6.59873 19.3461 6.59873ZM19.3504 2.58818C18.4626 2.65932 17.7939 3.42613 17.8442 4.31535C17.7802 5.20787 18.4444 5.98654 19.3359 6.06395C20.2301 6.00285 20.9074 5.23144 20.8523 4.33683C20.9164 3.44055 20.246 2.6601 19.3504 2.58818Z" fill="#112011"/>
<path d="M95.7618 6.63123C94.8404 6.63923 94.0051 6.0907 93.6463 5.24199C92.9674 3.62913 94.289 1.88612 96.0252 2.10456C97.161 2.24747 98.0134 3.21269 98.0147 4.35747C98.0176 5.60642 97.0107 6.62239 95.7618 6.63123ZM95.7618 2.6201C94.6633 2.60745 93.8288 3.60446 94.0347 4.68358C94.2396 5.76364 95.3843 6.38336 96.4007 5.96447C97.0528 5.69726 97.4786 5.06223 97.4783 4.35747C97.483 3.40416 96.7152 2.6269 95.7618 2.6201Z" fill="#112011"/>
<path d="M14.4761 5.69998C14.3446 5.69998 14.4122 5.72841 12.9935 4.5886C12.8495 4.47371 12.8616 4.2512 13.0171 4.15251L14.3999 3.27285C14.568 3.15294 14.8028 3.25999 14.8226 3.46552C14.8327 3.57085 14.7799 3.67225 14.688 3.72447L13.6227 4.40409L14.6418 5.22207C14.8033 5.35076 14.7648 5.60594 14.5727 5.68142C14.5419 5.69349 14.5091 5.69982 14.4761 5.69998Z" fill="#112011"/>
<path d="M18.705 5.73677C18.4985 5.73698 18.3693 5.51358 18.4724 5.33471C18.4898 5.30455 18.5129 5.27805 18.5404 5.25672L19.5761 4.45271L18.5195 3.75809C18.3469 3.64472 18.3617 3.38703 18.5461 3.29425C18.6317 3.25118 18.7338 3.25703 18.8139 3.30967L20.1839 4.21023C20.3372 4.31126 20.3459 4.53299 20.201 4.64579C18.7716 5.75611 18.8321 5.73677 18.705 5.73677Z" fill="#112011"/>
<path d="M91.0662 7.29571L24.8385 6.69925C24.6904 6.69925 24.5703 6.57919 24.5703 6.43105V2.73695C24.5703 2.58887 24.6904 2.46875 24.8385 2.46875H90.9632C91.1092 2.46901 91.2282 2.58568 91.2314 2.73162L91.3344 7.0227C91.3374 7.17293 91.2164 7.29576 91.0662 7.29571ZM25.1089 6.1661L90.7916 6.75612L90.7015 3.00139H25.1089V6.1661Z" fill="#112011"/>
<path d="M96.2132 4.33753L96.8391 3.76522C96.9231 3.69309 96.9544 3.57689 96.918 3.47235C96.853 3.28737 96.6179 3.23238 96.4776 3.36938L95.805 3.98298L95.0894 3.36457C94.9783 3.26191 94.8042 3.27216 94.7059 3.3871C94.634 3.47068 94.6202 3.5896 94.671 3.68745C94.6882 3.71965 94.7108 3.74751 94.7386 3.77003L95.4059 4.34668L94.825 4.8766C94.7408 4.94884 94.7095 5.06529 94.7462 5.17004C94.8114 5.35482 95.0464 5.4095 95.1865 5.27249L95.8146 4.69961L96.4829 5.2773C96.6427 5.40803 96.8842 5.31677 96.9175 5.11302C96.9321 5.02363 96.9006 4.93289 96.8338 4.87179L96.2132 4.33753Z" fill="#112011"/>
<path fill-rule="evenodd" clip-rule="evenodd" d="M22.7585 37.8633C24.1333 37.8713 24.8601 39.1399 24.7485 40.4347C24.6493 41.5575 23.7248 42.4278 22.5981 42.4591C21.9464 42.4768 20.4788 41.8192 20.4864 40.4653C20.4939 39.1115 21.3837 37.8553 22.7585 37.8633Z" fill="#A5BDA3"/>
<path fill-rule="evenodd" clip-rule="evenodd" d="M18.4443 36.3584C18.9013 36.7499 21.9212 36.3584 21.7608 35.1783C21.6004 33.9983 20.4884 31.1184 22.6222 27.1465C24.7559 23.1745 25.6405 20.1198 24.7592 17.8284C23.8779 15.5369 18.7913 11.4936 12.9704 14.4449C7.14961 17.3966 5.851 24.1765 8.66968 27.847C10.3223 29.6342 13.0992 27.493 12.2828 25.931C11.3055 24.0606 10.8635 20.1134 13.9982 18.5514C16.4087 17.3499 18.772 18.9381 18.8525 20.9008C18.9329 22.8639 19.1137 24.3015 17.8752 27.368C16.6367 30.4351 17.2202 35.3119 18.4443 36.3584Z" fill="#A5BDA3"/>
<path d="M22.5728 42.7264C21.9301 42.6817 21.3244 42.4093 20.8644 41.9583C20.4521 41.5701 20.2191 41.0285 20.2207 40.4623C20.222 40.2559 20.4463 40.1282 20.6244 40.2324C20.7071 40.2808 20.7577 40.3697 20.7571 40.4655C20.7554 40.8866 20.9306 41.289 21.2399 41.5747C21.6043 41.9328 22.0837 42.1505 22.5932 42.1889C22.7399 42.1887 22.8609 42.3037 22.8684 42.4502C22.8741 42.6129 22.7348 42.7427 22.5728 42.7264Z" fill="#112011"/>
<path d="M18.27 36.5702C16.9193 35.4148 16.3583 30.4124 17.6236 27.2757C18.7286 24.54 18.683 23.3063 18.5816 20.9195C18.506 19.1419 16.347 17.6883 14.1151 18.7991C13.1357 19.2697 12.397 20.1274 12.0768 21.1657C11.6481 22.7172 11.8062 24.3722 12.521 25.8145C13.4924 27.6725 10.3218 30.0375 8.47337 28.0379C8.33198 27.8874 8.40641 27.6403 8.60739 27.593C8.66625 27.5792 8.72814 27.5857 8.78286 27.6114C8.81506 27.6264 8.8435 27.6473 8.86765 27.6731C10.3051 29.2286 12.7167 27.3475 12.0457 26.0639C11.2582 24.4961 11.0871 22.6899 11.5662 21.0021C11.9293 19.8254 12.7665 18.8534 13.8764 18.3201C16.458 17.0328 19.0257 18.7358 19.118 20.8991C19.2108 23.0795 19.3245 24.4982 18.1214 27.4778C16.8925 30.5224 17.5523 35.2501 18.6192 36.1636C18.8203 36.317 20.2519 36.2762 21.0747 35.801C21.3815 35.6234 21.5231 35.4303 21.4953 35.2265C21.4685 35.0218 21.6733 34.8648 21.864 34.944C21.9169 34.9659 21.9613 35.0042 21.9909 35.0532C22.0086 35.0838 22.0199 35.1176 22.0242 35.153C22.2274 36.6297 18.889 37.0996 18.27 36.5702Z" fill="#112011"/>
<path d="M62.1312 55.6253C69.0106 48.9161 68.1843 38.8904 64.688 33.2759C64.091 33.2249 63.1681 33.0703 62.9861 35.3447C62.8426 37.1404 65.6228 39.7846 62.7945 42.154C60.6687 43.9349 56.9892 43.1065 56.8017 47.0427C56.5488 52.36 63.6574 51.8352 62.1312 55.6253Z" fill="#588157"/>
<path d="M42.4156 44.7789C41.6979 45.2661 40.821 46.3786 41.3728 47.101C41.7274 47.5654 42.6905 47.6275 43.4568 47.2699C44.4794 46.794 44.4815 45.6727 45.385 45.0795C46.2024 44.5429 47.1067 44.6944 47.7274 43.7145C48.7348 42.1253 47.3875 41.2003 45.8338 41.9412C45.0476 42.3166 43.8131 42.0464 43.4306 42.2085C42.3118 42.6852 43.3348 44.1532 42.4156 44.7789Z" fill="#588157"/>
<path d="M32.7532 46.1115C35.5718 47.3587 36.2938 46.4915 37.4548 44.6026C38.6159 42.7136 38.2781 40.1627 43.5409 39.5644C48.8037 38.9662 48.1049 36.5457 47.3319 34.8167C46.5588 33.0878 46.4592 31.2331 49.0781 30.5103C51.697 29.7874 50.8395 26.851 49.7266 25.7461C47.464 25.5857 44.0754 26.6889 41.8314 27.7127C35.9534 31.1446 32.0407 37.672 32.5364 44.4605C32.5781 45.0315 32.6491 45.5854 32.7532 46.1115Z" fill="#588157"/>
<path fill-rule="evenodd" clip-rule="evenodd" d="M47.1539 60.6798C54.1777 62.1476 59.5029 58.2073 59.8404 57.4596C60.1896 56.6861 60.027 55.9359 58.8301 55.5285C58.3709 55.3722 57.8457 55.443 57.2657 55.5211C56.3333 55.6467 55.2593 55.7914 54.0908 55.0425C53.2925 54.5309 53.093 53.8256 52.912 53.1856C52.6879 52.3931 52.492 51.7007 51.2228 51.6003C50.2169 51.5207 49.417 52.1822 48.5774 52.8765C47.5665 53.7124 46.4981 54.5959 44.9434 54.2912C46.1591 56.16 46.9432 58.337 47.1539 60.6798Z" fill="#588157"/>
<path fill-rule="evenodd" clip-rule="evenodd" d="M31.4777 48.0227C30.5964 44.5854 30.6376 40.9082 31.7674 37.4813C32.8632 34.2733 34.7697 31.403 37.3019 29.149C39.8341 26.895 42.9059 25.3339 46.2193 24.6172C50.8193 23.7176 55.5894 24.5201 59.6418 26.8754C63.6941 29.2307 66.7525 32.9783 68.2477 37.4205C69.7491 41.9892 69.6055 47.1231 67.4878 51.4343C67.4561 51.4996 67.4003 51.55 67.3322 51.5749C67.264 51.5998 67.1889 51.5972 67.1226 51.5677C67.0563 51.5382 67.0041 51.4841 66.977 51.4168C66.9499 51.3495 66.95 51.2743 66.9773 51.2071C68.522 47.2183 68.7942 42.849 67.7563 38.6994C65.0322 28.5699 54.0035 22.5649 44.056 26.084C37.9653 28.2385 33.1687 33.6654 32.0042 40.0462C31.5526 42.6801 31.6737 45.3727 32.3504 47.9428C32.057 47.9604 31.766 47.9872 31.4777 48.0227ZM47.211 62.1062C50.9832 62.6277 54.895 62.0583 58.2441 60.2494C58.5396 60.0894 58.3661 59.603 58.0448 59.7504C54.6354 61.3157 50.8359 61.8446 47.1969 61.3137C47.2067 61.5301 47.2117 61.7477 47.2117 61.9666C47.2117 62.0132 47.2115 62.0597 47.211 62.1062Z" fill="#112011"/>
<path fill-rule="evenodd" clip-rule="evenodd" d="M75.582 36.7438C77.6539 35.7928 79.8264 35.0784 82.0584 34.6143C85.9102 33.7867 91.4907 34.9206 92.8398 35.6388C90.8881 38.4529 87.6523 40.0972 84.2286 40.0146C81.0471 39.9985 77.9776 38.8375 75.582 36.7438Z" fill="#A5BDA3"/>
<path d="M83.775 40.2837C78.7744 40.284 74.2663 37.2715 72.3532 32.6514C68.7127 23.8585 75.956 14.4219 85.3912 15.6657C91.5405 16.4762 96.1373 21.7179 96.1382 27.9205C96.1305 34.7453 90.5998 40.276 83.775 40.2837ZM83.775 16.0926C74.6703 16.092 68.9795 25.9478 73.5314 33.833C78.0832 41.7182 89.464 41.7188 94.0169 33.8343C95.0554 32.0358 95.602 29.9956 95.6018 27.9189C95.5935 21.3909 90.303 16.0997 83.775 16.0926Z" fill="#112011"/>
<path fill-rule="evenodd" clip-rule="evenodd" d="M81.1806 61.8203C86.9345 61.8191 92.1221 65.2852 94.3231 70.6015C98.5171 80.7169 90.1882 91.5792 79.331 90.1536C75.2662 89.6199 71.6293 87.3584 69.3527 83.949C67.7893 81.6096 66.9549 78.859 66.9551 76.0453C66.9589 68.1904 73.3257 61.8239 81.1806 61.8203Z" fill="white"/>
<path fill-rule="evenodd" clip-rule="evenodd" d="M82.063 33.0252C82.0496 33.0788 82.0593 32.9984 82.0593 34.6167C82.0593 34.6167 81.9439 36.5444 83.95 36.0316C85.9561 35.5189 85.9111 34.0363 85.9111 34.0363L85.7217 31.4616C85.6772 31.4246 85.6338 31.3898 85.5898 31.3543C85.742 31.1535 85.8708 30.9359 85.9738 30.7059C86.0769 30.4758 87.3287 31.4032 87.9713 29.7833C88.6139 28.1623 88.9599 25.3763 87.7326 24.2515C86.5054 23.1267 84.7648 22.7126 82.8419 22.6509C80.9189 22.5893 78.7181 23.6647 78.658 25.7931C78.598 27.9226 78.945 28.2304 78.4285 29.3923C77.9119 30.553 78.3635 32.3703 82.0389 33.0263L82.063 33.0252Z" fill="white"/>
<path d="M80.0111 26.8828C79.3369 26.8828 79.3224 28.3407 80.0111 28.3407C80.6998 28.3407 80.6902 26.8828 80.0111 26.8828Z" fill="#112011"/>
<path d="M84.2283 27.0938C83.5482 27.0938 83.5444 28.5517 84.2283 28.5517C84.9122 28.5517 84.91 27.0938 84.2283 27.0938Z" fill="#112011"/>
<path d="M80.6056 30.1299C80.0611 29.6498 80.4061 28.9091 80.9274 28.4296C81.0802 28.2904 81.3263 28.3688 81.3704 28.5707C81.3909 28.6644 81.3598 28.7619 81.2889 28.8265C81.0715 29.0093 80.9215 29.2597 80.8631 29.5378C80.8767 29.6946 81.0115 29.8129 81.1688 29.8059C81.3683 29.7764 81.5942 29.5061 81.673 29.3768C81.7491 29.2552 81.9075 29.215 82.0323 29.2857C82.1869 29.372 82.5687 29.5222 82.7565 29.4294C82.7833 29.4165 82.8638 29.3758 82.8991 29.1709C82.9102 29.1006 82.9486 29.0376 83.0059 28.9955C83.0639 28.9538 83.1362 28.9372 83.2065 28.9493C83.3525 28.9732 83.4518 29.1105 83.4286 29.2566C83.3095 29.9942 82.6825 30.1423 81.9851 29.8553C81.4911 30.4544 80.9671 30.4485 80.6056 30.1299Z" fill="#112011"/>
<path d="M81.8766 31.7248C81.3057 31.7122 80.7803 31.4103 80.482 30.9233C80.4104 30.7963 80.453 30.6353 80.578 30.5602C80.7039 30.486 80.8661 30.5258 80.9433 30.6498C81.1251 30.9283 81.4133 31.1199 81.7404 31.1798C82.3105 31.1848 82.8523 30.9313 83.2138 30.4905C83.3512 30.3511 83.5866 30.4002 83.6569 30.5828C83.682 30.6509 83.6789 30.7261 83.6483 30.7919C83.6331 30.8246 83.6114 30.8538 83.5845 30.8778C83.1454 31.3694 82.5337 31.6724 81.8766 31.7248Z" fill="#112011"/>
<path d="M79.0405 26.1941C78.8547 26.1932 78.7261 26.0081 78.79 25.8336C78.8061 25.7896 79.2035 24.7608 80.7296 24.836C80.8775 24.8435 80.9914 24.9691 80.9844 25.117C80.9841 25.2684 80.8535 25.3867 80.7028 25.3718C79.5919 25.3122 79.3028 25.9951 79.291 26.0241C79.2504 26.1268 79.151 26.1943 79.0405 26.1941Z" fill="#112011"/>
<path d="M85.3763 26.195C85.3081 26.1949 85.2425 26.1688 85.1928 26.1221C84.7213 25.6513 84.0862 25.3809 83.4201 25.3673C83.2711 25.3807 83.1414 25.2668 83.1352 25.1174C83.1311 25.0465 83.1548 24.9769 83.2012 24.9232C83.2479 24.8695 83.3141 24.8366 83.3852 24.832C84.1998 24.836 84.9805 25.1587 85.5603 25.731C85.6854 25.849 85.6696 26.0524 85.5275 26.1494C85.4828 26.1794 85.4301 26.1953 85.3763 26.195Z" fill="#112011"/>
<path fill-rule="evenodd" clip-rule="evenodd" d="M85.9106 23.7043C85.9106 23.7043 85.2862 25.1069 87.0681 25.1069C87.0681 25.1069 85.6676 26.7423 87.1099 27.054C87.1099 27.054 85.1951 28.3236 86.4084 28.632C87.6217 28.9405 87.6742 27.755 88.2525 28.9179C88.2525 28.9179 87.943 31.6246 85.9015 30.8527C85.9015 30.8527 85.7406 33.6628 87.5482 33.481C89.3558 33.2986 91.7856 30.9471 91.0465 29.7907C90.3073 28.6331 88.5518 28.4996 88.5518 28.4996C88.5518 28.4996 90.1153 27.5716 89.8568 26.443C89.5982 25.3156 88.8414 25.5221 88.8414 25.5221C89.3353 24.9992 89.4558 24.226 89.1445 23.5777C89.0285 23.2198 88.6877 22.9836 88.312 23.0005C88.1907 23.0062 88.0721 23.0383 87.9644 23.0944C87.8567 23.1505 88.7604 22.4636 87.8716 21.6639C87.5436 21.3295 87.0288 21.2643 86.6277 21.5062C86.4986 21.5841 86.3886 21.69 86.3059 21.8162C86.4099 21.5878 86.4097 21.3256 86.3053 21.0974C86.2009 20.8694 86.0033 20.6974 85.7631 20.6254C84.8603 20.3529 84.6002 21.3356 84.6002 21.3356C84.6002 21.3356 84.6458 20.1947 83.7307 20.2998C83.1565 20.3951 82.6571 20.747 82.3742 21.2556C82.0913 21.7643 82.3785 20.6442 81.4875 20.7042C80.5966 20.7638 80.5961 22.2705 80.5961 22.2705C80.1441 21.8943 79.4867 21.8993 79.0405 22.2823C78.2504 22.9485 77.8605 24.8752 78.6528 25.934C78.7051 24.9933 79.1497 24.1176 79.8784 23.5203C80.607 22.9229 80.7157 24.0094 82.0588 22.9603C82.0588 22.9603 82.7722 24.276 84.0735 23.2215C84.0718 23.2237 84.4344 24.761 85.9106 23.7043Z" fill="#112011"/>
<path d="M87.524 33.2143C87.237 33.2589 86.9453 33.1693 86.7329 32.9713C86.3494 32.4676 86.1514 31.8469 86.1723 31.2141C86.5908 31.3206 87.0345 31.2568 87.406 31.0366C88.3404 30.4664 88.5163 29.0117 88.5239 28.95C88.5299 28.8985 88.5207 28.8463 88.4976 28.7998C88.3029 28.4083 88.1403 28.2216 87.937 28.1562C87.4612 27.9996 87.273 28.5778 86.4791 28.3772C86.3091 28.3337 86.279 28.2838 86.279 28.2838C86.2415 28.1524 86.6878 27.6643 87.2628 27.283C87.3524 27.2229 87.398 27.1155 87.3787 27.0094C87.3581 26.9037 87.2768 26.8202 87.1716 26.797C86.935 26.746 86.7962 26.6543 86.75 26.525C86.6363 26.1887 87.0557 25.5445 87.2767 25.286C87.4109 25.1291 87.325 24.8857 87.122 24.848C87.1058 24.845 87.0894 24.8434 87.0729 24.8434C86.7473 24.8434 86.322 24.7898 86.1611 24.5377C86.0571 24.3092 86.0571 24.0469 86.1611 23.8184C86.2439 23.6289 86.0906 23.4207 85.885 23.4437C85.8399 23.4487 85.7969 23.4651 85.7598 23.4912C85.5014 23.7268 85.1502 23.833 84.8045 23.7798C84.4612 23.6527 84.3384 23.1667 84.3384 23.1667C84.2918 22.9758 84.0631 22.8975 83.9093 23.0197C83.6608 23.267 83.3147 23.3904 82.9658 23.356C82.6851 23.2765 82.4462 23.0914 82.2991 22.8395C82.2611 22.7707 82.1952 22.7216 82.1183 22.7049C82.0411 22.6888 81.9607 22.7074 81.8984 22.7558C80.7344 23.6645 80.0425 23.3073 80.0178 23.2949C79.9252 23.2406 79.8092 23.2467 79.7228 23.3105C78.9519 23.9142 78.4693 24.8134 78.3925 25.7896C78.3287 27.9255 78.6731 28.1921 78.1861 29.2869C77.8972 29.9125 77.9197 30.6376 78.2467 31.2442C78.6055 31.92 79.5174 32.8083 81.7954 33.2556V34.6051C81.7654 35.1534 81.9721 35.6881 82.3629 36.0738C82.8471 36.4111 83.4644 36.4938 84.0203 36.2958C86.2099 35.7364 86.1836 34.05 86.1825 34.021L86.1101 33.0373C86.4077 33.5541 86.9907 33.8369 87.5809 33.7507C87.7282 33.736 87.8358 33.6047 87.8212 33.4573C87.8133 33.3467 87.7369 33.2529 87.6302 33.2229C87.5957 33.213 87.5596 33.2097 87.524 33.2143ZM78.7171 30.9904C78.4712 30.5285 78.4549 29.9782 78.6731 29.5025C79.2341 28.2404 78.8495 27.7179 78.9241 25.9135C78.9776 25.1161 79.3348 24.3695 79.9223 23.8275C80.6529 24.0047 81.4241 23.8234 81.9993 23.3394C82.4602 23.9526 83.3263 24.0857 83.9501 23.6393C84.2083 24.2601 84.9406 24.5292 85.5394 24.2234C85.5353 24.8087 85.9884 25.2956 86.5724 25.3337C86.1766 25.9559 85.9679 26.7058 86.5693 27.1182C86.1675 27.4401 85.6735 27.9314 85.7475 28.368C85.7776 28.5451 85.9084 28.7795 86.3445 28.8911C86.8295 29.0088 87.3415 28.9256 87.7643 28.6604C87.7718 28.6641 87.8389 28.7006 87.9789 28.964C87.9091 29.5893 87.6041 30.1646 87.1255 30.5731C86.7759 30.7625 86.3566 30.7717 85.9991 30.5978C85.8559 30.5442 85.7717 30.5565 85.5785 30.8853C84.1325 33.3554 79.8569 33.1387 78.7171 30.9904ZM83.8841 35.774C83.4949 35.9254 83.0568 35.8828 82.7041 35.6592C82.4415 35.3785 82.3057 35.0022 82.3286 34.6186V33.2723C83.5053 33.1669 84.6146 32.6768 85.4847 31.8776L85.6456 34.0457C85.644 34.0564 85.6617 35.3191 83.8841 35.774Z" fill="#112011"/>
<path fill-rule="evenodd" clip-rule="evenodd" d="M81.8095 90.2718C78.1186 90.2365 74.5488 88.9507 71.6831 86.6244C68.8174 84.2981 75.706 84.15 79.1496 83.6394C82.5932 83.1288 86.2342 82.3687 91.9354 85.4095C91.9354 85.4095 87.2715 90.2718 81.8095 90.2718Z" fill="#A5BDA3"/>
<path fill-rule="evenodd" clip-rule="evenodd" d="M78.7166 81.6635C76.6907 81.686 73.8891 79.6032 74.3837 77.7076C74.8391 75.9504 74.7312 76.7705 74.3912 73.3339C74.0511 69.8973 77.0227 68.8991 79.4332 68.8105C81.8437 68.722 82.7277 68.228 84.7558 69.5224C86.5656 70.6766 86.4503 76.1371 86.4503 76.1371C86.8348 76.3444 87.1149 76.7033 87.2227 77.1267C87.3318 77.5496 87.2591 77.9989 87.022 78.3658C86.2545 79.9159 84.0344 79.0593 84.0344 79.0593C84.0344 79.0593 83.8471 79.2122 83.5345 79.4434L84.3261 82.9776C84.3261 82.9776 82.6505 85.2364 80.491 84.6763C79.9483 84.4782 79.48 84.1174 79.15 83.6433L78.7166 81.6635Z" fill="white"/>
<path d="M76.7516 77.7794C76.6341 76.3505 78.4482 74.9999 78.5254 74.943C78.6918 74.8208 78.9281 74.9245 78.9508 75.1297C78.9613 75.225 78.9202 75.3186 78.843 75.3753C78.8269 75.3877 77.1936 76.6052 77.2874 77.7354C77.2871 77.7588 77.2994 77.7805 77.3196 77.7922C77.7433 77.8968 78.188 77.8781 78.6016 77.7386C78.8015 77.6858 78.9838 77.8692 78.9296 78.0689C78.9236 78.0909 78.9149 78.112 78.9035 78.1318C78.8679 78.1934 78.8092 78.2384 78.7405 78.2568C77.9821 78.4633 76.816 78.5598 76.7516 77.7794Z" fill="#112011"/>
<path d="M78.9068 79.6075C78.4463 79.5893 78.0062 79.4118 77.6619 79.1054C77.5107 78.9648 77.5684 78.7133 77.7657 78.6526C77.7889 78.6455 77.813 78.6415 77.8372 78.6409C77.9084 78.639 77.9774 78.6652 78.0293 78.7139C78.2905 78.9452 78.6282 79.0715 78.9771 79.0684C79.3454 79.0196 79.6762 78.8183 79.889 78.5138C80.0183 78.3534 80.2727 78.3931 80.347 78.5853C80.3557 78.6078 80.3613 78.6314 80.3636 78.6554C80.3712 78.7262 80.3502 78.797 80.3052 78.8522C79.9832 79.3092 79.4655 79.5888 78.9068 79.6075Z" fill="#112011"/>
<path d="M78.3357 80.6713C78.187 80.663 78.074 80.5345 78.0847 80.386C78.0929 80.2373 78.2215 80.1242 78.37 80.1349C78.7717 80.1816 79.1775 80.0953 79.5254 79.8893C79.6759 79.748 79.923 79.8226 79.9701 80.0235C79.9902 80.1093 79.9669 80.1994 79.9078 80.2648C79.454 80.5941 78.8923 80.7394 78.3357 80.6713Z" fill="#112011"/>
<path d="M76.3342 76.2972C75.6514 76.2972 75.6519 74.8398 76.3342 74.8398C77.0165 74.8398 77.0186 76.2972 76.3342 76.2972Z" fill="#112011"/>
<path d="M80.551 76.5092C79.8698 76.5092 79.8671 75.0508 80.551 75.0508C81.2349 75.0508 81.2338 76.5092 80.551 76.5092Z" fill="#112011"/>
<path fill-rule="evenodd" clip-rule="evenodd" d="M77.846 67.617C76.9778 67.2094 75.9617 67.2731 75.1512 67.786C72.1416 69.3458 73.7357 72.6429 75.5803 73.0914C75.5803 73.0914 75.6136 70.2442 77.0103 69.7797C78.6801 69.2245 79.3855 70.0892 79.3855 70.0892C79.5893 69.8285 79.8714 69.6408 80.1901 69.5528C81.1625 69.3951 81.8099 69.7674 81.9327 70.993C81.9666 71.8684 81.524 73.0651 80.4764 74.3835C80.4764 74.3835 83.0098 75.2589 84.3723 73.1182L84.4173 73.0463C85.0915 74.2494 84.1459 76.9179 84.1459 76.9179C84.7869 76.2776 85.7147 76.0166 86.5956 76.2287C87.4764 76.4408 87.9301 73.0575 87.007 70.9555C86.0839 68.8534 83.6401 64.5912 77.846 67.617Z" fill="#112011"/>
<path d="M75.0861 73.8574C74.9684 73.8581 74.8641 73.7813 74.8297 73.6686C74.7962 73.5562 74.8386 73.4348 74.9348 73.3677C75.8082 72.8093 76.8379 72.546 77.8721 72.6167C78.0199 72.6306 78.128 72.7625 78.1124 72.9102C78.102 73.0184 78.0272 73.1095 77.9231 73.1408C77.8892 73.1508 77.8536 73.1539 77.8185 73.15C76.9103 73.0961 76.0079 73.3261 75.2363 73.8081C75.1926 73.8397 75.1401 73.8569 75.0861 73.8574Z" fill="#112011"/>
<path d="M81.2664 73.495C81.1946 73.4949 81.1259 73.4661 81.0754 73.4151C80.6548 73.2055 80.187 73.1087 79.7178 73.1341C79.5113 73.1341 79.3823 72.9105 79.4856 72.7317C79.5334 72.6488 79.622 72.5977 79.7178 72.5977C79.9356 72.5977 81.0432 72.6191 81.4573 73.038C81.5752 73.1584 81.5552 73.3563 81.4155 73.4505C81.3713 73.4798 81.3194 73.4952 81.2664 73.495Z" fill="#112011"/>
<path d="M84.6466 78.395C84.5492 78.3941 84.4597 78.3411 84.4122 78.2561C84.3651 78.1706 84.3682 78.0662 84.4203 77.9836C84.8182 77.2137 85.6827 76.8059 86.5299 76.9886C86.6721 77.0314 86.752 77.1821 86.7074 77.3239C86.6631 77.4649 86.5137 77.544 86.3722 77.5014C85.7555 77.3856 85.1386 77.7021 84.873 78.2706C84.8238 78.348 84.7384 78.395 84.6466 78.395Z" fill="#112011"/>
<path d="M86.7201 75.9839V75.9035C86.7099 75.9324 86.7013 75.9571 86.6917 75.9818C86.0017 75.7655 85.2521 75.8555 84.633 76.2291C84.8594 75.3553 85.1077 73.9537 84.714 73.0644C85.7332 71.3544 85.7605 69.9485 84.7757 68.7792C84.146 68.0693 83.2529 67.6484 82.3045 67.6147C81.2163 67.633 80.183 68.096 79.4451 68.8961C79.113 68.2591 78.6022 67.7328 77.9754 67.3819C77.9122 67.3486 77.8383 67.3425 77.7705 67.3647C77.703 67.3867 77.6468 67.4343 77.6139 67.4972C77.5808 67.5602 77.5745 67.6339 77.5967 67.7016C77.6183 67.7694 77.666 67.826 77.7292 67.8587C78.4004 68.2487 78.9119 68.8636 79.1731 69.5945C78.4698 69.2481 77.651 69.2231 76.9278 69.5258C75.6786 69.9421 75.3964 71.8972 75.3331 72.7232C75.0139 72.5743 74.729 72.3607 74.4964 72.0962C74.3637 71.9375 74.109 71.9819 74.0378 72.1762C74.0282 72.2025 74.0228 72.2302 74.0217 72.2582C74.0189 72.3314 74.0465 72.4024 74.0978 72.4545L74.1193 72.4754C74.0953 72.7704 74.0971 73.0669 74.1246 73.3615C74.4556 76.7092 74.5656 75.9534 74.1246 77.6414C73.5883 79.6829 76.3952 81.8402 78.4994 81.9266C78.9189 83.8538 78.884 83.7331 78.9286 83.7959C79.4086 84.5854 80.2738 85.0582 81.1975 85.036C83.1113 85.036 84.479 83.2252 84.544 83.1383C84.5903 83.0756 84.6072 82.996 84.5901 82.92L83.8359 79.5563C83.9378 79.4796 84.0258 79.4114 84.0875 79.3632C84.979 79.6598 86.6085 79.8089 87.2645 78.4857C87.7936 77.6424 87.5517 76.531 86.7201 75.9839ZM82.2917 68.1484C83.0856 68.1817 83.8328 68.5327 84.3654 69.1225C84.9092 69.7661 85.4789 70.8716 84.146 72.9753C83.4526 74.0348 82.1628 74.5367 80.9357 74.2246C81.9307 72.867 82.3705 71.5464 82.1469 70.5589C82.0547 70.0733 81.7402 69.6589 81.2972 69.4395C80.7603 69.1522 80.1084 69.1862 79.6044 69.528C80.2675 68.7122 81.2423 68.2118 82.2917 68.1484ZM84.0355 82.9092C83.6997 83.3115 82.2724 84.859 80.5581 84.4154C80.091 84.2438 79.6865 83.9354 79.3973 83.5304L79.0449 81.9094C80.5436 81.7458 82.3308 80.6301 83.3612 79.8996L84.0355 82.9092ZM86.7807 78.2459C86.1322 79.5574 84.2114 78.8391 84.1304 78.808C84.0399 78.7721 83.937 78.7885 83.8623 78.8509C82.5798 79.87 80.1494 81.5168 78.5236 81.3886C76.5727 81.2464 74.2244 79.3712 74.6418 77.7744C75.11 75.9807 74.9914 76.6888 74.6562 73.3068C74.6439 73.1802 74.6367 73.0531 74.6348 72.926C74.8994 73.1224 75.1991 73.2666 75.5177 73.3508C75.5971 73.3706 75.6813 73.3526 75.7456 73.302C75.8098 73.2516 75.8478 73.1749 75.8492 73.0933C75.8582 72.3542 76.0996 70.3642 77.0952 70.0327C78.5493 69.55 79.1544 70.2312 79.1774 70.2575C79.2892 70.3937 79.4996 70.3876 79.6033 70.2451C79.9415 69.7908 80.562 69.6537 81.0601 69.9233C81.3571 70.0718 81.5658 70.3525 81.6223 70.6796C81.8245 71.5727 81.3171 72.8954 80.2652 74.2198C80.15 74.3646 80.2126 74.5799 80.3875 74.6403C80.8051 74.7657 81.2389 74.8287 81.6748 74.8269C82.6997 74.8572 83.6811 74.4126 84.3343 73.6222C84.5375 74.6285 84.1085 76.2216 83.8923 76.8325C83.85 76.9513 83.8965 77.0834 84.0039 77.1495C84.1107 77.2165 84.2499 77.1996 84.3374 77.1088C84.9015 76.5519 85.7078 76.3161 86.483 76.4811C87.036 76.8965 87.1668 77.6722 86.7807 78.2459Z" fill="#112011"/>
<path d="M81.1801 90.5434C72.0404 90.5425 65.1824 82.1861 66.9648 73.2218C68.109 67.4727 72.6032 62.9785 78.3523 61.8343C87.3167 60.0506 95.674 66.9089 95.6739 76.0491C95.6655 84.0504 89.1815 90.5348 81.1801 90.5434ZM81.1801 62.0923C75.5352 62.093 70.4462 65.4933 68.2854 70.7083C66.1246 75.9237 67.3189 81.9272 71.3112 85.9186C77.5345 92.1439 87.8965 91.1231 92.7854 83.8031C94.3189 81.5079 95.1374 78.8095 95.1375 76.0491C95.1283 68.3446 88.8847 62.1012 81.1801 62.0923Z" fill="#112011"/>
<path fill-rule="evenodd" clip-rule="evenodd" d="M33.6274 47.7773C39.1478 47.7778 44.1247 51.103 46.2379 56.2029C50.2599 65.91 42.2653 76.3309 31.8477 74.9605C25.0553 74.0669 19.9776 68.2767 19.9785 61.4257C19.9826 53.8895 26.0912 47.7812 33.6274 47.7773ZM33.6274 48.841C38.7178 48.8413 43.307 51.9078 45.2552 56.6106C48.9628 65.5617 41.5902 75.1696 31.9846 73.905C25.7222 73.0804 21.0411 67.742 21.0416 61.4257C21.0446 54.4762 26.6779 48.8434 33.6274 48.841Z" fill="white"/>
<path fill-rule="evenodd" clip-rule="evenodd" d="M22.574 69.4297L17.9648 74.0125L20.3957 76.2455L24.5431 71.609L22.574 69.4297Z" fill="white"/>
<path d="M3.01221 94.9047C1.80078 94.6125 0.859016 93.66 0.580779 92.4453C0.521138 92.2472 0.269454 92.188 0.127696 92.3386C0.0710868 92.3988 0.0453174 92.4817 0.0577579 92.5633C0.382673 93.9839 1.48715 95.0961 2.90547 95.4309C3.05047 95.4596 3.19155 95.3663 3.22197 95.2217C3.25129 95.0766 3.1572 94.9345 3.01221 94.9047Z" fill="#112011"/>
<path fill-rule="evenodd" clip-rule="evenodd" d="M18.0473 73.4805L21.699 76.7127L3.61364 95.1644C2.3027 94.8441 1.28274 93.8146 0.974609 92.5007L18.0473 73.4805Z" fill="#112011"/>
<mask id="mask0_7893_84491" style="mask-type:alpha" maskUnits="userSpaceOnUse" x="21" y="48" width="27" height="27">
<path d="M47.0681 61.3353C47.0681 68.3378 41.3891 74.0144 34.3836 74.0144C27.3782 74.0144 21.6992 68.3378 21.6992 61.3353C21.6992 54.3329 27.3782 48.6562 34.3836 48.6562C41.3891 48.6562 47.0681 54.3329 47.0681 61.3353Z" fill="#D9D9D9"/>
</mask>
<g mask="url(#mask0_7893_84491)">
<path d="M57.7265 60.0777C56.428 59.636 54.6422 60.8677 52.5868 59.5509C50.649 58.3097 51.9645 56.0162 49.4764 55.8194C46.9883 55.6226 45.6623 59.6049 42.3367 58.657C39.7094 57.9092 39.4406 55.385 36.7354 55.196C34.1956 55.018 33.3274 56.3315 32.4199 57.413C33.7061 59.9047 36.2625 63.4005 44.2694 65.4761C52.2764 67.5517 58.4435 63.0096 58.8222 62.1712C59.2009 61.3327 59.0246 60.5194 57.7265 60.0777Z" fill="#588157"/>
<path d="M39.9228 48.7832C39.1444 49.3113 38.1934 50.5173 38.7918 51.3004C39.1765 51.8039 40.2209 51.8712 41.0519 51.4835C42.1609 50.9677 42.1632 49.7521 43.1431 49.109C44.0295 48.5273 45.0103 48.6916 45.6834 47.6293C46.7759 45.9066 45.3148 44.9038 43.6298 45.707C42.7772 46.1139 41.4384 45.821 41.0236 45.9968C39.8102 46.5135 40.9196 48.1049 39.9228 48.7832Z" fill="#588157"/>
<path d="M29.445 50.2267C32.5018 51.5787 33.2847 50.6387 34.5439 48.591C35.8031 46.5433 35.4368 43.7779 41.1443 43.1294C46.8517 42.4808 46.094 39.8569 45.2556 37.9827C44.4172 36.1085 44.3091 34.0979 47.1494 33.3143C49.9896 32.5307 49.0596 29.3475 47.8527 28.1498C45.3989 27.9758 41.7239 29.1718 39.2903 30.2817L-nan -nanL39.2903 30.2817C32.9161 34.0016 28.6713 41.0787 29.2101 48.4393C29.2553 49.0574 29.3323 49.6571 29.445 50.2267Z" fill="#588157"/>
<path d="M37.147 64.7664C43.0912 68.3363 50.9585 68.8535 57.0877 65.5444C57.4082 65.371 57.2201 64.8437 56.8716 65.0034C50.0451 68.1363 41.7767 67.4392 35.8233 62.7539C33.0347 60.4939 30.8985 57.5322 29.6343 54.1735C28.3702 50.8148 28.0237 47.1801 28.6305 43.6432C29.8933 36.7262 35.0953 30.8431 41.7007 28.5075C52.4888 24.6927 64.4495 31.2024 67.4038 42.1832C68.5294 46.6816 68.2343 51.4181 66.559 55.7422C66.5293 55.815 66.5292 55.8965 66.5586 55.9695C66.588 56.0425 66.6447 56.1011 66.7165 56.1331C66.7884 56.1651 66.8699 56.1679 66.9438 56.1408C67.0177 56.1138 67.0783 56.0592 67.1126 55.9884C69.4093 51.315 69.565 45.7495 67.9367 40.7969C66.3152 35.9813 62.9983 31.9188 58.6035 29.3655C54.2087 26.8123 49.0355 25.9423 44.0468 26.9175C40.4534 27.6945 37.122 29.3868 34.3758 31.8302C31.6296 34.2736 29.562 37.3851 28.3736 40.8628C25.4711 49.6632 29.1937 59.9867 37.147 64.7664Z" fill="#112011"/>
</g>
<path d="M34.3853 48.6523C26.3879 48.6533 20.3873 55.9624 21.947 63.8029C23.8486 73.3742 35.4028 77.2986 42.7445 70.8668C45.4934 68.4586 47.0691 64.9818 47.0675 61.3281C47.0585 54.3308 41.3856 48.6608 34.3853 48.6523ZM34.3853 73.4771C25.0307 73.4842 19.1764 63.3664 23.8474 55.265C25.5979 52.2288 28.5749 50.0964 32.0137 49.4152C34.3711 48.9461 36.8146 49.1865 39.0352 50.1061C43.577 51.9852 46.5386 56.4147 46.5383 61.3281C46.5313 68.0345 41.0945 73.4695 34.3853 73.4771Z" fill="#112011"/>
<path d="M34.2832 47.5039C29.0956 47.5012 24.3375 50.3855 21.9404 54.986C19.5434 59.5868 19.9067 65.1393 22.8828 69.3885L18.4308 73.8153C18.3222 73.9231 18.3257 74.0997 18.4383 74.2031L20.8697 76.4366C20.9793 76.5392 21.152 76.5304 21.2506 76.4173L25.2263 71.9728C33.3536 78.9473 45.9833 74.5083 47.9598 63.9826C49.5678 55.4188 42.9965 47.5025 34.2832 47.5039ZM21.0312 75.859L19.0069 73.9988L23.2019 69.8283C23.6904 70.4704 24.2332 71.0691 24.8245 71.6178L21.0312 75.859ZM34.2832 74.8023C30.5058 74.8034 26.911 73.1779 24.4169 70.3412C22.1256 67.9405 20.8644 64.7388 20.9025 61.4205C20.9015 52.9818 28.6174 46.6495 36.8938 48.2967C46.9956 50.3139 51.1256 62.5103 44.3278 70.2502C41.7893 73.1403 38.1299 74.7995 34.2832 74.8023Z" fill="#112011"/>
<path d="M24.1958 60.7335C24.0825 57.086 26.1863 53.179 29.1976 51.4389C32.094 49.7627 35.7195 50.688 35.8723 50.7282C36.0709 50.7847 36.1339 51.035 35.9857 51.1787C35.9197 51.2427 35.8255 51.2684 35.7361 51.2469C35.7007 51.2383 32.1702 50.3404 29.4663 51.9034C26.661 53.5239 24.6259 57.3135 24.7321 60.7168C24.7385 60.9233 24.5191 61.0592 24.3371 60.9616C24.2526 60.9162 24.1987 60.8293 24.1958 60.7335Z" fill="#112011"/>
</svg>
