<svg width="341" height="401" viewBox="0 0 341 401" fill="none" xmlns="http://www.w3.org/2000/svg">
<path d="M234.845 330.629C191.125 348.634 135.05 345.935 88.0533 317.28C53.5485 296.246 27.6337 263.643 14.9277 225.282C2.22181 186.921 3.55044 145.295 18.6768 107.822C26.8372 87.5262 39.0072 69.0844 54.459 53.6C69.9107 38.1156 88.3267 25.9066 108.605 17.7033C128.884 9.50001 150.609 5.47093 172.481 5.85704C194.353 6.24315 215.922 11.0365 235.899 19.9504C282.896 40.5085 318.657 81.1382 333.185 135.523C335.315 143.592 336.817 151.814 337.679 160.115C337.732 160.527 337.942 160.902 338.265 161.163C338.588 161.423 338.999 161.549 339.413 161.513C339.826 161.478 340.21 161.284 340.484 160.973C340.758 160.661 340.901 160.256 340.883 159.841C340.119 151.314 338.661 142.863 336.524 134.572C330.274 108.509 318.136 84.2237 301.042 63.5804C283.948 42.9371 262.351 26.4844 237.91 15.4848C217.325 6.19213 195.073 1.16147 172.492 0.695749C149.912 0.230026 127.471 4.33887 106.52 12.7749C85.5695 21.2109 66.5429 33.7995 50.5858 49.7828C34.6288 65.7661 22.0714 84.8134 13.6699 105.778C-1.93924 144.439 -3.29987 187.389 9.83092 226.96C22.9617 266.531 49.7291 300.147 85.3542 321.807C107.764 335.521 133.099 343.741 159.291 345.795C185.483 347.849 211.79 343.68 236.063 333.628C236.452 333.459 236.759 333.145 236.919 332.753C237.078 332.36 237.078 331.921 236.918 331.529C236.758 331.137 236.45 330.823 236.061 330.655C235.673 330.487 235.234 330.477 234.838 330.629H234.845Z" fill="#191919"/>
<path d="M193.78 10.301C184.064 9.06244 174.24 8.91401 164.491 9.85843C123.175 11.6759 84.1271 29.2657 55.3887 59.0061C73.3463 72.5127 73.9827 61.7528 80.9646 59.551C83.8905 58.633 86.6884 59.8582 89.6143 58.3258C94.3176 55.7364 97.8251 49.8115 103.648 49.8444C111.31 49.881 111.752 57.748 119.861 57.1006C128.535 56.272 137.131 54.7691 145.572 52.6057C148.231 51.9583 150.327 47.767 153.099 48.4509C160.117 50.1516 150.886 57.7809 154.291 60.7104C155.172 61.6378 156.26 62.3438 157.467 62.7708C158.673 63.1979 159.962 63.3339 161.231 63.1677C162.5 63.0016 163.711 62.538 164.766 61.8148C165.822 61.0916 166.691 60.1292 167.304 59.0061C168.496 56.3179 167.608 52.9787 169.133 50.254C170.493 47.6939 173.591 46.8819 175.398 44.7021C177.782 41.7397 177.848 37.6178 179.926 34.4615C182.925 29.8313 189.292 28.244 192.562 24.0051C195.221 20.5672 194.471 14.9458 194.197 10.8605L193.78 10.301Z" fill="#809B24"/>
<path d="M29.0312 167.657C28.7386 163.232 31.2512 157.702 30.154 156.385C29.4737 155.603 26.749 155.738 25.8639 155.654C22.9026 155.283 19.9089 155.249 16.9399 155.551C15.4257 146.818 15.4257 137.89 16.9399 129.156C11.8796 144.27 9.52721 160.159 9.99092 176.091C9.64467 190.079 11.4606 204.037 15.3746 217.471C20.6336 214.042 25.4585 209.989 29.7443 205.401C29.609 201.945 29.746 198.483 30.154 195.047C30.3259 193.171 32.4032 192.121 33.3907 190.549C34.1734 189.324 34.9561 188.131 35.6034 186.891C37.5126 183.794 42.6183 177.32 39.5534 173.359C37.07 170.02 32.7105 168.831 29.3128 166.513L29.0312 167.657Z" fill="#809B24"/>
<path d="M55.1038 180.625C53.4689 182.26 49.8957 185.38 49.7238 187.914C49.4531 192.409 54.1858 195.544 52.891 199.87C51.5305 204.537 47.2733 207.43 45.8067 211.859C44.4791 215.604 45.7043 219.964 44.1061 223.504C42.4712 226.913 38.4518 230.896 37.9398 234.678C37.2083 240.127 41.8568 244.282 46.2164 241.59C51.1867 238.525 57.4884 231.715 57.3859 225.344C56.784 222.364 56.5664 219.32 56.7386 216.285C58.955 209.679 64.1631 206.852 63.9948 199.391C64.5155 195.119 64.8 190.821 64.847 186.517C64.5259 185.407 63.9741 184.377 63.2276 183.494C62.4812 182.611 61.5569 181.896 60.5152 181.395C59.4735 180.893 58.3377 180.618 57.1822 180.585C56.0266 180.553 54.8772 180.765 53.8091 181.207L55.1038 180.625Z" fill="#809B24"/>
<path d="M320.986 110.002C314.516 90.724 299.872 73.4576 286.453 58.6416C278.685 50.0249 270.412 41.2033 259.389 36.8438C254.098 42.6602 249.163 48.7901 244.61 55.2001C242.737 57.6542 239.57 60.4813 239.16 63.5791C238.275 69.3687 241.885 75.4655 242.737 81.1856C243.348 85.1722 240.828 89.3964 243.245 93.0062C245.747 96.338 248.81 99.2081 252.297 101.488C255.706 104.073 256.657 105.745 260.508 103.36C260.914 103.053 262.106 102.263 262.549 101.996C263.811 101.009 265.003 99.8857 266.4 98.8617C267.933 97.7059 270.588 96.6673 271.268 94.7069C272.731 90.6838 269.973 86.0902 271.711 82.0378C273.539 77.4734 280.327 82.1731 282.101 84.2322C282.908 85.1829 283.521 86.2826 283.904 87.469C284.826 89.1964 285.295 91.129 285.269 93.0867C284.449 97.7206 280.262 100.683 279.135 105.043C278.287 108.517 281.454 112.127 280.159 115.565C278.317 118.69 276.292 121.704 274.095 124.591C270.87 131.488 269.972 139.245 271.535 146.696C273.32 157.409 289.529 166.538 294.898 163.154C299.463 160.463 299.631 154.128 303.548 150.961C306.035 148.986 309.612 149.597 312.267 148.035C313.996 146.747 315.378 145.051 316.29 143.098C319.695 136.284 318.437 127.089 318.88 119.734C319.276 116.163 320.137 112.659 321.44 109.311L320.986 110.002Z" fill="#809B24"/>
<path d="M231.286 85.271C235.449 86.3091 239.732 86.79 244.021 86.701C245.85 86.7376 246.738 84.364 244.431 83.5008C240.249 81.9813 235.76 81.5018 231.352 82.1037C229.227 82.6121 229.201 84.7041 231.286 85.271Z" fill="#191919"/>
<path d="M265.01 83.3096C263.467 84.6555 261.869 86.0453 260.256 87.479C258.433 85.9301 256.449 84.5814 254.338 83.4559C252.436 82.5159 251.014 84.2349 252.363 85.9429C253.736 87.6025 255.263 89.1283 256.924 90.4999C253.422 93.6846 250.167 97.1312 247.188 100.81C245.948 102.394 247.598 104.398 249.47 103.059C253.365 100.086 257.009 96.7979 260.366 93.2283C261.746 94.2569 263.179 95.2127 264.659 96.092C266.653 97.2551 268.203 95.1631 266.733 93.5721C265.702 92.453 264.539 91.2753 263.291 90.1232C264.623 88.6603 265.976 87.1388 267.315 85.5515C267.483 85.405 267.619 85.2253 267.714 85.0236C267.809 84.8219 267.861 84.6027 267.867 84.3798C267.873 84.1569 267.833 83.9352 267.749 83.7286C267.665 83.522 267.54 83.3351 267.38 83.1796C267.22 83.0241 267.03 82.9034 266.821 82.8252C266.612 82.7469 266.389 82.7129 266.167 82.7251C265.944 82.7373 265.726 82.7955 265.527 82.8961C265.328 82.9967 265.152 83.1375 265.01 83.3096Z" fill="#191919"/>
<path d="M238.348 343.435C243.725 343.217 249.041 342.204 254.123 340.432C251.875 331.382 249.498 322.371 246.992 313.398C243.733 323.699 240.97 333.371 238.348 343.435Z" fill="#ADDE34"/>
<path d="M258.289 260.758C258.482 260.93 258.503 260.951 258.444 260.892C258.386 260.834 258.348 260.818 258.289 260.758Z" fill="#ADDE34"/>
<path d="M265.905 277.426C265.911 277.57 265.892 277.714 265.848 277.851C265.867 277.87 265.867 277.91 265.886 277.929C267.94 286.571 269.761 295.265 271.35 304.013C271.331 302.889 271.35 285.293 271.35 277.6C269.534 277.735 267.708 277.677 265.905 277.426Z" fill="#ADDE34"/>
<path d="M215.209 111.869C205.667 88.1048 182.789 80.9721 157.382 84.2395C153.873 84.6388 150.4 85.313 146.996 86.2557C127.824 91.8667 109.664 113.484 109.322 148.597C109.304 150.381 109.372 152.144 109.399 153.907C109.399 153.955 109.416 154.001 109.448 154.037C109.48 154.073 109.524 154.096 109.571 154.101L109.551 154.236C109.502 154.225 109.451 154.225 109.402 154.235C109.354 154.246 109.308 154.267 109.268 154.297C109.228 154.328 109.195 154.366 109.171 154.41C109.148 154.454 109.134 154.503 109.131 154.553C109.129 154.603 109.137 154.653 109.155 154.699C109.174 154.746 109.202 154.788 109.238 154.822C109.275 154.857 109.318 154.883 109.365 154.899C109.413 154.915 109.463 154.92 109.513 154.915C114.579 155.141 118.958 155.117 123.039 155.011C127.778 154.889 128.302 155.203 128.252 153.404C127.843 138.568 131.107 122.745 141.004 111.855C144.396 107.938 148.77 104.994 153.677 103.328C163.534 100.275 176.447 100.381 185.827 106.158C190.154 108.857 193.681 112.665 196.041 117.187C201.833 128.07 201.795 140.948 202.513 152.632C202.637 153.276 202.669 153.935 202.61 154.589C202.598 154.639 202.597 154.692 202.608 154.742C202.619 154.793 202.641 154.84 202.672 154.881C202.704 154.922 202.744 154.955 202.79 154.978C202.837 155.001 202.887 155.014 202.939 155.015C206.081 155.084 209.219 155.22 212.357 155.187C219.767 155.117 219.607 154.732 221.318 154.934C221.408 154.93 221.494 154.893 221.558 154.829C221.622 154.765 221.659 154.679 221.663 154.589C220.732 140.362 220.627 125.366 215.209 111.869Z" fill="#ADDE34"/>
<path d="M74.7693 278.301C74.2661 277.138 73.7612 275.975 73.277 274.812C70.1673 275.124 67.029 274.994 63.9557 274.426C63.9557 309.664 63.3095 317.623 66.358 325.993C68.2312 310.268 70.2681 294.056 74.7693 278.301Z" fill="#ADDE34"/>
<path d="M95.4848 319.184C93.0722 326.651 90.5786 335.315 88.6641 342.496C92.9121 343.206 97.2067 343.601 101.513 343.678C99.5552 335.495 97.5459 327.33 95.4848 319.184Z" fill="#ADDE34"/>
<path d="M94.5551 217.257C94.4948 216.828 94.0519 216.74 93.6831 216.714C93.2685 216.679 92.851 216.705 92.444 216.792C92.1907 216.849 92.0856 217.309 92.3665 217.392C92.7593 217.533 93.1627 217.643 93.5728 217.721C93.7917 217.762 94.6671 218.046 94.5551 217.257Z" fill="#1D2327"/>
<path d="M101.222 210.475C101.161 210.495 101.107 210.533 101.069 210.586C101.031 210.638 101.01 210.701 101.01 210.765C101.01 210.83 101.031 210.893 101.069 210.945C101.107 210.997 101.161 211.036 101.222 211.056C102.794 211.69 101.725 213.527 100.388 213.535C100.239 213.536 100.096 213.596 99.9911 213.702C99.8859 213.807 99.8266 213.95 99.8262 214.099C99.8451 216.308 99.9123 218.497 99.9813 220.706C100.004 221.423 101.136 221.444 101.105 220.706C101.024 218.673 100.989 216.617 100.97 214.583C101.46 214.465 101.904 214.209 102.251 213.845C102.598 213.48 102.833 213.023 102.926 212.529C103.094 211.597 102.401 209.98 101.222 210.475Z" fill="#1D2327"/>
<path d="M127.422 233.248C125.149 229.889 122.209 227.034 118.785 224.86C115.361 222.686 111.526 221.24 107.519 220.611C106.106 220.339 103.149 219.989 101.976 220.825C100.665 222.03 99.1989 223.053 97.6157 223.866C95.1924 224.412 92.6522 224.002 90.5227 222.724C89.9231 222.161 89.2152 221.727 88.4422 221.447C87.6693 221.167 86.8474 221.047 86.0266 221.095C79.1662 220.902 73.8378 224.025 68.5284 228.247C61.5871 233.815 56.1562 241.039 52.7345 249.254C52.702 249.338 52.6903 249.429 52.7005 249.519C52.7107 249.609 52.7425 249.696 52.7931 249.771C45.3829 268.055 63.9789 282.056 96.2406 265.099C105.467 260.252 107.959 257.563 111.318 256.38C111.306 256.42 111.303 256.464 111.31 256.506C111.317 256.548 111.332 256.588 111.357 256.623C111.381 256.658 111.412 256.688 111.449 256.71C111.486 256.731 111.527 256.744 111.569 256.748C113.658 257.016 115.669 257.709 117.48 258.784C120.992 260.49 121.068 261.334 122.014 261.07C122.082 261.053 122.143 261.012 122.185 260.956C122.227 260.9 122.249 260.831 122.247 260.76C122.188 259.886 121.142 259.5 120.465 259.092C118.343 257.818 114.694 255.93 112.227 256.088C112.481 256.031 112.732 255.975 113.003 255.933C113.877 255.804 113.508 254.462 112.634 254.596C109.1 255.144 107.094 257.365 99.0495 261.942C89.7352 267.238 79.4041 271.593 68.7421 271.283C56.5068 270.917 49.0467 262.823 53.8391 250.062C59.6411 249.942 65.4437 250.273 71.1943 251.053C71.6062 249.126 72.4316 245.969 72.9073 243.977C72.9791 243.101 73.2798 242.259 73.7793 241.535C73.8133 241.501 73.8556 241.476 73.9021 241.463C73.9487 241.45 73.9978 241.449 74.0447 241.461C74.0916 241.472 74.1346 241.496 74.1697 241.529C74.2047 241.563 74.2305 241.604 74.2445 241.651C74.3564 242.588 74.2228 243.538 73.8568 244.408C71.1667 255.516 71.0082 257.353 71.0082 257.353C69.504 257.963 68.0845 258.764 66.7844 259.736C66.0865 260.241 66.7465 261.425 67.4737 260.919C68.7352 260.057 70.0311 259.273 71.3098 258.477C71.3922 258.505 71.4794 258.516 71.5661 258.509C71.6528 258.503 71.7374 258.479 71.8147 258.439C82.7696 252.786 98.0087 249.366 108.75 252.58C112.622 253.739 113.299 255.206 114.802 254.517C113.685 250.748 113.689 246.736 114.816 242.971C114.83 242.922 114.853 242.877 114.885 242.838C114.916 242.799 114.955 242.766 114.999 242.742C115.043 242.718 115.092 242.702 115.142 242.697C115.192 242.691 115.242 242.696 115.291 242.71C115.339 242.724 115.384 242.747 115.423 242.778C115.463 242.81 115.495 242.849 115.519 242.893C115.544 242.937 115.559 242.985 115.565 243.035C115.57 243.085 115.566 243.136 115.552 243.184C114.906 246.739 114.961 250.385 115.714 253.919C116.822 254.12 117.463 253.71 132.276 255.838C132.357 255.977 132.48 256.086 132.628 256.15C132.776 256.213 132.94 256.228 133.096 256.191C133.252 256.154 133.393 256.068 133.496 255.945C133.6 255.822 133.662 255.67 133.672 255.509C134.01 247.613 131.82 239.814 127.422 233.248Z" fill="#1D2327"/>
<path d="M142.13 395.817C140.316 394.681 138.024 394.631 136.099 393.704C134.084 392.732 132.307 391.402 130.4 390.275C127.794 388.724 126.378 388.021 124.063 389.758C121.506 391.669 119.583 391.111 116.545 389.739C115.635 389.329 114.837 390.673 115.75 391.095C117.497 392.073 119.465 392.586 121.466 392.588C124.277 392.365 124.644 390.828 126.119 390.378C127.088 390.082 128.137 390.802 128.949 391.25C131.379 392.88 133.925 394.331 136.566 395.591C138.21 396.219 140.286 396.269 141.701 397.394C142.942 398.381 140.771 398.922 140.014 399.002C138.635 399.145 121.154 399.162 118.93 399.021C115.369 398.795 115.936 397.544 115.171 390.611C115.171 390.495 115.125 390.384 115.043 390.303C114.962 390.221 114.851 390.175 114.735 390.175C114.62 390.175 114.509 390.221 114.427 390.303C114.345 390.384 114.299 390.495 114.299 390.611C114.099 393.056 114.255 395.516 114.763 397.916C115.852 401.352 120.039 400.658 135.073 400.63C138.765 400.63 140.69 400.728 142.139 400.01C144 399.086 144.429 397.254 142.13 395.817Z" fill="#1D2327"/>
<path d="M74.8658 390.643C74.788 392.892 74.5094 395.129 74.0335 397.329C73.4269 399.363 70.9126 399.073 69.2272 399.092C64.5175 399.149 52.968 399.113 51.9013 399.113C50.7568 399.223 49.6023 399.064 48.5306 398.647C47.1916 397.958 48.665 397.114 49.4594 396.805C50.3242 396.512 51.2044 396.266 52.096 396.069C55.9338 395.044 58.7445 392.218 62.3082 390.663C62.7965 390.431 63.3464 390.363 63.8767 390.467C64.407 390.572 64.8897 390.844 65.2533 391.244C68.1829 393.484 70.8988 392.666 74.2851 391.108C75.1984 390.687 74.3988 389.359 73.4906 389.752C66.7457 392.681 66.794 389.435 64.2073 388.821C61.1829 388.104 56.6472 393.009 52.1925 394.384C51.1844 394.694 50.1384 394.87 49.1492 395.235C47.6207 395.802 45.358 397.303 46.728 399.151C48.0687 400.95 50.9914 400.626 52.9491 400.643C58.355 400.689 63.7816 400.731 69.1876 400.584C71.1849 400.531 73.8543 400.641 74.9623 398.608C75.4286 397.477 75.6659 396.265 75.6603 395.042C75.8148 393.58 75.8211 392.106 75.6792 390.643C75.6792 390.535 75.6364 390.431 75.5601 390.355C75.4838 390.279 75.3804 390.236 75.2725 390.236C75.1647 390.236 75.0612 390.279 74.9849 390.355C74.9087 390.431 74.8658 390.535 74.8658 390.643Z" fill="#1D2327"/>
<path d="M293.89 393.662C292.065 392.542 289.783 392.476 287.858 391.549C285.845 390.577 284.067 389.245 282.161 388.118C279.555 386.567 278.139 385.866 275.824 387.601C273.267 389.512 271.344 388.954 268.306 387.582C267.396 387.172 266.598 388.516 267.511 388.938C269.258 389.916 271.226 390.429 273.227 390.431C276.036 390.208 276.405 388.671 277.88 388.221C278.849 387.925 279.896 388.645 280.71 389.093C283.14 390.722 285.685 392.173 288.325 393.434C289.971 394.062 292.047 394.112 293.46 395.235C294.703 396.223 292.532 396.765 291.775 396.845C290.405 396.988 272.914 397.005 270.691 396.864C267.13 396.638 267.697 395.387 266.93 388.454C266.93 388.338 266.884 388.227 266.803 388.146C266.721 388.064 266.61 388.018 266.494 388.018C266.379 388.018 266.268 388.064 266.186 388.146C266.104 388.227 266.058 388.338 266.058 388.454C265.859 390.899 266.016 393.359 266.524 395.759C267.613 399.195 271.8 398.499 286.833 398.471C290.526 398.471 292.449 398.571 293.907 397.853C295.766 396.929 296.199 395.077 293.89 393.662Z" fill="#1D2327"/>
<path d="M226.624 388.471C226.545 390.72 226.266 392.957 225.79 395.156C225.185 397.189 222.67 396.9 220.985 396.92C216.275 396.975 204.726 396.939 203.659 396.939C202.514 397.05 201.359 396.891 200.287 396.474C198.949 395.785 200.423 394.942 201.217 394.634C202.082 394.341 202.962 394.094 203.854 393.896C207.69 392.872 210.502 390.044 214.066 388.49C214.554 388.259 215.104 388.19 215.634 388.295C216.165 388.399 216.647 388.671 217.011 389.071C219.941 391.311 222.655 390.494 226.043 388.936C226.956 388.516 226.157 387.186 225.248 387.578C218.504 390.508 218.552 387.263 215.965 386.65C212.941 385.931 208.405 390.837 203.95 392.211C202.942 392.521 201.896 392.698 200.907 393.072C199.378 393.637 197.116 395.14 198.486 396.988C199.825 398.787 202.749 398.463 204.705 398.478C210.113 398.525 215.539 398.568 220.945 398.421C222.941 398.366 225.612 398.476 226.72 396.445C227.185 395.313 227.423 394.101 227.418 392.878C227.571 391.416 227.577 389.943 227.437 388.48C227.438 388.426 227.428 388.373 227.408 388.324C227.388 388.274 227.358 388.229 227.321 388.191C227.284 388.153 227.239 388.122 227.19 388.101C227.141 388.08 227.088 388.069 227.035 388.069C226.981 388.068 226.928 388.078 226.879 388.098C226.829 388.118 226.784 388.147 226.746 388.185C226.708 388.222 226.677 388.267 226.656 388.316C226.635 388.365 226.624 388.418 226.624 388.471Z" fill="#1D2327"/>
<path d="M239.201 215.783C239.943 215.914 239.852 216.075 240.305 216.171C241.036 216.325 241.26 214.856 239.22 215.28C239.163 215.293 239.113 215.323 239.076 215.368C239.039 215.412 239.018 215.467 239.016 215.525C239.014 215.582 239.031 215.639 239.064 215.686C239.098 215.732 239.146 215.767 239.201 215.783Z" fill="#1D2327"/>
<path d="M236.236 197.551C236.013 197.765 235.847 198.031 235.752 198.325C235.658 198.619 235.637 198.932 235.693 199.236C235.725 199.487 235.83 199.723 235.995 199.915C236.16 200.106 236.377 200.246 236.62 200.316C236.863 200.386 237.121 200.384 237.362 200.309C237.604 200.235 237.818 200.091 237.98 199.896C238.254 199.55 238.405 199.121 238.409 198.679C238.412 198.236 238.268 197.805 237.998 197.454C238.281 197.263 238.498 196.989 238.62 196.67C238.741 196.351 238.761 196.002 238.677 195.671C238.706 195.475 238.686 195.276 238.619 195.09C238.619 195.071 238.638 195.071 238.638 195.05C238.75 194.859 238.807 194.64 238.804 194.418C238.8 194.196 238.736 193.979 238.619 193.791C238.447 193.52 237.961 193.365 237.728 193.675C237.57 193.843 237.463 194.051 237.418 194.277C237.354 194.304 237.295 194.343 237.245 194.392C236.923 194.52 236.648 194.746 236.461 195.038C236.273 195.33 236.182 195.674 236.199 196.021C236.141 196.245 236.133 196.48 236.177 196.707C236.22 196.935 236.314 197.15 236.451 197.337C236.374 197.404 236.303 197.475 236.236 197.551Z" fill="#1D2327"/>
<path d="M239.988 196.583C239.471 197.842 239.717 199.814 241.229 199.664C242.836 199.504 242.836 197.163 241.83 196.254C242.533 195.268 241.846 193.841 240.86 193.927C240.841 193.869 240.803 193.831 240.782 193.772C240.655 193.412 240.181 193.403 239.931 193.481C239.464 193.627 239.393 194.267 239.586 194.644C239.427 194.966 239.381 195.331 239.453 195.682C239.526 196.034 239.714 196.351 239.988 196.583Z" fill="#1D2327"/>
<path d="M243.134 195.883C243.178 195.926 243.231 195.959 243.289 195.979C243.283 196.298 243.35 196.613 243.485 196.902C243.619 197.19 243.817 197.445 244.064 197.646C243.132 199.414 243.943 200.665 244.974 200.611C246.242 200.546 247.183 197.982 246.292 197.006C246.697 195.736 245.494 194.58 244.142 194.545C243.907 193.92 242.691 194.02 242.61 194.623C242.501 195.173 242.599 195.704 243.134 195.883Z" fill="#1D2327"/>
<path d="M246.333 201.636C246.175 201.917 246.079 202.228 246.053 202.549C246.026 202.87 246.069 203.193 246.178 203.496C246.905 205.069 249.452 203.766 248.716 201.636C248.919 201.46 249.077 201.237 249.176 200.987C249.275 200.737 249.313 200.467 249.286 200.199C249.26 199.932 249.169 199.674 249.023 199.449C248.876 199.223 248.678 199.036 248.444 198.903C248.49 198.687 248.463 198.462 248.367 198.264C248.284 198.11 248.153 197.989 247.994 197.918C247.834 197.848 247.656 197.833 247.487 197.875C247.318 197.917 247.168 198.015 247.061 198.152C246.953 198.289 246.895 198.458 246.895 198.633C246.897 198.764 246.925 198.893 246.978 199.013C247.032 199.133 247.109 199.241 247.205 199.331C247.014 199.577 246.886 199.867 246.832 200.174C246.778 200.481 246.8 200.797 246.895 201.094C246.69 201.255 246.501 201.437 246.333 201.636Z" fill="#1D2327"/>
<path d="M248.502 204.12C248.192 204.425 247.962 204.803 247.833 205.219C247.705 205.635 247.682 206.076 247.766 206.503C247.366 206.934 247.15 207.504 247.165 208.092C247.18 208.303 247.259 208.503 247.392 208.668C247.524 208.832 247.704 208.951 247.907 209.011C248.109 209.07 248.325 209.065 248.525 208.998C248.725 208.931 248.9 208.804 249.026 208.635C249.173 208.407 249.266 208.15 249.299 207.881C249.333 207.613 249.305 207.34 249.219 207.084C249.55 206.808 249.78 206.429 249.871 206.007C249.963 205.586 249.911 205.146 249.724 204.757C249.752 204.69 249.767 204.618 249.767 204.545C249.767 204.472 249.752 204.399 249.724 204.332C249.865 203.622 248.786 202.986 248.502 204.12Z" fill="#1D2327"/>
<path d="M249.219 209.949C249.258 210.27 249.378 210.576 249.566 210.839C249.755 211.102 250.006 211.314 250.298 211.455C250.589 211.595 250.911 211.661 251.235 211.645C251.558 211.629 251.872 211.532 252.148 211.363C252.615 210.996 252.11 210.297 251.605 210.414C250.828 210.595 250.621 210.328 249.882 209.552C249.82 209.487 249.738 209.445 249.649 209.433C249.56 209.421 249.469 209.44 249.392 209.486C249.315 209.532 249.256 209.603 249.225 209.687C249.193 209.771 249.191 209.863 249.219 209.949Z" fill="#1D2327"/>
<path d="M250.501 213.186C250.101 212.93 249.731 212.631 249.396 212.295C249.063 212.008 248.467 212.392 248.757 212.799C249.025 213.237 249.33 213.652 249.668 214.039C249.846 214.241 250.094 214.366 250.362 214.387C250.629 214.409 250.895 214.325 251.102 214.155C251.163 214.088 251.206 214.008 251.227 213.921C251.248 213.833 251.247 213.742 251.224 213.655C251.201 213.568 251.156 213.489 251.094 213.424C251.032 213.359 250.955 213.31 250.869 213.283C250.751 213.235 250.627 213.203 250.501 213.186Z" fill="#1D2327"/>
<path d="M236.713 204.797C237.194 205.11 237.625 204.348 237.158 204.021C236.579 203.613 235.36 203.52 234.95 204.214C234.924 204.263 234.91 204.317 234.91 204.373C234.91 204.428 234.925 204.483 234.952 204.532C234.979 204.58 235.018 204.621 235.065 204.65C235.112 204.68 235.165 204.697 235.221 204.7C235.652 204.666 235.982 204.314 236.713 204.797Z" fill="#1D2327"/>
<path d="M241.838 204.113C241.786 204.17 241.753 204.242 241.744 204.319C241.736 204.395 241.752 204.473 241.79 204.54C241.829 204.607 241.887 204.66 241.958 204.691C242.029 204.723 242.107 204.731 242.183 204.715C242.473 204.623 242.772 204.558 243.074 204.52C243.384 204.52 243.656 204.675 243.966 204.675C244.042 204.673 244.115 204.649 244.177 204.606C244.239 204.563 244.287 204.503 244.315 204.434C244.344 204.364 244.352 204.288 244.338 204.213C244.324 204.139 244.289 204.071 244.237 204.017C243.886 203.757 243.457 203.625 243.02 203.642C242.584 203.66 242.167 203.826 241.838 204.113Z" fill="#1D2327"/>
<path d="M231.856 211.347C232.42 211.214 232.282 210.518 231.856 210.339C231.64 210.266 231.453 210.124 231.323 209.935C231.194 209.747 231.129 209.521 231.14 209.293C231.15 208.75 231.51 208.603 231.974 208.431C232.062 208.403 232.139 208.347 232.194 208.272C232.249 208.197 232.278 208.107 232.278 208.014C232.278 207.921 232.249 207.831 232.194 207.756C232.139 207.681 232.062 207.625 231.974 207.597C230.962 207.182 230.035 208.372 230.016 209.284C229.997 210.196 230.754 211.605 231.856 211.347Z" fill="#1D2327"/>
<path d="M246.914 270.494C243.418 271.696 239.835 272.629 236.197 273.284C226.319 274.849 212.567 273.246 206.8 265.203C204.875 262.389 203.776 259.093 203.627 255.687C209.687 253.553 216.057 252.427 222.481 252.354C223.083 252.354 223.739 252.241 224.169 252.699C224.798 253.38 225.297 255.331 226.126 255.529C227.021 255.744 226.126 254.974 231.803 253.633C238.321 252.233 245.044 252.075 251.621 253.168C256.749 253.977 261.795 255.246 266.696 256.959C271.419 259.294 272.038 261.171 273.518 261.417C273.572 261.431 273.628 261.431 273.682 261.417C273.736 261.402 273.785 261.374 273.824 261.335C273.863 261.296 273.891 261.247 273.906 261.193C273.92 261.14 273.92 261.083 273.906 261.029C273.565 260.232 272.999 259.552 272.278 259.072C270.703 257.636 268.849 256.541 266.832 255.854C266.832 255.312 266.739 255.491 267.004 255.429C272.539 254.181 278.219 253.705 283.884 254.014C283.988 254.014 284.092 253.994 284.188 253.954C284.285 253.914 284.372 253.856 284.446 253.782C284.52 253.708 284.578 253.62 284.618 253.524C284.658 253.427 284.679 253.324 284.678 253.22C283.436 243.99 278.999 235.488 272.14 229.19C266.237 223.407 258.595 218.88 250.106 218.899C249.128 218.841 248.147 218.94 247.2 219.19C247.102 217.136 247.102 215.081 247.2 213.027C247.579 212.986 247.94 212.849 248.251 212.628C248.561 212.408 248.811 212.113 248.976 211.77C249.14 211.427 249.215 211.047 249.192 210.667C249.169 210.287 249.05 209.919 248.846 209.598C248.688 209.388 248.343 209.558 248.343 209.81C248.343 210.935 248.033 212.05 246.676 211.981C246.534 211.985 246.398 212.043 246.296 212.144C246.195 212.245 246.137 212.381 246.134 212.524C245.942 214.813 245.922 217.112 246.075 219.403C246.078 219.507 246.111 219.608 246.17 219.694C246.228 219.78 246.31 219.847 246.406 219.888C245.984 220.208 245.52 220.469 245.027 220.663C243.178 221.525 239.513 222.407 237.702 220.856C237.752 220.815 237.793 220.762 237.819 220.702C237.846 220.642 237.859 220.577 237.857 220.512C237.867 219.891 237.877 219.29 237.857 218.69C238.029 218.706 241.762 218.978 242.703 218.902C243.206 218.862 243.392 218.07 242.837 217.973C239.563 217.41 234.863 218.731 233.574 214.62C233.186 212.842 233.154 211.004 233.478 209.214C233.583 208.081 234.274 203.363 233.845 202.934C234.348 202.551 234.696 201.999 234.824 201.379C234.952 200.76 234.852 200.115 234.543 199.563C234.954 199.002 235.165 198.32 235.144 197.625C235.415 197.446 235.625 197.189 235.746 196.889C236.145 195.944 235.646 195.307 235.067 195.455C234.832 195.51 234.616 195.627 234.442 195.794C234.268 195.961 234.142 196.172 234.077 196.405C234.021 196.405 233.943 196.386 233.884 196.384C233.531 196.414 233.199 196.566 232.945 196.813C232.691 197.06 232.529 197.388 232.489 197.74C232.383 198.358 232.402 198.991 232.547 199.601C231.379 200.635 231.613 203.048 233.264 203.048C233.034 204.132 232.892 205.234 232.838 206.341C232.261 211.816 231.115 217.672 237.081 218.59C237.004 219.054 236.947 219.54 236.909 220.003C236.827 219.95 236.734 219.915 236.637 219.902C236.539 219.888 236.441 219.896 236.347 219.926C236.128 220.02 236.175 219.912 234.119 219.869C231.022 219.667 227.917 220.093 224.99 221.122C222.062 222.152 219.373 223.762 217.084 225.857C210.019 232.051 205.209 239.271 202.066 254.945C201.964 255.448 202.395 256.049 202.957 255.835C202.977 255.835 202.996 255.817 203.015 255.817C202.326 260.506 205.411 267.576 212.221 271.126C220.934 275.669 231.382 275.9 241.038 273.528C243.21 273.085 245.328 272.41 247.355 271.514C248 271.288 247.554 270.339 246.914 270.494Z" fill="#1D2327"/>
<path d="M284.061 254.386C284.031 254.292 283.969 254.213 283.886 254.161C283.802 254.109 283.703 254.088 283.606 254.102C283.509 254.116 283.42 254.163 283.354 254.236C283.289 254.309 283.251 254.403 283.248 254.501C283.115 258.039 284.542 263.443 281.756 268.029C280.53 269.8 278.903 271.255 277.006 272.276C275.11 273.296 272.999 273.853 270.846 273.9C265.633 274.233 260.401 272.582 255.536 270.878C246.044 267.55 247.202 265.656 235.265 259.037C232.999 257.527 230.435 256.522 227.746 256.09C226.712 256.006 226.712 257.605 227.746 257.7C230.48 258.235 233.073 259.331 235.363 260.917C246.614 267.207 245.308 269.08 255.731 272.603C260.728 274.291 266.119 275.923 271.466 275.411C273.59 275.287 275.663 274.709 277.545 273.716C279.427 272.723 281.074 271.339 282.376 269.656C285.207 265.627 285.309 258.584 284.061 254.386Z" fill="#1D2327"/>
<path d="M222.729 261.075C222.605 261.402 222.922 261.663 223.194 261.695C224.121 261.811 225.155 260.851 225.965 260.456C226.977 259.962 227.999 259.447 229.026 258.983C229.413 258.811 229.124 258.266 228.755 258.325C227.573 258.508 226.42 258.846 225.326 259.331C224.437 259.729 223.099 260.1 222.729 261.075Z" fill="#1D2327"/>
<path d="M77.016 277.625C77.1728 278.009 77.3606 277.969 77.3606 278.071C81.2132 276.964 85.1664 276.243 89.1617 275.919C89.1617 275.512 89.1807 275.086 89.2014 274.679C89.2036 274.605 89.229 274.533 89.2742 274.474C89.3193 274.415 89.3818 274.372 89.453 274.35C90.8893 273.915 92.3939 273.75 93.8904 273.864C94.0834 273.888 94.0851 274.209 93.8904 274.252C92.5376 274.504 91.1969 274.597 89.8596 274.931C89.7833 275.927 89.8226 276.929 89.9768 277.916C91.4485 277.857 92.9219 277.776 94.4143 277.721C95.3156 277.688 95.1312 277.881 95.1312 273.885C95.1312 273.798 95.1659 273.714 95.2276 273.652C95.2893 273.591 95.373 273.556 95.4603 273.556C95.5476 273.556 95.6313 273.591 95.6931 273.652C95.7548 273.714 95.7895 273.798 95.7895 273.885C95.7895 274.485 95.8084 275.067 95.8084 275.667C99.8412 275.735 103.858 276.189 107.804 277.023C107.656 276.651 107.506 277.023 108.387 274.912C109.345 272.617 102.011 273.706 96.0032 267.276C95.8969 267.173 95.7597 267.108 95.6128 267.091C95.4658 267.073 95.3172 267.105 95.1898 267.18C89.1299 270.188 82.6686 272.309 76.0044 273.477C75.9203 273.5 75.8416 273.539 75.7727 273.592C75.7038 273.646 75.6461 273.712 75.6029 273.788C75.5597 273.863 75.5318 273.947 75.5209 274.033C75.5099 274.12 75.5161 274.208 75.5391 274.292C76.0044 275.445 76.5576 276.498 77.016 277.625Z" fill="#1D2327"/>
<path d="M121.298 338.454C120.054 327.613 117.462 307.318 114.844 296.635C113.265 289.974 110.953 283.507 107.951 277.354C107.953 277.414 107.941 277.475 107.917 277.531C107.892 277.586 107.855 277.636 107.808 277.675C107.761 277.714 107.706 277.742 107.647 277.757C107.588 277.772 107.527 277.773 107.467 277.76C103.625 276.976 99.7204 276.541 95.8002 276.461C95.8002 277.473 95.914 278.07 95.3556 278.322C94.5374 278.517 93.6924 278.576 92.8552 278.494C89.7722 278.632 89.4448 278.751 89.3862 278.379C89.2966 277.815 89.2138 277.254 89.1725 276.673C85.1052 277.019 81.0776 277.733 77.1388 278.805C75.5206 284.305 73.9524 291.364 72.8943 297.001C70.1371 311.711 66.9214 340.128 66.0529 352.503C65.1253 363.054 65.5306 373.68 67.2592 384.13C67.2863 384.232 67.34 384.325 67.4147 384.4C67.4895 384.475 67.5827 384.529 67.6848 384.556C70.2012 385.289 72.8211 385.604 75.4396 385.486C76.3702 385.462 76.751 385.078 76.8355 384.149C77.7003 376.652 79.1716 369.238 81.235 361.979C85.4054 345.349 89.8411 327.648 95.8071 310.858C96.1518 312.236 113.074 382.49 113.519 384.925C113.548 385.031 113.604 385.129 113.683 385.207C113.761 385.286 113.859 385.342 113.965 385.371C116.888 385.785 119.867 385.512 122.666 384.575C122.796 384.535 122.91 384.456 122.994 384.348C123.077 384.241 123.125 384.111 123.132 383.975C123.878 368.777 123.264 353.543 121.298 338.454Z" fill="#1D2327"/>
<path d="M252.3 276.113C250.06 276.321 249.634 276.366 249.529 275.996C248.715 275.977 247.881 275.996 247.068 276.035V278.012H247.028C247.011 278.279 246.956 279.098 247.223 279.098C247.416 279.242 247.178 279.175 251.137 279.175C251.292 279.175 251.855 279.272 251.998 279.175C252.193 279.02 252.129 278.98 252.171 278.729C252.205 278.534 252.229 278.341 252.248 278.148C252.242 277.895 252.256 277.642 252.288 277.392C252.281 276.961 252.281 276.539 252.3 276.113Z" fill="#1D2327"/>
<path d="M231.468 278.281C234.783 277.035 241.849 277.188 246.389 277.247C246.389 276.743 246.41 276.24 246.41 275.735C246.414 275.649 246.45 275.568 246.511 275.507C246.572 275.446 246.653 275.41 246.739 275.406C247.853 275.343 248.971 275.4 250.072 275.578C250.934 275.444 251.795 275.461 252.657 275.385C252.747 275.39 252.832 275.427 252.896 275.491C252.96 275.555 252.998 275.64 253.002 275.73C252.962 276.292 252.943 276.854 252.905 277.417C254.696 277.481 262.728 277.907 263.543 277.998C263.521 277.974 263.495 277.954 263.466 277.939C263.543 277.65 263.619 277.378 263.698 277.086C263.73 276.967 263.732 276.841 263.703 276.721C263.675 276.6 263.616 276.489 263.534 276.396C263.451 276.304 263.347 276.234 263.23 276.192C263.113 276.151 262.988 276.139 262.866 276.157C260.431 275.31 256.812 275.296 250.985 272.456C250.558 272.246 249.824 271.689 249.319 271.699C248.854 271.71 248.285 272.216 247.904 272.437C245.512 273.756 242.886 274.598 240.172 274.917C237.382 275.251 234.647 275.859 231.859 276.195C231.753 276.196 231.649 276.222 231.555 276.269C231.461 276.317 231.379 276.385 231.315 276.469C231.251 276.554 231.208 276.651 231.188 276.755C231.168 276.859 231.172 276.966 231.2 277.067C231.32 277.465 231.409 277.87 231.468 278.281Z" fill="#1D2327"/>
<path d="M263.929 278.864C262.722 278.845 260.205 278.46 252.9 278.185C252.9 280.144 252.869 279.851 249.644 279.851C248.236 279.851 246.923 280.023 246.582 279.58C246.279 279.188 246.446 278.305 246.446 278.011C237.83 277.88 235.762 277.926 231.428 278.883C223.447 312.071 215.489 349.12 215.361 383.162C215.369 383.412 215.471 383.649 215.648 383.825C215.824 384.002 216.061 384.104 216.311 384.112C219.664 384.253 223.016 384.442 226.37 384.575C226.518 384.573 226.663 384.538 226.795 384.472C226.927 384.405 227.043 384.31 227.132 384.192C227.222 384.074 227.284 383.938 227.313 383.793C227.342 383.648 227.338 383.498 227.3 383.355C227.018 383.074 234.998 343.537 247.118 306.576C250.637 318.77 253.896 331.023 256.894 343.337C267.732 387.798 264.678 384.704 267.146 385.7C268.411 385.973 269.725 385.92 270.963 385.545C274.227 385.075 277.35 385.328 277.339 381.999C277.262 355.726 272.618 313.615 263.929 278.864ZM227.223 383.259C227.202 383.2 227.223 383.162 227.223 383.259V383.259Z" fill="#1D2327"/>
<path d="M248.232 146.913C247.636 146.564 246.965 146.364 246.275 146.33C246.484 144.985 246.562 143.622 246.507 142.262C246.5 142.138 246.446 142.022 246.355 141.937C246.265 141.852 246.146 141.805 246.022 141.805C245.898 141.805 245.779 141.852 245.689 141.937C245.599 142.022 245.545 142.138 245.537 142.262C245.365 143.618 245.208 144.955 244.996 146.311C244.079 146.362 243.166 146.472 242.263 146.641C241.72 146.735 241.875 147.556 242.378 147.571C243.154 147.595 243.929 147.649 244.705 147.743C244.401 148.702 244.263 149.705 244.298 150.709C244.336 151.001 244.741 151.288 244.975 150.98C245.571 150.052 245.936 148.996 246.042 147.899C246.712 148.034 247.397 148.073 248.077 148.016C248.62 147.94 248.622 147.161 248.232 146.913Z" fill="#ADDE34"/>
<path d="M108.236 109.26C107.249 109.58 106.07 110.395 105.522 110.578C105.155 109.706 104.843 108.813 104.457 107.96C104.185 107.361 103.373 107.826 103.468 108.388C103.65 109.325 103.93 110.24 104.302 111.119C103.896 111.274 103.47 111.436 103.024 111.565C102.911 111.599 102.817 111.676 102.76 111.778C102.703 111.88 102.688 112.001 102.718 112.114C102.749 112.227 102.822 112.324 102.922 112.384C103.022 112.445 103.142 112.464 103.256 112.437C103.721 112.341 104.206 112.244 104.69 112.108C104.971 112.86 105.422 113.537 106.008 114.085C106.075 114.144 106.158 114.18 106.247 114.189C106.335 114.197 106.424 114.178 106.501 114.132C106.578 114.087 106.638 114.019 106.673 113.937C106.709 113.856 106.717 113.765 106.698 113.678C106.56 112.974 106.318 112.295 105.981 111.662C107.012 111.293 107.923 110.65 108.617 109.802C108.857 109.551 108.526 109.182 108.236 109.26Z" fill="#ADDE34"/>
<path d="M194.434 123.584C193.852 123.54 193.268 123.559 192.69 123.643C192.73 123.022 192.776 122.4 192.863 121.781C192.949 121.163 192.047 120.891 191.913 121.53C191.751 122.292 191.628 123.061 191.546 123.836C191.081 123.913 190.634 124.008 190.209 124.068C189.626 124.158 189.762 125.168 190.345 125.102C190.689 125.061 191.062 125.025 191.449 124.987C191.365 125.305 191.36 125.639 191.434 125.96C191.508 126.281 191.66 126.578 191.875 126.827C191.936 126.883 192.016 126.914 192.098 126.914C192.181 126.914 192.261 126.883 192.321 126.827C192.838 126.31 192.651 125.549 192.651 124.851C193.295 124.776 193.926 124.62 194.531 124.385C194.63 124.365 194.718 124.308 194.778 124.225C194.837 124.143 194.863 124.041 194.851 123.94C194.839 123.839 194.789 123.747 194.712 123.681C194.635 123.615 194.536 123.58 194.434 123.584Z" fill="#ADDE34"/>
<path d="M166.576 139.025C165.927 139.019 165.279 139.071 164.639 139.18C164.349 138.328 164.038 137.475 163.709 136.621C163.493 136.061 162.606 136.292 162.799 136.875C163.073 137.707 163.316 138.541 163.573 139.373C162.933 139.51 162.313 139.659 161.732 139.761C160.898 139.909 161.246 140.861 162.077 140.711C162.639 140.611 163.259 140.538 163.879 140.44C164.01 141.468 164.368 142.454 164.927 143.327C164.972 143.37 165.027 143.401 165.087 143.418C165.147 143.434 165.21 143.434 165.271 143.418C165.331 143.403 165.386 143.372 165.431 143.328C165.476 143.285 165.509 143.231 165.527 143.172C165.607 142.172 165.42 141.169 164.984 140.266C165.615 140.163 166.233 139.99 166.826 139.749C167.324 139.587 167.073 139.043 166.576 139.025Z" fill="#ADDE34"/>
<path d="M144.825 77.1432C143.982 77.0386 143.127 77.0519 142.287 77.1828C142.111 75.9459 141.799 74.7323 141.356 73.5639C141.16 73.0469 140.352 73.252 140.524 73.7965C140.871 74.9188 141.102 76.0737 141.213 77.2431C140.362 77.2638 139.49 77.2431 138.628 77.2052C137.949 77.1707 137.97 78.2099 138.628 78.2512C139.5 78.3064 140.391 78.3477 141.263 78.3288C141.177 79.5224 141.171 80.7205 141.244 81.915C141.267 81.9827 141.308 82.0428 141.362 82.0886C141.417 82.1344 141.483 82.164 141.554 82.174C141.625 82.184 141.697 82.1741 141.762 82.1454C141.827 82.1167 141.883 82.0703 141.923 82.0115C142.48 80.8555 142.65 79.5509 142.408 78.2909C143.267 78.3057 144.12 78.1334 144.906 77.786C144.964 77.7499 145.011 77.698 145.04 77.6365C145.069 77.5749 145.08 77.5063 145.072 77.4386C145.063 77.371 145.035 77.3072 144.992 77.2549C144.948 77.2025 144.89 77.1638 144.825 77.1432Z" fill="#ADDE34"/>
<path d="M252.378 216.251C251.958 216.487 251.498 216.644 251.022 216.716C258.385 216.871 265.187 220.378 270.827 225.067C270.459 215.491 269.764 206.078 268.618 196.988C267.252 186.147 265.79 172.817 258.192 165.729C249.665 157.776 236.689 158.471 225.674 158.319C219.859 158.243 111.318 158.124 99.6326 158.455C94.152 158.447 88.7198 159.48 83.625 161.5C72.8373 166.177 69.9473 175.917 68.0448 187.467C65.9049 201.13 64.662 214.919 64.3242 228.744C69.9301 223.6 76.9352 218.941 84.5746 218.687C83.0908 215.916 83.4803 212.828 83.7026 210.043C83.5978 209.446 83.6513 208.832 83.8577 208.261C83.9352 207.331 84.03 206.419 84.1093 205.49C82.4714 204.22 81.3442 202.404 80.933 200.373C80.5218 198.342 80.854 196.23 81.869 194.423C84.1524 190.555 89.8306 189.362 94.4645 193.088C95.4743 193.898 96.2085 195.083 97.2562 195.819C97.7732 196.188 98.4763 195.919 99.0571 195.838C100.205 195.609 101.396 195.753 102.456 196.249C103.516 196.745 104.39 197.567 104.949 198.596C106.529 201.584 105.785 206.276 104.678 209.452C105.388 210.488 105.658 211.764 105.429 212.999C105.2 214.234 104.491 215.328 103.457 216.04C103.476 216.719 103.476 217.378 103.496 218.057C105.882 217.927 108.271 218.229 110.55 218.948C124.982 222.711 133.256 233.856 135.472 248.035C135.919 251.347 136.03 254.696 135.801 258.03C135.801 258.136 135.78 258.241 135.739 258.339C135.698 258.437 135.638 258.526 135.562 258.6C135.486 258.674 135.395 258.732 135.297 258.77C135.198 258.809 135.092 258.827 134.986 258.824C133.5 271.325 125.282 279.218 110.472 275.704C110.376 275.956 110.277 276.188 110.181 276.44C113.411 283.16 115.863 290.228 117.488 297.505C120.097 308.695 123.259 333.508 124.289 344.015C150.792 344.015 168.309 343.558 168.493 343.376C184.789 343.881 199.675 344.194 216.242 343.919C219.242 321.804 224.116 299.833 229.131 278.223C229.072 277.932 228.995 277.641 228.936 277.362C215.753 277.202 202.813 272.049 200.624 259.048C200.452 259.107 200.279 259.181 200.107 259.241C199.483 259.464 198.984 258.797 199.099 258.235C201.877 244.75 204.284 234.352 215.107 224.612C219.453 220.399 225.2 217.935 231.249 217.693C230.402 216.333 229.922 214.778 229.854 213.178C229.126 212.764 228.53 212.153 228.133 211.415C227.737 210.677 227.557 209.842 227.614 209.006C227.67 208.17 227.962 207.368 228.454 206.69C228.946 206.012 229.62 205.487 230.397 205.175C230.435 204.729 230.494 204.263 230.532 203.819C230.051 203.233 229.754 202.518 229.679 201.765C229.647 200.711 229.832 199.661 230.222 198.682C230.546 197.515 230.353 195.668 232.276 194.632C232.572 194.16 232.976 193.766 233.456 193.483C233.936 193.2 234.477 193.036 235.033 193.005C235.052 192.985 235.073 192.947 235.092 192.928C235.178 192.801 235.297 192.7 235.436 192.636C236.244 191.335 237.239 191.179 239.41 190.253C239.519 190.193 239.64 190.157 239.764 190.15C239.889 190.142 240.013 190.162 240.128 190.208C240.244 190.255 240.348 190.326 240.432 190.418C240.517 190.509 240.58 190.618 240.616 190.737C240.742 191.291 240.337 190.494 242.186 191.551C242.826 191.158 243.22 191.702 243.658 191.823C244.336 191.779 245.016 191.786 245.693 191.842C245.908 191.846 246.112 191.933 246.264 192.085C246.416 192.236 246.503 192.441 246.507 192.655V192.828C247.022 193.128 247.472 193.527 247.832 194.003C248.191 194.479 248.452 195.021 248.6 195.599C249.1 195.733 249.558 195.992 249.93 196.352C250.303 196.711 250.579 197.158 250.732 197.653C251.192 198.263 251.488 198.981 251.59 199.738C251.691 200.495 251.596 201.265 251.313 201.975C251.642 202.287 251.897 202.667 252.061 203.089C252.225 203.512 252.294 203.965 252.262 204.417C252.357 205.624 252.151 206.836 251.663 207.944C251.823 207.962 251.975 208.023 252.101 208.123C252.228 208.222 252.324 208.355 252.38 208.506C252.46 208.601 252.518 208.713 252.548 208.834C252.579 208.955 252.581 209.081 252.554 209.203C252.528 209.325 252.474 209.439 252.396 209.537C252.319 209.634 252.22 209.713 252.107 209.766C252.69 210.501 253.272 211.238 253.853 211.975C254.635 212.973 253.284 213.698 252.05 213.952C252.283 214.339 252.535 214.727 252.767 215.115C252.847 215.32 252.852 215.546 252.781 215.754C252.709 215.962 252.567 216.138 252.378 216.251ZM93.0428 167.783C90.8048 168.209 88.6745 169.078 86.7775 170.339C84.8804 171.601 83.2549 173.229 81.9965 175.128C80.0253 178.309 78.917 181.95 78.7809 185.69C78.8504 186.895 78.6745 188.101 78.2639 189.236C78.1915 189.36 78.0881 189.462 77.964 189.533C77.84 189.604 77.6995 189.641 77.5565 189.641C77.4135 189.641 77.273 189.604 77.1489 189.533C77.0248 189.462 76.9214 189.36 76.8491 189.236C76.28 187.966 76.111 186.553 76.3648 185.185C77.0817 175.159 83.1649 166.31 93.0497 166.794C93.1737 166.805 93.2889 166.863 93.3726 166.955C93.4563 167.047 93.5022 167.167 93.5014 167.292C93.5005 167.416 93.4529 167.536 93.3679 167.627C93.283 167.718 93.1669 167.774 93.0428 167.783ZM129.697 174.547C129.599 175.022 129.416 175.475 129.156 175.884C128.997 176.115 128.56 176.134 128.496 175.807C128.411 175.245 128.437 174.672 128.574 174.12C127.993 173.868 127.436 173.603 126.869 173.325C126.504 173.153 126.773 172.588 127.14 172.686C127.703 172.838 128.244 173.015 128.787 173.189C128.98 172.317 129.206 171.466 129.464 170.594C129.607 170.111 130.44 170.187 130.376 170.709C130.285 171.673 130.136 172.631 129.93 173.577C130.829 174.032 130.612 174.731 129.697 174.547ZM167.401 165.67C168.04 165.703 168.68 165.691 169.319 165.67C169.241 165.071 169.119 164.49 168.99 163.908C168.971 163.815 168.988 163.719 169.038 163.638C169.087 163.558 169.166 163.499 169.257 163.474C169.348 163.45 169.445 163.46 169.529 163.505C169.612 163.549 169.676 163.623 169.707 163.713C169.911 164.343 170.074 164.985 170.194 165.636C171.394 165.553 172.598 165.54 173.799 165.596C173.856 165.599 173.909 165.621 173.95 165.659C173.992 165.697 174.018 165.748 174.025 165.804C174.032 165.86 174.019 165.916 173.989 165.964C173.958 166.011 173.912 166.045 173.858 166.062C172.728 166.413 171.553 166.602 170.37 166.623C170.408 166.837 170.427 167.07 170.448 167.283C170.677 168.391 170.618 169.539 170.275 170.616C170.156 170.866 169.826 170.773 169.732 170.539C169.521 169.245 169.424 167.934 169.443 166.623C168.764 166.604 168.087 166.561 167.408 166.508C166.858 166.461 166.858 165.636 167.401 165.67ZM173.699 229.57C174.373 251.252 176.801 279.948 178.621 295.208C179.311 301.041 180.403 306.835 180.986 312.687C181.004 312.88 180.813 313.018 180.641 313.032C176.265 313.47 171.861 313.149 167.501 313.518C163.845 313.804 160.173 313.83 156.513 313.596C156.341 313.575 156.146 313.441 156.168 313.251C156.832 306.373 159.91 268.118 160.721 255.866C161.285 247.359 161.755 238.87 162.253 230.361C150.738 228.293 145.219 217.283 147.642 206.526C149.086 196.055 159.265 187.079 170.353 188.309C180.45 189.429 189.056 197.746 189.383 208.075C189.581 212.903 188.139 217.656 185.291 221.559C182.443 225.462 178.357 228.286 173.699 229.57ZM209.918 183.081C209.505 183.393 209.048 183.641 208.562 183.817C208.961 184.748 209.247 185.724 209.415 186.724C209.454 187.149 208.853 187.241 208.658 186.936C208.186 186.039 207.822 185.09 207.574 184.108C207.076 184.206 206.57 184.263 206.063 184.28C205.52 184.299 205.546 183.51 206.063 183.467C206.479 183.424 206.893 183.359 207.302 183.272C207.031 182.44 206.773 181.588 206.526 180.753C206.368 180.212 207.148 180.036 207.341 180.52C207.672 181.352 207.981 182.186 208.272 183.039C208.756 182.903 209.239 182.765 209.725 182.633C209.78 182.622 209.837 182.63 209.887 182.656C209.937 182.682 209.976 182.724 209.999 182.776C210.021 182.827 210.026 182.885 210.011 182.939C209.996 182.993 209.963 183.041 209.918 183.074V183.081ZM239.472 168.643C239.043 168.68 238.611 168.648 238.192 168.547C238.115 169.075 237.931 169.583 237.651 170.037C237.614 170.088 237.565 170.127 237.508 170.152C237.452 170.177 237.389 170.186 237.327 170.178C237.266 170.171 237.207 170.146 237.158 170.108C237.109 170.07 237.072 170.019 237.049 169.961C236.897 169.433 236.858 168.878 236.934 168.333C236.468 168.255 236.024 168.173 235.555 168.081C234.936 167.959 235.21 167.047 235.807 167.132C236.215 167.187 236.641 167.228 237.087 167.287C237.222 166.608 237.375 165.95 237.473 165.391C237.571 164.833 238.507 164.983 238.443 165.526C238.38 166.069 238.366 166.766 238.307 167.464C238.774 167.546 239.229 167.683 239.663 167.871C240.091 168.059 239.841 168.581 239.47 168.636L239.472 168.643Z" fill="#ADDE34"/>
<path d="M102.385 199.141C101.164 197.762 99.4963 198.328 97.904 198.424C95.9653 198.541 94.9193 196.873 93.6785 195.653C91.3348 193.346 87.3695 192.134 84.6881 194.645C84.1365 195.263 83.7147 195.985 83.4476 196.769C83.1805 197.553 83.0736 198.382 83.1332 199.208C83.1929 200.034 83.4178 200.84 83.7947 201.577C84.1717 202.315 84.6929 202.969 85.3274 203.501C85.8242 203.89 86.3714 204.209 86.9542 204.45C86.6257 205.713 86.418 207.005 86.3338 208.307C86.1463 208.423 85.9879 208.58 85.8708 208.767C85.7537 208.953 85.6811 209.165 85.6586 209.384C85.6361 209.603 85.6643 209.824 85.7411 210.031C85.8178 210.238 85.941 210.424 86.1012 210.575C85.6305 212.728 85.7376 214.968 86.4114 217.067C86.7795 218.038 87.435 218.873 88.2903 219.462C89.1457 220.051 90.1603 220.365 91.1987 220.362C91.1608 220.749 91.1401 221.156 91.1211 221.544C91.1022 221.932 90.9712 222.392 91.2176 222.726C91.2406 222.759 91.2703 222.788 91.3049 222.809C91.3394 222.83 91.3781 222.844 91.4184 222.85C91.4586 222.855 91.4996 222.852 91.5386 222.841C91.5776 222.83 91.6139 222.811 91.645 222.785C91.9897 222.481 91.8966 221.969 91.8966 221.544C91.8969 221.162 91.8773 220.78 91.838 220.4C93.2339 220.458 94.6866 220.343 96.0428 220.343C96.1916 220.335 96.3316 220.27 96.4341 220.162C96.5365 220.053 96.5936 219.91 96.5936 219.761C96.5936 219.612 96.5365 219.469 96.4341 219.361C96.3316 219.252 96.1916 219.188 96.0428 219.179C91.8277 219.179 88.3604 219.967 87.2644 215.924C86.9501 214.354 86.8977 212.743 87.1093 211.156H87.1317C88.4121 211.583 91.3176 212.26 91.6123 210.284C91.6073 210.25 91.614 210.216 91.6312 210.187C91.8846 210.11 92.1741 210.032 92.4463 209.974C92.3481 211.428 92.2551 212.903 92.0776 214.354C92.0819 214.512 92.1467 214.662 92.2586 214.774C92.3706 214.886 92.521 214.95 92.679 214.954C93.4338 214.954 94.1713 215.126 94.9193 215.126C95.4035 215.126 95.6758 214.366 95.1915 214.137C94.6043 213.89 93.9727 213.766 93.3356 213.772C93.4717 212.533 93.5492 211.273 93.5872 210.032C93.7304 210.084 93.8622 210.163 93.9749 210.265C94.0273 210.321 94.0949 210.361 94.1696 210.38C94.4988 212.223 97.4042 211.578 98.626 211.156C100.522 210.501 100.394 208.785 99.1292 208.152C99.1292 208.133 99.1292 208.133 99.1499 208.114C99.9275 208.498 100.579 209.096 101.028 209.837C101.091 209.936 101.18 210.014 101.285 210.063C101.391 210.113 101.508 210.132 101.624 210.117C101.739 210.103 101.848 210.057 101.938 209.983C102.028 209.909 102.096 209.812 102.133 209.701C102.962 207.777 103.416 205.711 103.47 203.616C103.662 202.042 103.276 200.452 102.385 199.141ZM89.7494 209.47C89.5381 209.895 89.1896 210.237 88.7602 210.439C88.7026 210.452 88.6424 210.448 88.5868 210.429C88.5311 210.409 88.4823 210.373 88.4461 210.327C88.4099 210.28 88.3878 210.224 88.3824 210.165C88.377 210.106 88.3885 210.047 88.4156 209.994C88.6827 209.557 89.8562 208.931 89.7494 209.47ZM96.9579 209.16C96.5416 209.642 96.0345 210.037 95.4655 210.323C95.1743 210.435 95.0537 210.048 95.195 209.858C95.6088 209.412 96.1097 209.056 96.6667 208.812C96.8804 208.754 97.0751 208.986 96.9545 209.16H96.9579ZM98.3727 207.919C97.6623 207.786 96.9306 207.821 96.2358 208.02C95.5409 208.219 94.9019 208.577 94.3695 209.065C92.9151 208.235 93.8853 209.939 93.2839 205.752C93.2287 205.364 92.6652 205.5 92.6445 205.848C92.5871 206.837 92.5296 207.826 92.4722 208.814C92.1006 208.91 91.7501 209.074 91.4382 209.298C90.8781 208.176 88.6896 207.708 87.3678 207.919C87.4677 206.844 87.5005 205.763 87.466 204.683C88.7697 205.053 90.1212 205.227 91.4761 205.2C93.797 205.194 96.1149 205.032 98.4141 204.716C98.4684 205.784 98.4546 206.854 98.3727 207.919ZM102.209 203.439C102.155 205.091 101.848 206.724 101.299 208.283C100.905 207.854 100.447 207.488 99.9426 207.197C100.02 206.21 100.082 205.202 100.155 204.213C100.158 204.101 100.129 203.991 100.071 203.896C100.012 203.801 99.9275 203.725 99.8264 203.677C99.7253 203.63 99.6126 203.613 99.5021 203.63C99.3917 203.646 99.2884 203.694 99.2051 203.768C98.9207 203.411 98.7174 203.79 93.4114 203.961C91.6066 204.131 89.7862 204 88.0244 203.573C87.2174 203.359 86.4786 202.942 85.8781 202.362C85.2776 201.782 84.8354 201.058 84.5933 200.259C83.1509 195.227 88.4897 191.815 93.4303 197.101C94.2063 198.104 95.2107 198.909 96.3599 199.446C98.8501 200.356 102.414 197.07 102.209 203.444V203.439Z" fill="#1D2327"/>
<path d="M244.531 205.707C244.241 205.492 243.905 205.345 243.55 205.279C243.195 205.213 242.829 205.229 242.481 205.327C242.133 205.424 241.812 205.6 241.542 205.841C241.272 206.081 241.062 206.381 240.926 206.716C240.554 206.55 240.15 206.47 239.743 206.483C239.743 205.766 239.743 205.03 239.685 204.313C239.662 203.984 239.121 203.867 239.066 204.236C238.944 205.028 238.872 205.825 238.813 206.619C238.66 206.666 238.516 206.738 238.387 206.833C238.217 206.351 237.899 205.935 237.479 205.644C237.059 205.353 236.558 205.202 236.047 205.213C235.536 205.223 235.041 205.395 234.633 205.703C234.226 206.012 233.925 206.441 233.776 206.929C233.655 207.391 233.681 207.879 233.849 208.325C234.018 208.772 234.32 209.155 234.715 209.423C235.11 209.691 235.578 209.829 236.055 209.82C236.532 209.811 236.995 209.654 237.379 209.371C237.68 209.212 237.937 208.983 238.129 208.702C238.322 208.422 238.443 208.099 238.484 207.762C238.58 207.705 238.678 207.665 238.775 207.607C238.739 208.07 238.646 210.302 238.639 210.476C238.596 211.474 238.356 212.532 238.968 212.685C239.768 212.845 240.593 212.838 241.391 212.664C241.818 212.57 241.76 211.985 241.391 211.851C240.791 211.74 240.178 211.707 239.569 211.754C239.572 211.21 239.604 210.667 239.666 210.126C239.757 207.541 239.709 207.858 239.743 207.414C240.696 207.467 240.615 207.772 240.79 207.86C240.859 208.251 241.026 208.618 241.276 208.927C241.525 209.236 241.848 209.477 242.215 209.628C242.583 209.778 242.982 209.834 243.377 209.789C243.771 209.744 244.148 209.6 244.472 209.371C244.788 209.184 245.051 208.918 245.235 208.601C245.42 208.283 245.52 207.923 245.526 207.556C245.531 207.188 245.443 206.826 245.269 206.502C245.095 206.178 244.841 205.905 244.531 205.707ZM235.985 206.755C235.725 206.976 235.599 207.1 235.521 207.164C235.223 207.419 234.932 207.234 235.092 206.91C235.253 206.586 235.795 206.106 236.063 206.424C236.084 206.481 236.089 206.543 236.075 206.602C236.061 206.661 236.03 206.714 235.985 206.755ZM242.632 206.716C242.468 207 242.259 207.256 242.011 207.472C241.794 207.71 241.356 207.431 241.565 207.162C241.774 206.893 241.91 206.733 242.185 206.405C242.23 206.356 242.291 206.325 242.357 206.317C242.424 206.309 242.49 206.326 242.545 206.364C242.6 206.402 242.639 206.459 242.655 206.524C242.671 206.588 242.662 206.656 242.632 206.716Z" fill="#1D2327"/>
</svg>
