<svg width="33" height="32" viewBox="0 0 33 32" fill="none" xmlns="http://www.w3.org/2000/svg">
<g clip-path="url(#clip0_7645_42540)">
<path d="M16.2949 0C7.45173 0 0.294922 7.156 0.294922 16C0.294922 24.8431 7.45092 32 16.2949 32C25.1381 32 32.2949 24.844 32.2949 16C32.2949 7.15681 25.1389 0 16.2949 0ZM16.2949 29.7674C8.70355 29.7674 2.52748 23.5914 2.52748 16C2.52748 8.40856 8.70355 2.23256 16.2949 2.23256C23.8864 2.23256 30.0624 8.40856 30.0624 16C30.0624 23.5914 23.8864 29.7674 16.2949 29.7674Z" fill="#1D2327"/>
<path d="M15.8206 20.2472C14.936 20.2472 14.2199 20.9843 14.2199 21.8688C14.2199 22.7324 14.9149 23.4906 15.8206 23.4906C16.7262 23.4906 17.4422 22.7324 17.4422 21.8688C17.4422 20.9843 16.7051 20.2472 15.8206 20.2472ZM16.0943 7.96875C13.2511 7.96875 11.9453 9.65369 11.9453 10.7909C11.9453 11.6123 12.6403 11.9914 13.2089 11.9914C14.3463 11.9914 13.8829 10.3697 16.0311 10.3697C17.0841 10.3697 17.9266 10.8331 17.9266 11.8019C17.9266 12.9391 16.7472 13.592 16.0522 14.1817C15.4414 14.7081 14.6411 15.5717 14.6411 17.3829C14.6411 18.4781 14.936 18.794 15.7994 18.794C16.8314 18.794 17.042 18.3307 17.042 17.9304C17.042 16.8353 17.0631 16.2035 18.2214 15.2979C18.7901 14.8556 20.5802 13.4234 20.5802 11.4437C20.5802 9.46406 18.7901 7.96875 16.0943 7.96875Z" fill="#1D2327"/>
</g>
<defs>
<clipPath id="clip0_7645_42540">
<rect width="32" height="32" fill="white" transform="translate(0.294922)"/>
</clipPath>
</defs>
</svg>
