<svg width="150" height="150" viewBox="0 0 150 150" fill="none" xmlns="http://www.w3.org/2000/svg">
<path d="M93 49C93 58.9411 84.9411 67 75 67C65.0589 67 57 58.9411 57 49C57 39.0589 65.0589 31 75 31C84.9411 31 93 39.0589 93 49Z" fill="#D7EDD0"/>
<path d="M89.3996 48.9977C89.3996 56.9506 82.9525 63.3977 74.9996 63.3977C67.0467 63.3977 60.5996 56.9506 60.5996 48.9977C60.5996 41.0448 67.0467 34.5977 74.9996 34.5977C82.9525 34.5977 89.3996 41.0448 89.3996 48.9977Z" fill="#F1FAEE"/>
<mask id="mask0_8019_52426" style="mask-type:luminance" maskUnits="userSpaceOnUse" x="67" y="41" width="16" height="16">
<path d="M82.1988 41.7969H67.7988V56.1969H82.1988V41.7969Z" fill="white"/>
</mask>
<g mask="url(#mask0_8019_52426)">
<mask id="mask1_8019_52426" style="mask-type:luminance" maskUnits="userSpaceOnUse" x="67" y="41" width="16" height="16">
<path d="M82.1988 41.7969H67.7988V56.1969H82.1988V41.7969Z" fill="white"/>
</mask>
<g mask="url(#mask1_8019_52426)">
<path fill-rule="evenodd" clip-rule="evenodd" d="M74.9988 48.5469C75.2474 48.5469 75.4488 48.7483 75.4488 48.9969V54.3969C75.4488 54.6454 75.2474 54.8469 74.9988 54.8469C74.7503 54.8469 74.5488 54.6454 74.5488 54.3969V51.2791V51.275V48.9969C74.5488 48.7483 74.7503 48.5469 74.9988 48.5469Z" fill="#588157"/>
<path fill-rule="evenodd" clip-rule="evenodd" d="M73.004 43.152C73.797 43.1228 74.5863 43.2737 75.3126 43.5935C76.0389 43.9132 76.6833 44.3935 77.1973 44.9981C77.6352 45.5132 77.9688 46.1072 78.1808 46.747H78.6005C79.367 46.7475 80.1118 47.0032 80.7168 47.4738C81.3218 47.9445 81.7528 48.6032 81.9419 49.346C82.1309 50.0888 82.0673 50.8734 81.7609 51.576C81.4545 52.2786 80.9228 52.8592 80.2499 53.2261C80.0317 53.345 79.7583 53.2646 79.6394 53.0464C79.5204 52.8282 79.6009 52.5548 79.8191 52.4359C80.3165 52.1647 80.7094 51.7356 80.9359 51.2163C81.1624 50.697 81.2094 50.117 81.0697 49.568C80.9299 49.0189 80.6113 48.5321 80.1642 48.1842C79.717 47.8364 79.1667 47.6473 78.6002 47.647H77.8445C77.6393 47.647 77.4601 47.5082 77.4088 47.3096C77.2442 46.673 76.9374 46.082 76.5116 45.581C76.0857 45.08 75.5518 44.6821 74.95 44.4172C74.3482 44.1522 73.6942 44.0272 73.0371 44.0514C72.38 44.0756 71.737 44.2485 71.1563 44.557C70.5756 44.8655 70.0725 45.3016 69.6846 45.8325C69.2968 46.3635 69.0343 46.9755 68.917 47.6225C68.7997 48.2695 68.8306 48.9346 69.0074 49.5679C69.1842 50.2013 69.5023 50.7863 69.9377 51.279C70.1022 51.4652 70.0847 51.7496 69.8985 51.9142C69.7122 52.0787 69.4278 52.0612 69.2633 51.875C68.7378 51.2803 68.3539 50.5743 68.1406 49.8099C67.9272 49.0455 67.8899 48.2428 68.0315 47.4619C68.173 46.6811 68.4898 45.9425 68.9579 45.3017C69.426 44.6609 70.0332 44.1345 70.734 43.7622C71.4348 43.3898 72.2109 43.1812 73.004 43.152Z" fill="#588157"/>
<path fill-rule="evenodd" clip-rule="evenodd" d="M74.6822 48.6787C74.8579 48.5029 75.1429 48.5029 75.3186 48.6787L77.7186 51.0787C77.8943 51.2544 77.8943 51.5393 77.7186 51.7151C77.5429 51.8908 77.2579 51.8908 77.0822 51.7151L75.0004 49.6333L72.9186 51.7151C72.7429 51.8908 72.4579 51.8908 72.2822 51.7151C72.1065 51.5393 72.1065 51.2544 72.2822 51.0787L74.6822 48.6787Z" fill="#588157"/>
</g>
</g>
<path d="M37.6543 75.4688H39.1191V81.1699C39.1191 81.8184 38.9785 82.3613 38.6973 82.7988C38.416 83.2363 38.0332 83.5664 37.5488 83.7891C37.0684 84.0078 36.5312 84.1172 35.9375 84.1172C35.3242 84.1172 34.7773 84.0078 34.2969 83.7891C33.8164 83.5664 33.4375 83.2363 33.1602 82.7988C32.8867 82.3613 32.75 81.8184 32.75 81.1699V75.4688H34.2148V81.1699C34.2148 81.5801 34.2852 81.918 34.4258 82.1836C34.5664 82.4453 34.7656 82.6387 35.0234 82.7637C35.2812 82.8887 35.5859 82.9512 35.9375 82.9512C36.2891 82.9512 36.5918 82.8887 36.8457 82.7637C37.1035 82.6387 37.3027 82.4453 37.4434 82.1836C37.584 81.918 37.6543 81.5801 37.6543 81.1699V75.4688ZM43.959 80.8184H41.7383V79.6523H43.959C44.3457 79.6523 44.6582 79.5898 44.8965 79.4648C45.1348 79.3398 45.3086 79.168 45.418 78.9492C45.5312 78.7266 45.5879 78.4727 45.5879 78.1875C45.5879 77.918 45.5312 77.666 45.418 77.4316C45.3086 77.1934 45.1348 77.002 44.8965 76.8574C44.6582 76.7129 44.3457 76.6406 43.959 76.6406H42.1895V84H40.7188V75.4688H43.959C44.6191 75.4688 45.1797 75.5859 45.6406 75.8203C46.1055 76.0508 46.459 76.3711 46.7012 76.7812C46.9434 77.1875 47.0645 77.6523 47.0645 78.1758C47.0645 78.7266 46.9434 79.1992 46.7012 79.5938C46.459 79.9883 46.1055 80.291 45.6406 80.502C45.1797 80.7129 44.6191 80.8184 43.959 80.8184ZM53.7266 82.834V84H49.4434V82.834H53.7266ZM49.8535 75.4688V84H48.3828V75.4688H49.8535ZM61.2793 79.5V79.9688C61.2793 80.6133 61.1953 81.1914 61.0273 81.7031C60.8594 82.2148 60.6191 82.6504 60.3066 83.0098C59.998 83.3691 59.627 83.6445 59.1934 83.8359C58.7598 84.0234 58.2793 84.1172 57.752 84.1172C57.2285 84.1172 56.75 84.0234 56.3164 83.8359C55.8867 83.6445 55.5137 83.3691 55.1973 83.0098C54.8809 82.6504 54.6348 82.2148 54.459 81.7031C54.2871 81.1914 54.2012 80.6133 54.2012 79.9688V79.5C54.2012 78.8555 54.2871 78.2793 54.459 77.7715C54.6309 77.2598 54.873 76.8242 55.1855 76.4648C55.502 76.1016 55.875 75.8262 56.3047 75.6387C56.7383 75.4473 57.2168 75.3516 57.7402 75.3516C58.2676 75.3516 58.748 75.4473 59.1816 75.6387C59.6152 75.8262 59.9883 76.1016 60.3008 76.4648C60.6133 76.8242 60.8535 77.2598 61.0215 77.7715C61.1934 78.2793 61.2793 78.8555 61.2793 79.5ZM59.8086 79.9688V79.4883C59.8086 79.0117 59.7617 78.5918 59.668 78.2285C59.5781 77.8613 59.4434 77.5547 59.2637 77.3086C59.0879 77.0586 58.8711 76.8711 58.6133 76.7461C58.3555 76.6172 58.0645 76.5527 57.7402 76.5527C57.416 76.5527 57.127 76.6172 56.873 76.7461C56.6191 76.8711 56.4023 77.0586 56.2227 77.3086C56.0469 77.5547 55.9121 77.8613 55.8184 78.2285C55.7246 78.5918 55.6777 79.0117 55.6777 79.4883V79.9688C55.6777 80.4453 55.7246 80.8672 55.8184 81.2344C55.9121 81.6016 56.0488 81.9121 56.2285 82.166C56.4121 82.416 56.6309 82.6055 56.8848 82.7344C57.1387 82.8594 57.4277 82.9219 57.752 82.9219C58.0801 82.9219 58.3711 82.8594 58.625 82.7344C58.8789 82.6055 59.0938 82.416 59.2695 82.166C59.4453 81.9121 59.5781 81.6016 59.668 81.2344C59.7617 80.8672 59.8086 80.4453 59.8086 79.9688ZM65.9434 76.6055L63.3945 84H61.8535L65.0645 75.4688H66.0488L65.9434 76.6055ZM68.0762 84L65.5215 76.6055L65.4102 75.4688H66.4004L69.623 84H68.0762ZM67.9531 80.8359V82.002H63.3125V80.8359H67.9531ZM73.0566 84H71.2344L71.2461 82.834H73.0566C73.584 82.834 74.0254 82.7188 74.3809 82.4883C74.7402 82.2578 75.0098 81.9277 75.1895 81.498C75.373 81.0684 75.4648 80.5566 75.4648 79.9629V79.5C75.4648 79.0391 75.4121 78.6309 75.3066 78.2754C75.2051 77.9199 75.0527 77.6211 74.8496 77.3789C74.6504 77.1367 74.4043 76.9531 74.1113 76.8281C73.8223 76.7031 73.4883 76.6406 73.1094 76.6406H71.1992V75.4688H73.1094C73.6758 75.4688 74.1934 75.5645 74.6621 75.7559C75.1309 75.9434 75.5352 76.2148 75.875 76.5703C76.2188 76.9258 76.4824 77.3516 76.666 77.8477C76.8496 78.3438 76.9414 78.8984 76.9414 79.5117V79.9629C76.9414 80.5762 76.8496 81.1309 76.666 81.627C76.4824 82.123 76.2188 82.5488 75.875 82.9043C75.5312 83.2559 75.1211 83.5273 74.6445 83.7188C74.1719 83.9062 73.6426 84 73.0566 84ZM72.0488 75.4688V84H70.5781V75.4688H72.0488ZM82.9766 75.4688V84H81.5059V75.4688H82.9766ZM85.4023 75.4688H86.7148L89.1816 82.0488L91.6426 75.4688H92.9551L89.6973 84H88.6543L85.4023 75.4688ZM84.8047 75.4688H86.0527L86.2695 81.1641V84H84.8047V75.4688ZM92.3047 75.4688H93.5586V84H92.0879V81.1641L92.3047 75.4688ZM98.7324 76.6055L96.1836 84H94.6426L97.8535 75.4688H98.8379L98.7324 76.6055ZM100.865 84L98.3105 76.6055L98.1992 75.4688H99.1895L102.412 84H100.865ZM100.742 80.8359V82.002H96.1016V80.8359H100.742ZM109.824 79.6406V82.8984C109.703 83.0586 109.514 83.2344 109.256 83.4258C109.002 83.6133 108.664 83.7754 108.242 83.9121C107.82 84.0488 107.295 84.1172 106.666 84.1172C106.131 84.1172 105.641 84.0273 105.195 83.8477C104.75 83.6641 104.365 83.3965 104.041 83.0449C103.721 82.6934 103.473 82.2656 103.297 81.7617C103.121 81.2539 103.033 80.6758 103.033 80.0273V79.4355C103.033 78.791 103.113 78.2168 103.273 77.7129C103.438 77.2051 103.672 76.7754 103.977 76.4238C104.281 76.0723 104.648 75.8066 105.078 75.627C105.512 75.4434 106.002 75.3516 106.549 75.3516C107.248 75.3516 107.826 75.4688 108.283 75.7031C108.744 75.9336 109.1 76.2539 109.35 76.6641C109.6 77.0742 109.758 77.543 109.824 78.0703H108.383C108.336 77.7734 108.244 77.5078 108.107 77.2734C107.975 77.0391 107.783 76.8555 107.533 76.7227C107.287 76.5859 106.967 76.5176 106.572 76.5176C106.232 76.5176 105.934 76.582 105.676 76.7109C105.418 76.8398 105.203 77.0293 105.031 77.2793C104.863 77.5293 104.736 77.834 104.65 78.1934C104.564 78.5527 104.521 78.9629 104.521 79.4238V80.0273C104.521 80.4961 104.57 80.9121 104.668 81.2754C104.77 81.6387 104.914 81.9453 105.102 82.1953C105.293 82.4453 105.525 82.6348 105.799 82.7637C106.072 82.8887 106.381 82.9512 106.725 82.9512C107.061 82.9512 107.336 82.9238 107.551 82.8691C107.766 82.8105 107.936 82.7422 108.061 82.6641C108.189 82.582 108.289 82.5039 108.359 82.4297V80.7363H106.584V79.6406H109.824ZM117.037 82.834V84H112.508V82.834H117.037ZM112.924 75.4688V84H111.453V75.4688H112.924ZM116.445 79.0312V80.1797H112.508V79.0312H116.445ZM117.008 75.4688V76.6406H112.508V75.4688H117.008Z" fill="#0C0C0C"/>
<path d="M31.0742 93.8906H32.0117V98.7002C32.0117 99.234 31.8929 99.6784 31.6553 100.033C31.4176 100.388 31.1019 100.655 30.708 100.834C30.3174 101.01 29.8926 101.098 29.4336 101.098C28.9518 101.098 28.5156 101.01 28.125 100.834C27.7376 100.655 27.43 100.388 27.2021 100.033C26.9775 99.6784 26.8652 99.234 26.8652 98.7002V93.8906H27.7979V98.7002C27.7979 99.0713 27.8662 99.3773 28.0029 99.6182C28.1396 99.859 28.3301 100.038 28.5742 100.155C28.8216 100.272 29.1081 100.331 29.4336 100.331C29.7624 100.331 30.0488 100.272 30.293 100.155C30.5404 100.038 30.7324 99.859 30.8691 99.6182C31.0059 99.3773 31.0742 99.0713 31.0742 98.7002V93.8906ZM36.4307 99.5986C36.4307 99.4684 36.4014 99.348 36.3428 99.2373C36.2874 99.1234 36.1719 99.0208 35.9961 98.9297C35.8236 98.8353 35.5632 98.7539 35.2148 98.6855C34.9219 98.6237 34.6566 98.5505 34.4189 98.4658C34.1846 98.3812 33.9844 98.2786 33.8184 98.1582C33.6556 98.0378 33.5303 97.8962 33.4424 97.7334C33.3545 97.5706 33.3105 97.3802 33.3105 97.1621C33.3105 96.9538 33.3561 96.7568 33.4473 96.5713C33.5417 96.3857 33.6735 96.2214 33.8428 96.0781C34.0153 95.9349 34.222 95.8226 34.4629 95.7412C34.7038 95.6598 34.9723 95.6191 35.2686 95.6191C35.6917 95.6191 36.0531 95.694 36.3525 95.8438C36.652 95.9935 36.8815 96.1937 37.041 96.4443C37.2005 96.6917 37.2803 96.9668 37.2803 97.2695H36.377C36.377 97.123 36.333 96.9814 36.2451 96.8447C36.1605 96.7048 36.0352 96.5892 35.8691 96.498C35.7064 96.4069 35.5062 96.3613 35.2686 96.3613C35.0179 96.3613 34.8145 96.4004 34.6582 96.4785C34.5052 96.5534 34.3929 96.6494 34.3213 96.7666C34.2529 96.8838 34.2188 97.0075 34.2188 97.1377C34.2188 97.2354 34.235 97.3232 34.2676 97.4014C34.3034 97.4762 34.3652 97.5462 34.4531 97.6113C34.541 97.6732 34.6647 97.7318 34.8242 97.7871C34.9837 97.8424 35.1872 97.8978 35.4346 97.9531C35.8675 98.0508 36.224 98.168 36.5039 98.3047C36.7839 98.4414 36.9922 98.609 37.1289 98.8076C37.2656 99.0062 37.334 99.2471 37.334 99.5303C37.334 99.7614 37.2852 99.973 37.1875 100.165C37.0931 100.357 36.9548 100.523 36.7725 100.663C36.5934 100.8 36.3786 100.907 36.1279 100.985C35.8805 101.06 35.6022 101.098 35.293 101.098C34.8275 101.098 34.4336 101.015 34.1113 100.849C33.7891 100.683 33.5449 100.468 33.3789 100.204C33.2129 99.9404 33.1299 99.6621 33.1299 99.3691H34.0381C34.0511 99.6165 34.1227 99.8135 34.2529 99.96C34.3831 100.103 34.5426 100.206 34.7314 100.268C34.9202 100.326 35.1074 100.355 35.293 100.355C35.5404 100.355 35.7471 100.323 35.9131 100.258C36.0824 100.193 36.2109 100.103 36.2988 99.9893C36.3867 99.8753 36.4307 99.7451 36.4307 99.5986ZM40.7129 101.098C40.3451 101.098 40.0114 101.036 39.7119 100.912C39.4157 100.785 39.1602 100.608 38.9453 100.38C38.7337 100.152 38.571 99.8818 38.457 99.5693C38.3431 99.2568 38.2861 98.915 38.2861 98.5439V98.3389C38.2861 97.9092 38.3496 97.5267 38.4766 97.1914C38.6035 96.8529 38.776 96.5664 38.9941 96.332C39.2122 96.0977 39.4596 95.9202 39.7363 95.7998C40.013 95.6794 40.2995 95.6191 40.5957 95.6191C40.9733 95.6191 41.2988 95.6842 41.5723 95.8145C41.849 95.9447 42.0752 96.127 42.251 96.3613C42.4268 96.5924 42.557 96.8659 42.6416 97.1816C42.7262 97.4941 42.7686 97.8359 42.7686 98.207V98.6123H38.8232V97.875H41.8652V97.8066C41.8522 97.5723 41.8034 97.3444 41.7188 97.123C41.6374 96.9017 41.5072 96.7194 41.3281 96.5762C41.1491 96.4329 40.9049 96.3613 40.5957 96.3613C40.3906 96.3613 40.2018 96.4053 40.0293 96.4932C39.8568 96.5778 39.7087 96.7048 39.585 96.874C39.4613 97.0433 39.3652 97.25 39.2969 97.4941C39.2285 97.7383 39.1943 98.0199 39.1943 98.3389V98.5439C39.1943 98.7946 39.2285 99.0306 39.2969 99.252C39.3685 99.4701 39.471 99.6621 39.6045 99.8281C39.7412 99.9941 39.9056 100.124 40.0977 100.219C40.293 100.313 40.5143 100.36 40.7617 100.36C41.0807 100.36 41.3509 100.295 41.5723 100.165C41.7936 100.035 41.9873 99.8607 42.1533 99.6426L42.7002 100.077C42.5863 100.25 42.4414 100.414 42.2656 100.57C42.0898 100.727 41.8734 100.854 41.6162 100.951C41.3623 101.049 41.0612 101.098 40.7129 101.098ZM48.5156 95.7168V96.4102H45.6592V95.7168H48.5156ZM46.626 94.4326H47.5293V99.6914C47.5293 99.8704 47.557 100.006 47.6123 100.097C47.6676 100.188 47.7393 100.248 47.8271 100.277C47.915 100.307 48.0094 100.321 48.1104 100.321C48.1852 100.321 48.2633 100.315 48.3447 100.302C48.4294 100.285 48.4928 100.272 48.5352 100.263L48.54 101C48.4684 101.023 48.374 101.044 48.2568 101.063C48.1429 101.086 48.0046 101.098 47.8418 101.098C47.6204 101.098 47.417 101.054 47.2314 100.966C47.0459 100.878 46.8978 100.731 46.7871 100.526C46.6797 100.318 46.626 100.038 46.626 99.6865V94.4326ZM50.4785 93.5V101H49.5752V93.5H50.4785ZM50.2637 98.1582L49.8877 98.1436C49.891 97.7822 49.9447 97.4486 50.0488 97.1426C50.153 96.8333 50.2995 96.5648 50.4883 96.3369C50.6771 96.109 50.9017 95.9333 51.1621 95.8096C51.4258 95.6826 51.7171 95.6191 52.0361 95.6191C52.2965 95.6191 52.5309 95.6549 52.7393 95.7266C52.9476 95.7949 53.125 95.9056 53.2715 96.0586C53.4212 96.2116 53.5352 96.4102 53.6133 96.6543C53.6914 96.8952 53.7305 97.1898 53.7305 97.5381V101H52.8223V97.5283C52.8223 97.2516 52.7816 97.0303 52.7002 96.8643C52.6188 96.695 52.5 96.5729 52.3438 96.498C52.1875 96.4199 51.9954 96.3809 51.7676 96.3809C51.543 96.3809 51.3379 96.4281 51.1523 96.5225C50.9701 96.6169 50.8122 96.7471 50.6787 96.9131C50.5485 97.0791 50.446 97.2695 50.3711 97.4844C50.2995 97.696 50.2637 97.9206 50.2637 98.1582ZM57.2754 101.098C56.9076 101.098 56.5739 101.036 56.2744 100.912C55.9782 100.785 55.7227 100.608 55.5078 100.38C55.2962 100.152 55.1335 99.8818 55.0195 99.5693C54.9056 99.2568 54.8486 98.915 54.8486 98.5439V98.3389C54.8486 97.9092 54.9121 97.5267 55.0391 97.1914C55.166 96.8529 55.3385 96.5664 55.5566 96.332C55.7747 96.0977 56.0221 95.9202 56.2988 95.7998C56.5755 95.6794 56.862 95.6191 57.1582 95.6191C57.5358 95.6191 57.8613 95.6842 58.1348 95.8145C58.4115 95.9447 58.6377 96.127 58.8135 96.3613C58.9893 96.5924 59.1195 96.8659 59.2041 97.1816C59.2887 97.4941 59.3311 97.8359 59.3311 98.207V98.6123H55.3857V97.875H58.4277V97.8066C58.4147 97.5723 58.3659 97.3444 58.2812 97.123C58.1999 96.9017 58.0697 96.7194 57.8906 96.5762C57.7116 96.4329 57.4674 96.3613 57.1582 96.3613C56.9531 96.3613 56.7643 96.4053 56.5918 96.4932C56.4193 96.5778 56.2712 96.7048 56.1475 96.874C56.0238 97.0433 55.9277 97.25 55.8594 97.4941C55.791 97.7383 55.7568 98.0199 55.7568 98.3389V98.5439C55.7568 98.7946 55.791 99.0306 55.8594 99.252C55.931 99.4701 56.0335 99.6621 56.167 99.8281C56.3037 99.9941 56.4681 100.124 56.6602 100.219C56.8555 100.313 57.0768 100.36 57.3242 100.36C57.6432 100.36 57.9134 100.295 58.1348 100.165C58.3561 100.035 58.5498 99.8607 58.7158 99.6426L59.2627 100.077C59.1488 100.25 59.0039 100.414 58.8281 100.57C58.6523 100.727 58.4359 100.854 58.1787 100.951C57.9248 101.049 57.6237 101.098 57.2754 101.098ZM66.0986 99.7793V95.7168H67.0068V101H66.1426L66.0986 99.7793ZM66.2695 98.666L66.6455 98.6562C66.6455 99.0078 66.6081 99.3333 66.5332 99.6328C66.4616 99.929 66.3444 100.186 66.1816 100.404C66.0189 100.622 65.8057 100.793 65.542 100.917C65.2783 101.037 64.9577 101.098 64.5801 101.098C64.3229 101.098 64.0869 101.06 63.8721 100.985C63.6605 100.91 63.4782 100.795 63.3252 100.639C63.1722 100.482 63.0534 100.279 62.9688 100.028C62.8874 99.7777 62.8467 99.4766 62.8467 99.125V95.7168H63.75V99.1348C63.75 99.3724 63.776 99.5693 63.8281 99.7256C63.8835 99.8786 63.9567 100.001 64.0479 100.092C64.1423 100.18 64.2464 100.242 64.3604 100.277C64.4775 100.313 64.598 100.331 64.7217 100.331C65.1058 100.331 65.4102 100.258 65.6348 100.111C65.8594 99.9616 66.0205 99.7614 66.1182 99.5107C66.2191 99.2568 66.2695 98.9753 66.2695 98.666ZM69.2871 96.7324V103.031H68.3789V95.7168H69.209L69.2871 96.7324ZM72.8467 98.3145V98.417C72.8467 98.8011 72.8011 99.1576 72.71 99.4863C72.6188 99.8118 72.4854 100.095 72.3096 100.336C72.137 100.577 71.9238 100.764 71.6699 100.897C71.416 101.031 71.1247 101.098 70.7959 101.098C70.4606 101.098 70.1644 101.042 69.9072 100.932C69.6501 100.821 69.432 100.66 69.2529 100.448C69.0739 100.237 68.9307 99.9827 68.8232 99.6865C68.7191 99.3903 68.6475 99.0566 68.6084 98.6855V98.1387C68.6475 97.748 68.7207 97.3981 68.8281 97.0889C68.9355 96.7796 69.0771 96.516 69.2529 96.2979C69.432 96.0765 69.6484 95.9089 69.9023 95.7949C70.1562 95.6777 70.4492 95.6191 70.7812 95.6191C71.1133 95.6191 71.4079 95.6842 71.665 95.8145C71.9222 95.9414 72.1387 96.1237 72.3145 96.3613C72.4902 96.599 72.6221 96.8838 72.71 97.2158C72.8011 97.5446 72.8467 97.9108 72.8467 98.3145ZM71.9385 98.417V98.3145C71.9385 98.0508 71.9108 97.8034 71.8555 97.5723C71.8001 97.3379 71.7139 97.1328 71.5967 96.957C71.4827 96.778 71.3363 96.638 71.1572 96.5371C70.9782 96.4329 70.765 96.3809 70.5176 96.3809C70.2897 96.3809 70.0911 96.4199 69.9219 96.498C69.7559 96.5762 69.6143 96.682 69.4971 96.8154C69.3799 96.9456 69.2839 97.0954 69.209 97.2646C69.1374 97.4307 69.0837 97.6032 69.0479 97.7822V99.0469C69.113 99.2747 69.2041 99.4896 69.3213 99.6914C69.4385 99.89 69.5947 100.051 69.79 100.175C69.9854 100.295 70.2311 100.355 70.5273 100.355C70.7715 100.355 70.9814 100.305 71.1572 100.204C71.3363 100.1 71.4827 99.9583 71.5967 99.7793C71.7139 99.6003 71.8001 99.3952 71.8555 99.1641C71.9108 98.9297 71.9385 98.6807 71.9385 98.417ZM74.9805 93.5V101H74.0723V93.5H74.9805ZM76.1914 98.417V98.3047C76.1914 97.9238 76.2467 97.5706 76.3574 97.2451C76.4681 96.9163 76.6276 96.6315 76.8359 96.3906C77.0443 96.1465 77.2965 95.9577 77.5928 95.8242C77.889 95.6875 78.221 95.6191 78.5889 95.6191C78.96 95.6191 79.2936 95.6875 79.5898 95.8242C79.8893 95.9577 80.1432 96.1465 80.3516 96.3906C80.5632 96.6315 80.7243 96.9163 80.835 97.2451C80.9456 97.5706 81.001 97.9238 81.001 98.3047V98.417C81.001 98.7979 80.9456 99.151 80.835 99.4766C80.7243 99.8021 80.5632 100.087 80.3516 100.331C80.1432 100.572 79.891 100.761 79.5947 100.897C79.3018 101.031 78.9697 101.098 78.5986 101.098C78.2275 101.098 77.8939 101.031 77.5977 100.897C77.3014 100.761 77.0475 100.572 76.8359 100.331C76.6276 100.087 76.4681 99.8021 76.3574 99.4766C76.2467 99.151 76.1914 98.7979 76.1914 98.417ZM77.0947 98.3047V98.417C77.0947 98.6807 77.1257 98.9297 77.1875 99.1641C77.2493 99.3952 77.3421 99.6003 77.4658 99.7793C77.5928 99.9583 77.7507 100.1 77.9395 100.204C78.1283 100.305 78.348 100.355 78.5986 100.355C78.846 100.355 79.0625 100.305 79.248 100.204C79.4368 100.1 79.5931 99.9583 79.7168 99.7793C79.8405 99.6003 79.9333 99.3952 79.9951 99.1641C80.0602 98.9297 80.0928 98.6807 80.0928 98.417V98.3047C80.0928 98.0443 80.0602 97.7985 79.9951 97.5674C79.9333 97.333 79.8389 97.1263 79.7119 96.9473C79.5882 96.765 79.432 96.6217 79.2432 96.5176C79.0576 96.4134 78.8395 96.3613 78.5889 96.3613C78.3415 96.3613 78.1234 96.4134 77.9346 96.5176C77.749 96.6217 77.5928 96.765 77.4658 96.9473C77.3421 97.1263 77.2493 97.333 77.1875 97.5674C77.1257 97.7985 77.0947 98.0443 77.0947 98.3047ZM85.249 100.097V97.377C85.249 97.1686 85.2067 96.988 85.1221 96.835C85.0407 96.6787 84.917 96.5583 84.751 96.4736C84.585 96.389 84.3799 96.3467 84.1357 96.3467C83.9079 96.3467 83.7077 96.3857 83.5352 96.4639C83.3659 96.542 83.2324 96.6445 83.1348 96.7715C83.0404 96.8984 82.9932 97.0352 82.9932 97.1816H82.0898C82.0898 96.9928 82.1387 96.8057 82.2363 96.6201C82.334 96.4346 82.474 96.2669 82.6562 96.1172C82.8418 95.9642 83.0632 95.8438 83.3203 95.7559C83.5807 95.6647 83.8704 95.6191 84.1895 95.6191C84.5736 95.6191 84.9121 95.6842 85.2051 95.8145C85.5013 95.9447 85.7324 96.1416 85.8984 96.4053C86.0677 96.6657 86.1523 96.9928 86.1523 97.3867V99.8477C86.1523 100.023 86.167 100.211 86.1963 100.409C86.2288 100.608 86.276 100.779 86.3379 100.922V101H85.3955C85.3499 100.896 85.3141 100.757 85.2881 100.585C85.262 100.409 85.249 100.246 85.249 100.097ZM85.4053 97.7969L85.415 98.4316H84.502C84.2448 98.4316 84.0153 98.4528 83.8135 98.4951C83.6117 98.5342 83.4424 98.5944 83.3057 98.6758C83.1689 98.7572 83.0648 98.8597 82.9932 98.9834C82.9215 99.1038 82.8857 99.2454 82.8857 99.4082C82.8857 99.5742 82.9232 99.7256 82.998 99.8623C83.0729 99.999 83.1852 100.108 83.335 100.189C83.488 100.268 83.6751 100.307 83.8965 100.307C84.1732 100.307 84.4173 100.248 84.6289 100.131C84.8405 100.014 85.0081 99.8704 85.1318 99.7012C85.2588 99.5319 85.3271 99.3675 85.3369 99.208L85.7227 99.6426C85.6999 99.7793 85.638 99.9307 85.5371 100.097C85.4362 100.263 85.3011 100.422 85.1318 100.575C84.9658 100.725 84.7673 100.85 84.5361 100.951C84.3083 101.049 84.0511 101.098 83.7646 101.098C83.4066 101.098 83.0924 101.028 82.8223 100.888C82.5553 100.748 82.347 100.561 82.1973 100.326C82.0508 100.089 81.9775 99.8232 81.9775 99.5303C81.9775 99.2471 82.0329 98.998 82.1436 98.7832C82.2542 98.5651 82.4137 98.3844 82.6221 98.2412C82.8304 98.0947 83.0811 97.984 83.374 97.9092C83.667 97.8343 83.9941 97.7969 84.3555 97.7969H85.4053ZM90.9033 99.9746V93.5H91.8115V101H90.9814L90.9033 99.9746ZM87.3486 98.417V98.3145C87.3486 97.9108 87.3975 97.5446 87.4951 97.2158C87.596 96.8838 87.7376 96.599 87.9199 96.3613C88.1055 96.1237 88.3252 95.9414 88.5791 95.8145C88.8363 95.6842 89.1227 95.6191 89.4385 95.6191C89.7705 95.6191 90.0602 95.6777 90.3076 95.7949C90.5583 95.9089 90.7699 96.0765 90.9424 96.2979C91.1182 96.516 91.2565 96.7796 91.3574 97.0889C91.4583 97.3981 91.5283 97.748 91.5674 98.1387V98.5879C91.5316 98.9753 91.4616 99.3236 91.3574 99.6328C91.2565 99.9421 91.1182 100.206 90.9424 100.424C90.7699 100.642 90.5583 100.81 90.3076 100.927C90.057 101.041 89.764 101.098 89.4287 101.098C89.1195 101.098 88.8363 101.031 88.5791 100.897C88.3252 100.764 88.1055 100.577 87.9199 100.336C87.7376 100.095 87.596 99.8118 87.4951 99.4863C87.3975 99.1576 87.3486 98.8011 87.3486 98.417ZM88.2568 98.3145V98.417C88.2568 98.6807 88.2829 98.9281 88.335 99.1592C88.3903 99.3903 88.4749 99.5938 88.5889 99.7695C88.7028 99.9453 88.8477 100.084 89.0234 100.185C89.1992 100.282 89.4092 100.331 89.6533 100.331C89.9528 100.331 90.1986 100.268 90.3906 100.141C90.5859 100.014 90.7422 99.846 90.8594 99.6377C90.9766 99.4294 91.0677 99.2031 91.1328 98.959V97.7822C91.0938 97.6032 91.0368 97.4307 90.9619 97.2646C90.8903 97.0954 90.7959 96.9456 90.6787 96.8154C90.5648 96.682 90.4232 96.5762 90.2539 96.498C90.0879 96.4199 89.891 96.3809 89.6631 96.3809C89.4157 96.3809 89.2025 96.4329 89.0234 96.5371C88.8477 96.638 88.7028 96.778 88.5889 96.957C88.4749 97.1328 88.3903 97.3379 88.335 97.5723C88.2829 97.8034 88.2568 98.0508 88.2568 98.3145ZM95.6934 93.5H96.6016V99.9746L96.5234 101H95.6934V93.5ZM100.171 98.3145V98.417C100.171 98.8011 100.125 99.1576 100.034 99.4863C99.943 99.8118 99.8096 100.095 99.6338 100.336C99.458 100.577 99.2432 100.764 98.9893 100.897C98.7354 101.031 98.444 101.098 98.1152 101.098C97.7799 101.098 97.4854 101.041 97.2314 100.927C96.9808 100.81 96.7692 100.642 96.5967 100.424C96.4242 100.206 96.2858 99.9421 96.1816 99.6328C96.0807 99.3236 96.0107 98.9753 95.9717 98.5879V98.1387C96.0107 97.748 96.0807 97.3981 96.1816 97.0889C96.2858 96.7796 96.4242 96.516 96.5967 96.2979C96.7692 96.0765 96.9808 95.9089 97.2314 95.7949C97.4821 95.6777 97.7734 95.6191 98.1055 95.6191C98.4375 95.6191 98.7321 95.6842 98.9893 95.8145C99.2464 95.9414 99.4613 96.1237 99.6338 96.3613C99.8096 96.599 99.943 96.8838 100.034 97.2158C100.125 97.5446 100.171 97.9108 100.171 98.3145ZM99.2627 98.417V98.3145C99.2627 98.0508 99.2383 97.8034 99.1895 97.5723C99.1406 97.3379 99.0625 97.1328 98.9551 96.957C98.8477 96.778 98.7061 96.638 98.5303 96.5371C98.3545 96.4329 98.138 96.3809 97.8809 96.3809C97.653 96.3809 97.4544 96.4199 97.2852 96.498C97.1191 96.5762 96.9775 96.682 96.8604 96.8154C96.7432 96.9456 96.6471 97.0954 96.5723 97.2646C96.5007 97.4307 96.4469 97.6032 96.4111 97.7822V98.959C96.4632 99.1868 96.5479 99.4066 96.665 99.6182C96.7855 99.8265 96.945 99.9974 97.1436 100.131C97.3454 100.264 97.5944 100.331 97.8906 100.331C98.1348 100.331 98.3431 100.282 98.5156 100.185C98.6914 100.084 98.833 99.9453 98.9404 99.7695C99.0511 99.5938 99.1325 99.3903 99.1846 99.1592C99.2367 98.9281 99.2627 98.6807 99.2627 98.417ZM104.546 99.7793V95.7168H105.454V101H104.59L104.546 99.7793ZM104.717 98.666L105.093 98.6562C105.093 99.0078 105.055 99.3333 104.98 99.6328C104.909 99.929 104.792 100.186 104.629 100.404C104.466 100.622 104.253 100.793 103.989 100.917C103.726 101.037 103.405 101.098 103.027 101.098C102.77 101.098 102.534 101.06 102.319 100.985C102.108 100.91 101.925 100.795 101.772 100.639C101.619 100.482 101.501 100.279 101.416 100.028C101.335 99.7777 101.294 99.4766 101.294 99.125V95.7168H102.197V99.1348C102.197 99.3724 102.223 99.5693 102.275 99.7256C102.331 99.8786 102.404 100.001 102.495 100.092C102.59 100.18 102.694 100.242 102.808 100.277C102.925 100.313 103.045 100.331 103.169 100.331C103.553 100.331 103.857 100.258 104.082 100.111C104.307 99.9616 104.468 99.7614 104.565 99.5107C104.666 99.2568 104.717 98.9753 104.717 98.666ZM109.043 95.7168V96.4102H106.187V95.7168H109.043ZM107.153 94.4326H108.057V99.6914C108.057 99.8704 108.084 100.006 108.14 100.097C108.195 100.188 108.267 100.248 108.354 100.277C108.442 100.307 108.537 100.321 108.638 100.321C108.713 100.321 108.791 100.315 108.872 100.302C108.957 100.285 109.02 100.272 109.062 100.263L109.067 101C108.996 101.023 108.901 101.044 108.784 101.063C108.67 101.086 108.532 101.098 108.369 101.098C108.148 101.098 107.944 101.054 107.759 100.966C107.573 100.878 107.425 100.731 107.314 100.526C107.207 100.318 107.153 100.038 107.153 99.6865V94.4326ZM112.314 95.7168V96.4102H109.458V95.7168H112.314ZM110.425 94.4326H111.328V99.6914C111.328 99.8704 111.356 100.006 111.411 100.097C111.466 100.188 111.538 100.248 111.626 100.277C111.714 100.307 111.808 100.321 111.909 100.321C111.984 100.321 112.062 100.315 112.144 100.302C112.228 100.285 112.292 100.272 112.334 100.263L112.339 101C112.267 101.023 112.173 101.044 112.056 101.063C111.942 101.086 111.803 101.098 111.641 101.098C111.419 101.098 111.216 101.054 111.03 100.966C110.845 100.878 110.697 100.731 110.586 100.526C110.479 100.318 110.425 100.038 110.425 99.6865V94.4326ZM113.037 98.417V98.3047C113.037 97.9238 113.092 97.5706 113.203 97.2451C113.314 96.9163 113.473 96.6315 113.682 96.3906C113.89 96.1465 114.142 95.9577 114.438 95.8242C114.735 95.6875 115.067 95.6191 115.435 95.6191C115.806 95.6191 116.139 95.6875 116.436 95.8242C116.735 95.9577 116.989 96.1465 117.197 96.3906C117.409 96.6315 117.57 96.9163 117.681 97.2451C117.791 97.5706 117.847 97.9238 117.847 98.3047V98.417C117.847 98.7979 117.791 99.151 117.681 99.4766C117.57 99.8021 117.409 100.087 117.197 100.331C116.989 100.572 116.737 100.761 116.44 100.897C116.147 101.031 115.815 101.098 115.444 101.098C115.073 101.098 114.74 101.031 114.443 100.897C114.147 100.761 113.893 100.572 113.682 100.331C113.473 100.087 113.314 99.8021 113.203 99.4766C113.092 99.151 113.037 98.7979 113.037 98.417ZM113.94 98.3047V98.417C113.94 98.6807 113.971 98.9297 114.033 99.1641C114.095 99.3952 114.188 99.6003 114.312 99.7793C114.438 99.9583 114.596 100.1 114.785 100.204C114.974 100.305 115.194 100.355 115.444 100.355C115.692 100.355 115.908 100.305 116.094 100.204C116.283 100.1 116.439 99.9583 116.562 99.7793C116.686 99.6003 116.779 99.3952 116.841 99.1641C116.906 98.9297 116.938 98.6807 116.938 98.417V98.3047C116.938 98.0443 116.906 97.7985 116.841 97.5674C116.779 97.333 116.685 97.1263 116.558 96.9473C116.434 96.765 116.278 96.6217 116.089 96.5176C115.903 96.4134 115.685 96.3613 115.435 96.3613C115.187 96.3613 114.969 96.4134 114.78 96.5176C114.595 96.6217 114.438 96.765 114.312 96.9473C114.188 97.1263 114.095 97.333 114.033 97.5674C113.971 97.7985 113.94 98.0443 113.94 98.3047ZM119.883 96.8447V101H118.979V95.7168H119.834L119.883 96.8447ZM119.668 98.1582L119.292 98.1436C119.295 97.7822 119.349 97.4486 119.453 97.1426C119.557 96.8333 119.704 96.5648 119.893 96.3369C120.081 96.109 120.306 95.9333 120.566 95.8096C120.83 95.6826 121.121 95.6191 121.44 95.6191C121.701 95.6191 121.935 95.6549 122.144 95.7266C122.352 95.7949 122.529 95.9056 122.676 96.0586C122.826 96.2116 122.939 96.4102 123.018 96.6543C123.096 96.8952 123.135 97.1898 123.135 97.5381V101H122.227V97.5283C122.227 97.2516 122.186 97.0303 122.104 96.8643C122.023 96.695 121.904 96.5729 121.748 96.498C121.592 96.4199 121.4 96.3809 121.172 96.3809C120.947 96.3809 120.742 96.4281 120.557 96.5225C120.374 96.6169 120.216 96.7471 120.083 96.9131C119.953 97.0791 119.85 97.2695 119.775 97.4844C119.704 97.696 119.668 97.9206 119.668 98.1582ZM40.8691 114.097V111.377C40.8691 111.169 40.8268 110.988 40.7422 110.835C40.6608 110.679 40.5371 110.558 40.3711 110.474C40.2051 110.389 40 110.347 39.7559 110.347C39.528 110.347 39.3278 110.386 39.1553 110.464C38.986 110.542 38.8525 110.645 38.7549 110.771C38.6605 110.898 38.6133 111.035 38.6133 111.182H37.71C37.71 110.993 37.7588 110.806 37.8564 110.62C37.9541 110.435 38.0941 110.267 38.2764 110.117C38.4619 109.964 38.6833 109.844 38.9404 109.756C39.2008 109.665 39.4906 109.619 39.8096 109.619C40.1937 109.619 40.5322 109.684 40.8252 109.814C41.1214 109.945 41.3525 110.142 41.5186 110.405C41.6878 110.666 41.7725 110.993 41.7725 111.387V113.848C41.7725 114.023 41.7871 114.211 41.8164 114.409C41.849 114.608 41.8962 114.779 41.958 114.922V115H41.0156C40.9701 114.896 40.9342 114.757 40.9082 114.585C40.8822 114.409 40.8691 114.246 40.8691 114.097ZM41.0254 111.797L41.0352 112.432H40.1221C39.8649 112.432 39.6354 112.453 39.4336 112.495C39.2318 112.534 39.0625 112.594 38.9258 112.676C38.7891 112.757 38.6849 112.86 38.6133 112.983C38.5417 113.104 38.5059 113.245 38.5059 113.408C38.5059 113.574 38.5433 113.726 38.6182 113.862C38.693 113.999 38.8053 114.108 38.9551 114.189C39.1081 114.268 39.2952 114.307 39.5166 114.307C39.7933 114.307 40.0374 114.248 40.249 114.131C40.4606 114.014 40.6283 113.87 40.752 113.701C40.8789 113.532 40.9473 113.368 40.957 113.208L41.3428 113.643C41.32 113.779 41.2581 113.931 41.1572 114.097C41.0563 114.263 40.9212 114.422 40.752 114.575C40.5859 114.725 40.3874 114.85 40.1562 114.951C39.9284 115.049 39.6712 115.098 39.3848 115.098C39.0267 115.098 38.7126 115.028 38.4424 114.888C38.1755 114.748 37.9671 114.561 37.8174 114.326C37.6709 114.089 37.5977 113.823 37.5977 113.53C37.5977 113.247 37.653 112.998 37.7637 112.783C37.8743 112.565 38.0339 112.384 38.2422 112.241C38.4505 112.095 38.7012 111.984 38.9941 111.909C39.2871 111.834 39.6143 111.797 39.9756 111.797H41.0254ZM44.0967 110.845V115H43.1934V109.717H44.0479L44.0967 110.845ZM43.8818 112.158L43.5059 112.144C43.5091 111.782 43.5628 111.449 43.667 111.143C43.7712 110.833 43.9176 110.565 44.1064 110.337C44.2952 110.109 44.5199 109.933 44.7803 109.81C45.0439 109.683 45.3353 109.619 45.6543 109.619C45.9147 109.619 46.1491 109.655 46.3574 109.727C46.5658 109.795 46.7432 109.906 46.8896 110.059C47.0394 110.212 47.1533 110.41 47.2314 110.654C47.3096 110.895 47.3486 111.19 47.3486 111.538V115H46.4404V111.528C46.4404 111.252 46.3997 111.03 46.3184 110.864C46.237 110.695 46.1182 110.573 45.9619 110.498C45.8057 110.42 45.6136 110.381 45.3857 110.381C45.1611 110.381 44.9561 110.428 44.7705 110.522C44.5882 110.617 44.4303 110.747 44.2969 110.913C44.1667 111.079 44.0641 111.27 43.9893 111.484C43.9176 111.696 43.8818 111.921 43.8818 112.158ZM52.0508 113.975V107.5H52.959V115H52.1289L52.0508 113.975ZM48.4961 112.417V112.314C48.4961 111.911 48.5449 111.545 48.6426 111.216C48.7435 110.884 48.8851 110.599 49.0674 110.361C49.2529 110.124 49.4727 109.941 49.7266 109.814C49.9837 109.684 50.2702 109.619 50.5859 109.619C50.918 109.619 51.2077 109.678 51.4551 109.795C51.7057 109.909 51.9173 110.076 52.0898 110.298C52.2656 110.516 52.404 110.78 52.5049 111.089C52.6058 111.398 52.6758 111.748 52.7148 112.139V112.588C52.679 112.975 52.609 113.324 52.5049 113.633C52.404 113.942 52.2656 114.206 52.0898 114.424C51.9173 114.642 51.7057 114.81 51.4551 114.927C51.2044 115.041 50.9115 115.098 50.5762 115.098C50.2669 115.098 49.9837 115.031 49.7266 114.897C49.4727 114.764 49.2529 114.577 49.0674 114.336C48.8851 114.095 48.7435 113.812 48.6426 113.486C48.5449 113.158 48.4961 112.801 48.4961 112.417ZM49.4043 112.314V112.417C49.4043 112.681 49.4303 112.928 49.4824 113.159C49.5378 113.39 49.6224 113.594 49.7363 113.77C49.8503 113.945 49.9951 114.084 50.1709 114.185C50.3467 114.282 50.5566 114.331 50.8008 114.331C51.1003 114.331 51.346 114.268 51.5381 114.141C51.7334 114.014 51.8896 113.846 52.0068 113.638C52.124 113.429 52.2152 113.203 52.2803 112.959V111.782C52.2412 111.603 52.1842 111.431 52.1094 111.265C52.0378 111.095 51.9434 110.946 51.8262 110.815C51.7122 110.682 51.5706 110.576 51.4014 110.498C51.2354 110.42 51.0384 110.381 50.8105 110.381C50.5632 110.381 50.3499 110.433 50.1709 110.537C49.9951 110.638 49.8503 110.778 49.7363 110.957C49.6224 111.133 49.5378 111.338 49.4824 111.572C49.4303 111.803 49.4043 112.051 49.4043 112.314ZM59.9219 113.599C59.9219 113.468 59.8926 113.348 59.834 113.237C59.7786 113.123 59.6631 113.021 59.4873 112.93C59.3148 112.835 59.0544 112.754 58.7061 112.686C58.4131 112.624 58.1478 112.55 57.9102 112.466C57.6758 112.381 57.4756 112.279 57.3096 112.158C57.1468 112.038 57.0215 111.896 56.9336 111.733C56.8457 111.571 56.8018 111.38 56.8018 111.162C56.8018 110.954 56.8473 110.757 56.9385 110.571C57.0329 110.386 57.1647 110.221 57.334 110.078C57.5065 109.935 57.7132 109.823 57.9541 109.741C58.195 109.66 58.4635 109.619 58.7598 109.619C59.1829 109.619 59.5443 109.694 59.8438 109.844C60.1432 109.993 60.3727 110.194 60.5322 110.444C60.6917 110.692 60.7715 110.967 60.7715 111.27H59.8682C59.8682 111.123 59.8242 110.981 59.7363 110.845C59.6517 110.705 59.5264 110.589 59.3604 110.498C59.1976 110.407 58.9974 110.361 58.7598 110.361C58.5091 110.361 58.3057 110.4 58.1494 110.479C57.9964 110.553 57.8841 110.649 57.8125 110.767C57.7441 110.884 57.71 111.007 57.71 111.138C57.71 111.235 57.7262 111.323 57.7588 111.401C57.7946 111.476 57.8564 111.546 57.9443 111.611C58.0322 111.673 58.1559 111.732 58.3154 111.787C58.4749 111.842 58.6784 111.898 58.9258 111.953C59.3587 112.051 59.7152 112.168 59.9951 112.305C60.2751 112.441 60.4834 112.609 60.6201 112.808C60.7568 113.006 60.8252 113.247 60.8252 113.53C60.8252 113.761 60.7764 113.973 60.6787 114.165C60.5843 114.357 60.446 114.523 60.2637 114.663C60.0846 114.8 59.8698 114.907 59.6191 114.985C59.3717 115.06 59.0934 115.098 58.7842 115.098C58.3187 115.098 57.9248 115.015 57.6025 114.849C57.2803 114.683 57.0361 114.468 56.8701 114.204C56.7041 113.94 56.6211 113.662 56.6211 113.369H57.5293C57.5423 113.617 57.6139 113.813 57.7441 113.96C57.8743 114.103 58.0339 114.206 58.2227 114.268C58.4115 114.326 58.5986 114.355 58.7842 114.355C59.0316 114.355 59.2383 114.323 59.4043 114.258C59.5736 114.193 59.7021 114.103 59.79 113.989C59.8779 113.875 59.9219 113.745 59.9219 113.599ZM64.2041 115.098C63.8363 115.098 63.5026 115.036 63.2031 114.912C62.9069 114.785 62.6514 114.608 62.4365 114.38C62.2249 114.152 62.0622 113.882 61.9482 113.569C61.8343 113.257 61.7773 112.915 61.7773 112.544V112.339C61.7773 111.909 61.8408 111.527 61.9678 111.191C62.0947 110.853 62.2673 110.566 62.4854 110.332C62.7035 110.098 62.9508 109.92 63.2275 109.8C63.5042 109.679 63.7907 109.619 64.0869 109.619C64.4645 109.619 64.79 109.684 65.0635 109.814C65.3402 109.945 65.5664 110.127 65.7422 110.361C65.918 110.592 66.0482 110.866 66.1328 111.182C66.2174 111.494 66.2598 111.836 66.2598 112.207V112.612H62.3145V111.875H65.3564V111.807C65.3434 111.572 65.2946 111.344 65.21 111.123C65.1286 110.902 64.9984 110.719 64.8193 110.576C64.6403 110.433 64.3962 110.361 64.0869 110.361C63.8818 110.361 63.693 110.405 63.5205 110.493C63.348 110.578 63.1999 110.705 63.0762 110.874C62.9525 111.043 62.8564 111.25 62.7881 111.494C62.7197 111.738 62.6855 112.02 62.6855 112.339V112.544C62.6855 112.795 62.7197 113.031 62.7881 113.252C62.8597 113.47 62.9622 113.662 63.0957 113.828C63.2324 113.994 63.3968 114.124 63.5889 114.219C63.7842 114.313 64.0055 114.36 64.2529 114.36C64.5719 114.36 64.8421 114.295 65.0635 114.165C65.2848 114.035 65.4785 113.861 65.6445 113.643L66.1914 114.077C66.0775 114.25 65.9326 114.414 65.7568 114.57C65.5811 114.727 65.3646 114.854 65.1074 114.951C64.8535 115.049 64.5524 115.098 64.2041 115.098ZM68.2959 107.5V115H67.3877V107.5H68.2959ZM71.9385 115.098C71.5706 115.098 71.237 115.036 70.9375 114.912C70.6413 114.785 70.3857 114.608 70.1709 114.38C69.9593 114.152 69.7965 113.882 69.6826 113.569C69.5687 113.257 69.5117 112.915 69.5117 112.544V112.339C69.5117 111.909 69.5752 111.527 69.7021 111.191C69.8291 110.853 70.0016 110.566 70.2197 110.332C70.4378 110.098 70.6852 109.92 70.9619 109.8C71.2386 109.679 71.5251 109.619 71.8213 109.619C72.1989 109.619 72.5244 109.684 72.7979 109.814C73.0745 109.945 73.3008 110.127 73.4766 110.361C73.6523 110.592 73.7826 110.866 73.8672 111.182C73.9518 111.494 73.9941 111.836 73.9941 112.207V112.612H70.0488V111.875H73.0908V111.807C73.0778 111.572 73.029 111.344 72.9443 111.123C72.863 110.902 72.7327 110.719 72.5537 110.576C72.3747 110.433 72.1305 110.361 71.8213 110.361C71.6162 110.361 71.4274 110.405 71.2549 110.493C71.0824 110.578 70.9342 110.705 70.8105 110.874C70.6868 111.043 70.5908 111.25 70.5225 111.494C70.4541 111.738 70.4199 112.02 70.4199 112.339V112.544C70.4199 112.795 70.4541 113.031 70.5225 113.252C70.5941 113.47 70.6966 113.662 70.8301 113.828C70.9668 113.994 71.1312 114.124 71.3232 114.219C71.5186 114.313 71.7399 114.36 71.9873 114.36C72.3063 114.36 72.5765 114.295 72.7979 114.165C73.0192 114.035 73.2129 113.861 73.3789 113.643L73.9258 114.077C73.8118 114.25 73.667 114.414 73.4912 114.57C73.3154 114.727 73.099 114.854 72.8418 114.951C72.5879 115.049 72.2868 115.098 71.9385 115.098ZM77.1631 114.355C77.3779 114.355 77.5765 114.312 77.7588 114.224C77.9411 114.136 78.0908 114.015 78.208 113.862C78.3252 113.706 78.3919 113.529 78.4082 113.33H79.2676C79.2513 113.643 79.1455 113.934 78.9502 114.204C78.7581 114.471 78.5059 114.688 78.1934 114.854C77.8809 115.016 77.5374 115.098 77.1631 115.098C76.766 115.098 76.4193 115.028 76.123 114.888C75.8301 114.748 75.5859 114.556 75.3906 114.312C75.1986 114.067 75.0537 113.787 74.9561 113.472C74.8617 113.153 74.8145 112.816 74.8145 112.461V112.256C74.8145 111.901 74.8617 111.566 74.9561 111.25C75.0537 110.931 75.1986 110.649 75.3906 110.405C75.5859 110.161 75.8301 109.969 76.123 109.829C76.4193 109.689 76.766 109.619 77.1631 109.619C77.5765 109.619 77.9378 109.704 78.2471 109.873C78.5563 110.039 78.7988 110.267 78.9746 110.557C79.1536 110.843 79.2513 111.169 79.2676 111.533H78.4082C78.3919 111.315 78.3301 111.118 78.2227 110.942C78.1185 110.767 77.9753 110.627 77.793 110.522C77.6139 110.415 77.404 110.361 77.1631 110.361C76.8864 110.361 76.6536 110.417 76.4648 110.527C76.2793 110.635 76.1312 110.781 76.0205 110.967C75.9131 111.149 75.835 111.353 75.7861 111.577C75.7406 111.799 75.7178 112.025 75.7178 112.256V112.461C75.7178 112.692 75.7406 112.92 75.7861 113.145C75.8317 113.369 75.9082 113.573 76.0156 113.755C76.1263 113.937 76.2744 114.084 76.46 114.194C76.6488 114.302 76.8831 114.355 77.1631 114.355ZM82.4951 109.717V110.41H79.6387V109.717H82.4951ZM80.6055 108.433H81.5088V113.691C81.5088 113.87 81.5365 114.006 81.5918 114.097C81.6471 114.188 81.7188 114.248 81.8066 114.277C81.8945 114.307 81.9889 114.321 82.0898 114.321C82.1647 114.321 82.2428 114.315 82.3242 114.302C82.4089 114.285 82.4723 114.272 82.5146 114.263L82.5195 115C82.4479 115.023 82.3535 115.044 82.2363 115.063C82.1224 115.086 81.984 115.098 81.8213 115.098C81.5999 115.098 81.3965 115.054 81.2109 114.966C81.0254 114.878 80.8773 114.731 80.7666 114.526C80.6592 114.318 80.6055 114.038 80.6055 113.687V108.433ZM86.9336 110.767V115H86.0254V109.717H86.8848L86.9336 110.767ZM86.748 112.158L86.3281 112.144C86.3314 111.782 86.3786 111.449 86.4697 111.143C86.5609 110.833 86.696 110.565 86.875 110.337C87.054 110.109 87.277 109.933 87.5439 109.81C87.8109 109.683 88.1201 109.619 88.4717 109.619C88.7191 109.619 88.9469 109.655 89.1553 109.727C89.3636 109.795 89.5443 109.904 89.6973 110.054C89.8503 110.203 89.9691 110.396 90.0537 110.63C90.1383 110.864 90.1807 111.147 90.1807 111.479V115H89.2773V111.523C89.2773 111.247 89.2301 111.025 89.1357 110.859C89.0446 110.693 88.9144 110.573 88.7451 110.498C88.5758 110.42 88.3773 110.381 88.1494 110.381C87.8825 110.381 87.6595 110.428 87.4805 110.522C87.3014 110.617 87.1582 110.747 87.0508 110.913C86.9434 111.079 86.8652 111.27 86.8164 111.484C86.7708 111.696 86.748 111.921 86.748 112.158ZM90.1709 111.66L89.5654 111.846C89.5687 111.556 89.6159 111.278 89.707 111.011C89.8014 110.744 89.9365 110.506 90.1123 110.298C90.2913 110.09 90.5111 109.925 90.7715 109.805C91.0319 109.681 91.3298 109.619 91.665 109.619C91.9482 109.619 92.1989 109.657 92.417 109.731C92.6383 109.806 92.8239 109.922 92.9736 110.078C93.1266 110.231 93.2422 110.428 93.3203 110.669C93.3984 110.91 93.4375 111.196 93.4375 111.528V115H92.5293V111.519C92.5293 111.222 92.4821 110.993 92.3877 110.83C92.2965 110.664 92.1663 110.549 91.9971 110.483C91.8311 110.415 91.6325 110.381 91.4014 110.381C91.2028 110.381 91.027 110.415 90.874 110.483C90.721 110.552 90.5924 110.646 90.4883 110.767C90.3841 110.884 90.3044 111.019 90.249 111.172C90.1969 111.325 90.1709 111.488 90.1709 111.66ZM96.9971 115.098C96.6292 115.098 96.2956 115.036 95.9961 114.912C95.6999 114.785 95.4443 114.608 95.2295 114.38C95.0179 114.152 94.8551 113.882 94.7412 113.569C94.6273 113.257 94.5703 112.915 94.5703 112.544V112.339C94.5703 111.909 94.6338 111.527 94.7607 111.191C94.8877 110.853 95.0602 110.566 95.2783 110.332C95.4964 110.098 95.7438 109.92 96.0205 109.8C96.2972 109.679 96.5837 109.619 96.8799 109.619C97.2575 109.619 97.583 109.684 97.8564 109.814C98.1331 109.945 98.3594 110.127 98.5352 110.361C98.7109 110.592 98.8411 110.866 98.9258 111.182C99.0104 111.494 99.0527 111.836 99.0527 112.207V112.612H95.1074V111.875H98.1494V111.807C98.1364 111.572 98.0876 111.344 98.0029 111.123C97.9215 110.902 97.7913 110.719 97.6123 110.576C97.4333 110.433 97.1891 110.361 96.8799 110.361C96.6748 110.361 96.486 110.405 96.3135 110.493C96.141 110.578 95.9928 110.705 95.8691 110.874C95.7454 111.043 95.6494 111.25 95.5811 111.494C95.5127 111.738 95.4785 112.02 95.4785 112.339V112.544C95.4785 112.795 95.5127 113.031 95.5811 113.252C95.6527 113.47 95.7552 113.662 95.8887 113.828C96.0254 113.994 96.1898 114.124 96.3818 114.219C96.5771 114.313 96.7985 114.36 97.0459 114.36C97.3649 114.36 97.6351 114.295 97.8564 114.165C98.0778 114.035 98.2715 113.861 98.4375 113.643L98.9844 114.077C98.8704 114.25 98.7256 114.414 98.5498 114.57C98.374 114.727 98.1576 114.854 97.9004 114.951C97.6465 115.049 97.3454 115.098 96.9971 115.098ZM103.438 113.975V107.5H104.346V115H103.516L103.438 113.975ZM99.8828 112.417V112.314C99.8828 111.911 99.9316 111.545 100.029 111.216C100.13 110.884 100.272 110.599 100.454 110.361C100.64 110.124 100.859 109.941 101.113 109.814C101.37 109.684 101.657 109.619 101.973 109.619C102.305 109.619 102.594 109.678 102.842 109.795C103.092 109.909 103.304 110.076 103.477 110.298C103.652 110.516 103.791 110.78 103.892 111.089C103.993 111.398 104.062 111.748 104.102 112.139V112.588C104.066 112.975 103.996 113.324 103.892 113.633C103.791 113.942 103.652 114.206 103.477 114.424C103.304 114.642 103.092 114.81 102.842 114.927C102.591 115.041 102.298 115.098 101.963 115.098C101.654 115.098 101.37 115.031 101.113 114.897C100.859 114.764 100.64 114.577 100.454 114.336C100.272 114.095 100.13 113.812 100.029 113.486C99.9316 113.158 99.8828 112.801 99.8828 112.417ZM100.791 112.314V112.417C100.791 112.681 100.817 112.928 100.869 113.159C100.924 113.39 101.009 113.594 101.123 113.77C101.237 113.945 101.382 114.084 101.558 114.185C101.733 114.282 101.943 114.331 102.188 114.331C102.487 114.331 102.733 114.268 102.925 114.141C103.12 114.014 103.276 113.846 103.394 113.638C103.511 113.429 103.602 113.203 103.667 112.959V111.782C103.628 111.603 103.571 111.431 103.496 111.265C103.424 111.095 103.33 110.946 103.213 110.815C103.099 110.682 102.957 110.576 102.788 110.498C102.622 110.42 102.425 110.381 102.197 110.381C101.95 110.381 101.737 110.433 101.558 110.537C101.382 110.638 101.237 110.778 101.123 110.957C101.009 111.133 100.924 111.338 100.869 111.572C100.817 111.803 100.791 112.051 100.791 112.314ZM106.733 109.717V115H105.825V109.717H106.733ZM105.757 108.315C105.757 108.169 105.801 108.045 105.889 107.944C105.98 107.843 106.113 107.793 106.289 107.793C106.462 107.793 106.593 107.843 106.685 107.944C106.779 108.045 106.826 108.169 106.826 108.315C106.826 108.455 106.779 108.576 106.685 108.677C106.593 108.774 106.462 108.823 106.289 108.823C106.113 108.823 105.98 108.774 105.889 108.677C105.801 108.576 105.757 108.455 105.757 108.315ZM111.299 114.097V111.377C111.299 111.169 111.257 110.988 111.172 110.835C111.09 110.679 110.967 110.558 110.801 110.474C110.635 110.389 110.43 110.347 110.186 110.347C109.958 110.347 109.757 110.386 109.585 110.464C109.416 110.542 109.282 110.645 109.185 110.771C109.09 110.898 109.043 111.035 109.043 111.182H108.14C108.14 110.993 108.188 110.806 108.286 110.62C108.384 110.435 108.524 110.267 108.706 110.117C108.892 109.964 109.113 109.844 109.37 109.756C109.631 109.665 109.92 109.619 110.239 109.619C110.623 109.619 110.962 109.684 111.255 109.814C111.551 109.945 111.782 110.142 111.948 110.405C112.118 110.666 112.202 110.993 112.202 111.387V113.848C112.202 114.023 112.217 114.211 112.246 114.409C112.279 114.608 112.326 114.779 112.388 114.922V115H111.445C111.4 114.896 111.364 114.757 111.338 114.585C111.312 114.409 111.299 114.246 111.299 114.097ZM111.455 111.797L111.465 112.432H110.552C110.295 112.432 110.065 112.453 109.863 112.495C109.661 112.534 109.492 112.594 109.355 112.676C109.219 112.757 109.115 112.86 109.043 112.983C108.971 113.104 108.936 113.245 108.936 113.408C108.936 113.574 108.973 113.726 109.048 113.862C109.123 113.999 109.235 114.108 109.385 114.189C109.538 114.268 109.725 114.307 109.946 114.307C110.223 114.307 110.467 114.248 110.679 114.131C110.89 114.014 111.058 113.87 111.182 113.701C111.309 113.532 111.377 113.368 111.387 113.208L111.772 113.643C111.75 113.779 111.688 113.931 111.587 114.097C111.486 114.263 111.351 114.422 111.182 114.575C111.016 114.725 110.817 114.85 110.586 114.951C110.358 115.049 110.101 115.098 109.814 115.098C109.456 115.098 109.142 115.028 108.872 114.888C108.605 114.748 108.397 114.561 108.247 114.326C108.101 114.089 108.027 113.823 108.027 113.53C108.027 113.247 108.083 112.998 108.193 112.783C108.304 112.565 108.464 112.384 108.672 112.241C108.88 112.095 109.131 111.984 109.424 111.909C109.717 111.834 110.044 111.797 110.405 111.797H111.455Z" fill="#7C828B"/>
</svg>
